<?xml version="1.0" encoding="UTF-8"?>
<svg viewBox="0 0 1052.3622 744.09448" xmlns="http://www.w3.org/2000/svg" xmlns:xlink="http://www.w3.org/1999/xlink">
 <defs>
  <linearGradient id="a">
   <stop stop-color="#fff" offset="0"/>
   <stop stop-color="#fff" stop-opacity="0" offset="1"/>
  </linearGradient>
  <linearGradient id="b">
   <stop stop-color="#ffe6d5" offset="0"/>
   <stop stop-color="#ffe6d5" stop-opacity="0" offset="1"/>
  </linearGradient>
  <linearGradient id="d">
   <stop stop-color="#003b00" offset="0"/>
   <stop stop-color="#70bf00" offset="1"/>
  </linearGradient>
  <linearGradient id="e" x1="124.06" x2="214.51" gradientUnits="userSpaceOnUse">
   <stop stop-color="#22c200" offset="0"/>
   <stop stop-color="#132b00" offset="1"/>
  </linearGradient>
  <linearGradient id="c" x1="1126" x2="1418.4" gradientUnits="userSpaceOnUse">
   <stop stop-color="#668000" offset="0"/>
   <stop stop-color="#668000" stop-opacity="0" offset="1"/>
  </linearGradient>
  <linearGradient id="ad" x1="82.542" x2="786.58" y1="816.87" y2="824.16" gradientTransform="matrix(.89933 0 0 1.2786 334.62 -107.15)" gradientUnits="userSpaceOnUse" xlink:href="#d"/>
  <linearGradient id="ac" x1="82.542" x2="786.58" y1="816.87" y2="824.16" gradientTransform="matrix(.89938 0 0 1.219 24.339 -81.746)" gradientUnits="userSpaceOnUse" xlink:href="#d"/>
  <linearGradient id="ab" x1="82.542" x2="786.58" y1="816.87" y2="824.16" gradientTransform="matrix(-.89928 0 0 1.3502 1022.3 -248.52)" gradientUnits="userSpaceOnUse" xlink:href="#d"/>
  <linearGradient id="aa" x1="82.542" x2="786.58" y1="816.87" y2="824.16" gradientTransform="matrix(-.89931 0 0 1.3084 739.39 -237.58)" gradientUnits="userSpaceOnUse" xlink:href="#d"/>
  <linearGradient id="z" x1="82.542" x2="786.58" y1="816.87" y2="824.16" gradientTransform="matrix(.38713 0 0 .5504 66.717 554.88)" gradientUnits="userSpaceOnUse" xlink:href="#d"/>
  <linearGradient id="y" x1="481" x2="609.02" gradientUnits="userSpaceOnUse" xlink:href="#b"/>
  <linearGradient id="x" x1="480.5" x2="609.52" gradientUnits="userSpaceOnUse" xlink:href="#a"/>
  <linearGradient id="w" x1="608.61" x2="736.63" gradientUnits="userSpaceOnUse" xlink:href="#b"/>
  <linearGradient id="v" x1="608.11" x2="737.13" gradientUnits="userSpaceOnUse" xlink:href="#a"/>
  <linearGradient id="u" x1="716.45" x2="844.47" gradientUnits="userSpaceOnUse" xlink:href="#b"/>
  <linearGradient id="t" x1="715.95" x2="844.97" gradientUnits="userSpaceOnUse" xlink:href="#a"/>
  <linearGradient id="s" x1="820.69" x2="948.71" gradientUnits="userSpaceOnUse" xlink:href="#b"/>
  <linearGradient id="r" x1="820.19" x2="949.21" gradientUnits="userSpaceOnUse" xlink:href="#a"/>
  <linearGradient id="q" x1="29.45" x2="133.15" gradientUnits="userSpaceOnUse" xlink:href="#b"/>
  <linearGradient id="p" x1="29.044" x2="133.55" gradientUnits="userSpaceOnUse" xlink:href="#a"/>
  <linearGradient id="o" x1="19.53" x2="103.52" gradientUnits="userSpaceOnUse" xlink:href="#b"/>
  <linearGradient id="n" x1="19.202" x2="103.85" gradientUnits="userSpaceOnUse" xlink:href="#a"/>
  <linearGradient id="m" x1="11.334" x2="79.368" gradientUnits="userSpaceOnUse" xlink:href="#b"/>
  <linearGradient id="l" x1="11.068" x2="79.634" gradientUnits="userSpaceOnUse" xlink:href="#a"/>
  <linearGradient id="k" x1="948.75" x2="1032.7" gradientUnits="userSpaceOnUse" xlink:href="#b"/>
  <linearGradient id="j" x1="948.42" x2="1033.1" gradientUnits="userSpaceOnUse" xlink:href="#a"/>
  <linearGradient id="i" x1="956.73" x2="1024.8" gradientUnits="userSpaceOnUse" xlink:href="#b"/>
  <linearGradient id="h" x1="956.46" x2="1025" gradientUnits="userSpaceOnUse" xlink:href="#a"/>
  <radialGradient id="g" cx="527.52" cy="622.77" r="525.72" gradientTransform="matrix(1 0 0 .22735 0 791.45)" gradientUnits="userSpaceOnUse">
   <stop stop-color="#00089e" offset="0"/>
   <stop stop-color="#002b53" offset="1"/>
  </radialGradient>
  <radialGradient id="f" cx="1204.2" cy="357.67" r="133" gradientTransform="matrix(1 0 0 .82432 0 62.834)" gradientUnits="userSpaceOnUse">
   <stop stop-color="#ffd42a" offset="0"/>
   <stop stop-color="#ffd42a" stop-opacity="0" offset="1"/>
  </radialGradient>
 </defs>
 <g transform="translate(0 -308.27)">
  <path d="m1.7973 307.72h1051.4v506.85h-1051.4z" fill="#03a5db"/>
  <path d="m1.7973 813.52h1051.4v239.04h-1051.4z" fill="url(#g)"/>
  <path d="m710.94 862.92c-262.76-226.75-470.78-168.19-655.93 9.5172" fill="url(#aa)"/>
  <path d="m993.87 887.09c-262.75-233.98-470.76-173.56-655.91 9.8208" fill="url(#ab)"/>
  <path d="m52.794 943.52c262.78-211.24 470.81-156.69 655.98 8.8665" fill="url(#ac)"/>
  <path d="m363.07 968.27c262.77-221.58 470.79-164.36 655.95 9.3003" fill="url(#ad)"/>
  <g transform="matrix(.9 0 0 .9 109.31 238.79)" stroke="#000">
   <path d="m158.62 610.12h19.003v95.476h-19.003z" fill="#500" fill-rule="evenodd" stroke-width=".20461"/>
   <path d="m139.61 651.96c22.689 15.045 42.011 13.26 58.23-4.0436 38.428-23.227 0.0673-158.39-29.115-192.75-28.005 24.286-65.493 159.87-29.115 196.79z" fill="url(#e)" stroke-width="1.0534"/>
  </g>
  <g transform="matrix(.72199 0 0 .59657 37.794 508.19)" fill="#aad400">
   <path transform="translate(0 308.27)" d="m270.31 268.84c2.1581 1.8027 4.1113 3.7533 5.8599 5.9559 2.2431 2.8678 4.3116 5.8775 6.1749 9.0056 1.12 2.2964 2.7393 4.3068 4.1822 6.4072 1.3017 2.059 1.5422 4.4991 2.0109 6.8342 0.56515 2.6654 0.80721 5.3781 0.94466 8.0943 0.0979 2.4692 0.0928 4.941 0.0929 7.4117-2e-3 2.0218-6e-3 4.0437-8e-3 6.0655l-15.91 8.1046c2e-3 -2.0218 5e-3 -4.0437 9e-3 -6.0656 4e-3 -2.4504 0.0154-4.9012-0.0429-7.351-0.0886-2.6303-0.2453-5.266-0.78466-7.8492-0.45245-2.0882-0.70838-4.2943-1.7488-6.1857-1.4299-2.1531-3.0028-4.2501-4.0949-6.5966-1.7553-3.0913-3.7696-6.0284-6.0222-8.7803-1.7711-2.1443-3.8221-3.9479-6.0349-5.6306l15.372-9.4201z"/>
   <path transform="translate(0 308.27)" d="m274.81 329.89c0.45402-4.1713 1.3344-8.2752 2.2101-12.373 0.79051-5.1352 2.7408-9.9778 4.6044-14.796 1.8361-4.1738 4.4853-7.9105 6.9508-11.725 1.0626-1.732 2.1604-3.4411 3.2027-5.1854l16.307-7.1651c-1.1892 1.7138-2.1947 3.5358-3.3525 5.2733-2.5257 3.7416-5.1452 7.45-7.2266 11.463-1.966 4.6859-3.9469 9.465-4.729 14.513-0.80132 3.9155-1.7408 7.8196-1.9312 11.826l-16.035 8.1704z"/>
   <path transform="translate(0 308.27)" d="m303.68 329.19c-4.2924-5.8189-10.139-10.258-15.709-14.779-3.8961-3.0565-8.0262-5.8198-11.546-9.3285-2.4783-2.6632-1.2586-1.414-3.6453-3.7613-2.271-2.483-4.4949-4.9116-7.0572-7.0946l15.079-9.4009c2.5804 2.2226 4.7216 4.7733 6.9161 7.3715 1.1625 1.2521 2.2427 2.5797 3.4224 3.8155 3.3702 3.5306 7.3986 6.331 11.157 9.4141 5.747 4.6697 11.598 9.2492 16.779 14.561l-15.397 9.2026z"/>
   <path transform="translate(0 308.27)" d="m286.95 338.38c0.36337-3.7024 1.1864-7.3152 2.173-10.894 1.6732-6.8857 5.8317-12.548 10.168-17.991 3.4759-4.4491 7.7113-8.1379 11.857-11.923 5.9483-4.9764 2.5267-2.2314 17.725-10.588 0.95621-0.52578 2.1295-0.49527 3.1613-0.85051 1.0143-0.34922 2.0038-0.76759 3.015-1.1259 1.6445-0.8871 0.829-0.4698 2.4444-1.2559l-13.944 11.109c-1.6004 0.74361-0.7705 0.38653-2.4928 1.0641-1.5204 0.54569-3.0908 0.98992-4.5988 1.5635-0.48589 0.1848-1.8717 0.89835-1.427 0.62904 17.04-10.321 17.923-10.982 12.474-7.2016-4.375 3.7392-8.8193 7.4129-12.496 11.884-4.3087 5.1327-8.4553 10.552-10.129 17.169-0.87068 3.3786-1.5916 6.7611-1.8958 10.242l-16.035 8.1704z"/>
   <path transform="matrix(-1 0 0 1 620.36 302.2)" d="m270.31 268.84c2.1581 1.8027 4.1113 3.7533 5.8599 5.9559 2.2431 2.8678 4.3116 5.8775 6.1749 9.0056 1.12 2.2964 2.7393 4.3068 4.1822 6.4072 1.3017 2.059 1.5422 4.4991 2.0109 6.8342 0.56515 2.6654 0.80721 5.3781 0.94466 8.0943 0.0979 2.4692 0.0928 4.941 0.0929 7.4117-2e-3 2.0218-6e-3 4.0437-8e-3 6.0655l-15.91 8.1046c2e-3 -2.0218 5e-3 -4.0437 9e-3 -6.0656 4e-3 -2.4504 0.0154-4.9012-0.0429-7.351-0.0886-2.6303-0.2453-5.266-0.78466-7.8492-0.45245-2.0882-0.70838-4.2943-1.7488-6.1857-1.4299-2.1531-3.0028-4.2501-4.0949-6.5966-1.7553-3.0913-3.7696-6.0284-6.0222-8.7803-1.7711-2.1443-3.8221-3.9479-6.0349-5.6306l15.372-9.4201z"/>
   <path transform="matrix(-1 0 0 1 620.36 302.2)" d="m274.81 329.89c0.45402-4.1713 1.3344-8.2752 2.2101-12.373 0.79051-5.1352 2.7408-9.9778 4.6044-14.796 1.8361-4.1738 4.4853-7.9105 6.9508-11.725 1.0626-1.732 2.1604-3.4411 3.2027-5.1854l16.307-7.1651c-1.1892 1.7138-2.1947 3.5358-3.3525 5.2733-2.5257 3.7416-5.1452 7.45-7.2266 11.463-1.966 4.6859-3.9469 9.465-4.729 14.513-0.80132 3.9155-1.7408 7.8196-1.9312 11.826l-16.035 8.1704z"/>
   <path transform="matrix(-1 0 0 1 620.36 302.2)" d="m303.68 329.19c-4.2924-5.8189-10.139-10.258-15.709-14.779-3.8961-3.0565-8.0262-5.8198-11.546-9.3285-2.4783-2.6632-1.2586-1.414-3.6453-3.7613-2.271-2.483-4.4949-4.9116-7.0572-7.0946l15.079-9.4009c2.5804 2.2226 4.7216 4.7733 6.9161 7.3715 1.1625 1.2521 2.2427 2.5797 3.4224 3.8155 3.3702 3.5306 7.3986 6.331 11.157 9.4141 5.747 4.6697 11.598 9.2492 16.779 14.561l-15.397 9.2026z"/>
   <path transform="matrix(-1 0 0 1 620.36 302.2)" d="m286.95 338.38c0.36337-3.7024 1.1864-7.3152 2.173-10.894 1.6732-6.8857 5.8317-12.548 10.168-17.991 3.4759-4.4491 7.7113-8.1379 11.857-11.923 5.9483-4.9764 2.5267-2.2314 17.725-10.588 0.95621-0.52578 2.1295-0.49527 3.1613-0.85051 1.0143-0.34922 2.0038-0.76759 3.015-1.1259 1.6445-0.8871 0.829-0.4698 2.4444-1.2559l-13.944 11.109c-1.6004 0.74361-0.7705 0.38653-2.4928 1.0641-1.5204 0.54569-3.0908 0.98992-4.5988 1.5635-0.48589 0.1848-1.8717 0.89835-1.427 0.62904 17.04-10.321 17.923-10.982 12.474-7.2016-4.375 3.7392-8.8193 7.4129-12.496 11.884-4.3087 5.1327-8.4553 10.552-10.129 17.169-0.87068 3.3786-1.5916 6.7611-1.8958 10.242l-16.035 8.1704z"/>
  </g>
  <g transform="matrix(.6561 0 0 .6561 231.44 361.16)" stroke="#000">
   <path d="m158.62 610.12h19.003v95.476h-19.003z" fill="#500" fill-rule="evenodd" stroke-width=".20461"/>
   <path d="m139.61 651.96c22.689 15.045 42.011 13.26 58.23-4.0436 38.428-23.227 0.0673-158.39-29.115-192.75-28.005 24.286-65.493 159.87-29.115 196.79z" fill="url(#e)" stroke-width="1.0534"/>
  </g>
  <g transform="matrix(.52633 0 0 .4349 179.31 557.55)" fill="#aad400">
   <path transform="translate(0 308.27)" d="m270.31 268.84c2.1581 1.8027 4.1113 3.7533 5.8599 5.9559 2.2431 2.8678 4.3116 5.8775 6.1749 9.0056 1.12 2.2964 2.7393 4.3068 4.1822 6.4072 1.3017 2.059 1.5422 4.4991 2.0109 6.8342 0.56515 2.6654 0.80721 5.3781 0.94466 8.0943 0.0979 2.4692 0.0928 4.941 0.0929 7.4117-2e-3 2.0218-6e-3 4.0437-8e-3 6.0655l-15.91 8.1046c2e-3 -2.0218 5e-3 -4.0437 9e-3 -6.0656 4e-3 -2.4504 0.0154-4.9012-0.0429-7.351-0.0886-2.6303-0.2453-5.266-0.78466-7.8492-0.45245-2.0882-0.70838-4.2943-1.7488-6.1857-1.4299-2.1531-3.0028-4.2501-4.0949-6.5966-1.7553-3.0913-3.7696-6.0284-6.0222-8.7803-1.7711-2.1443-3.8221-3.9479-6.0349-5.6306l15.372-9.4201z"/>
   <path transform="translate(0 308.27)" d="m274.81 329.89c0.45402-4.1713 1.3344-8.2752 2.2101-12.373 0.79051-5.1352 2.7408-9.9778 4.6044-14.796 1.8361-4.1738 4.4853-7.9105 6.9508-11.725 1.0626-1.732 2.1604-3.4411 3.2027-5.1854l16.307-7.1651c-1.1892 1.7138-2.1947 3.5358-3.3525 5.2733-2.5257 3.7416-5.1452 7.45-7.2266 11.463-1.966 4.6859-3.9469 9.465-4.729 14.513-0.80132 3.9155-1.7408 7.8196-1.9312 11.826l-16.035 8.1704z"/>
   <path transform="translate(0 308.27)" d="m303.68 329.19c-4.2924-5.8189-10.139-10.258-15.709-14.779-3.8961-3.0565-8.0262-5.8198-11.546-9.3285-2.4783-2.6632-1.2586-1.414-3.6453-3.7613-2.271-2.483-4.4949-4.9116-7.0572-7.0946l15.079-9.4009c2.5804 2.2226 4.7216 4.7733 6.9161 7.3715 1.1625 1.2521 2.2427 2.5797 3.4224 3.8155 3.3702 3.5306 7.3986 6.331 11.157 9.4141 5.747 4.6697 11.598 9.2492 16.779 14.561l-15.397 9.2026z"/>
   <path transform="translate(0 308.27)" d="m286.95 338.38c0.36337-3.7024 1.1864-7.3152 2.173-10.894 1.6732-6.8857 5.8317-12.548 10.168-17.991 3.4759-4.4491 7.7113-8.1379 11.857-11.923 5.9483-4.9764 2.5267-2.2314 17.725-10.588 0.95621-0.52578 2.1295-0.49527 3.1613-0.85051 1.0143-0.34922 2.0038-0.76759 3.015-1.1259 1.6445-0.8871 0.829-0.4698 2.4444-1.2559l-13.944 11.109c-1.6004 0.74361-0.7705 0.38653-2.4928 1.0641-1.5204 0.54569-3.0908 0.98992-4.5988 1.5635-0.48589 0.1848-1.8717 0.89835-1.427 0.62904 17.04-10.321 17.923-10.982 12.474-7.2016-4.375 3.7392-8.8193 7.4129-12.496 11.884-4.3087 5.1327-8.4553 10.552-10.129 17.169-0.87068 3.3786-1.5916 6.7611-1.8958 10.242l-16.035 8.1704z"/>
   <path transform="matrix(-1 0 0 1 620.36 302.2)" d="m270.31 268.84c2.1581 1.8027 4.1113 3.7533 5.8599 5.9559 2.2431 2.8678 4.3116 5.8775 6.1749 9.0056 1.12 2.2964 2.7393 4.3068 4.1822 6.4072 1.3017 2.059 1.5422 4.4991 2.0109 6.8342 0.56515 2.6654 0.80721 5.3781 0.94466 8.0943 0.0979 2.4692 0.0928 4.941 0.0929 7.4117-2e-3 2.0218-6e-3 4.0437-8e-3 6.0655l-15.91 8.1046c2e-3 -2.0218 5e-3 -4.0437 9e-3 -6.0656 4e-3 -2.4504 0.0154-4.9012-0.0429-7.351-0.0886-2.6303-0.2453-5.266-0.78466-7.8492-0.45245-2.0882-0.70838-4.2943-1.7488-6.1857-1.4299-2.1531-3.0028-4.2501-4.0949-6.5966-1.7553-3.0913-3.7696-6.0284-6.0222-8.7803-1.7711-2.1443-3.8221-3.9479-6.0349-5.6306l15.372-9.4201z"/>
   <path transform="matrix(-1 0 0 1 620.36 302.2)" d="m274.81 329.89c0.45402-4.1713 1.3344-8.2752 2.2101-12.373 0.79051-5.1352 2.7408-9.9778 4.6044-14.796 1.8361-4.1738 4.4853-7.9105 6.9508-11.725 1.0626-1.732 2.1604-3.4411 3.2027-5.1854l16.307-7.1651c-1.1892 1.7138-2.1947 3.5358-3.3525 5.2733-2.5257 3.7416-5.1452 7.45-7.2266 11.463-1.966 4.6859-3.9469 9.465-4.729 14.513-0.80132 3.9155-1.7408 7.8196-1.9312 11.826l-16.035 8.1704z"/>
   <path transform="matrix(-1 0 0 1 620.36 302.2)" d="m303.68 329.19c-4.2924-5.8189-10.139-10.258-15.709-14.779-3.8961-3.0565-8.0262-5.8198-11.546-9.3285-2.4783-2.6632-1.2586-1.414-3.6453-3.7613-2.271-2.483-4.4949-4.9116-7.0572-7.0946l15.079-9.4009c2.5804 2.2226 4.7216 4.7733 6.9161 7.3715 1.1625 1.2521 2.2427 2.5797 3.4224 3.8155 3.3702 3.5306 7.3986 6.331 11.157 9.4141 5.747 4.6697 11.598 9.2492 16.779 14.561l-15.397 9.2026z"/>
   <path transform="matrix(-1 0 0 1 620.36 302.2)" d="m286.95 338.38c0.36337-3.7024 1.1864-7.3152 2.173-10.894 1.6732-6.8857 5.8317-12.548 10.168-17.991 3.4759-4.4491 7.7113-8.1379 11.857-11.923 5.9483-4.9764 2.5267-2.2314 17.725-10.588 0.95621-0.52578 2.1295-0.49527 3.1613-0.85051 1.0143-0.34922 2.0038-0.76759 3.015-1.1259 1.6445-0.8871 0.829-0.4698 2.4444-1.2559l-13.944 11.109c-1.6004 0.74361-0.7705 0.38653-2.4928 1.0641-1.5204 0.54569-3.0908 0.98992-4.5988 1.5635-0.48589 0.1848-1.8717 0.89835-1.427 0.62904 17.04-10.321 17.923-10.982 12.474-7.2016-4.375 3.7392-8.8193 7.4129-12.496 11.884-4.3087 5.1327-8.4553 10.552-10.129 17.169-0.87068 3.3786-1.5916 6.7611-1.8958 10.242l-16.035 8.1704z"/>
  </g>
  <g transform="matrix(.43047 0 0 .43047 336.54 487.25)" stroke="#000">
   <path d="m158.62 610.12h19.003v95.476h-19.003z" fill="#500" fill-rule="evenodd" stroke-width=".20461"/>
   <path d="m139.61 651.96c22.689 15.045 42.011 13.26 58.23-4.0436 38.428-23.227 0.0673-158.39-29.115-192.75-28.005 24.286-65.493 159.87-29.115 196.79z" fill="url(#e)" stroke-width="1.0534"/>
  </g>
  <g transform="matrix(.34533 0 0 .28534 302.33 616.1)" fill="#aad400">
   <path transform="translate(0 308.27)" d="m270.31 268.84c2.1581 1.8027 4.1113 3.7533 5.8599 5.9559 2.2431 2.8678 4.3116 5.8775 6.1749 9.0056 1.12 2.2964 2.7393 4.3068 4.1822 6.4072 1.3017 2.059 1.5422 4.4991 2.0109 6.8342 0.56515 2.6654 0.80721 5.3781 0.94466 8.0943 0.0979 2.4692 0.0928 4.941 0.0929 7.4117-2e-3 2.0218-6e-3 4.0437-8e-3 6.0655l-15.91 8.1046c2e-3 -2.0218 5e-3 -4.0437 9e-3 -6.0656 4e-3 -2.4504 0.0154-4.9012-0.0429-7.351-0.0886-2.6303-0.2453-5.266-0.78466-7.8492-0.45245-2.0882-0.70838-4.2943-1.7488-6.1857-1.4299-2.1531-3.0028-4.2501-4.0949-6.5966-1.7553-3.0913-3.7696-6.0284-6.0222-8.7803-1.7711-2.1443-3.8221-3.9479-6.0349-5.6306l15.372-9.4201z"/>
   <path transform="translate(0 308.27)" d="m274.81 329.89c0.45402-4.1713 1.3344-8.2752 2.2101-12.373 0.79051-5.1352 2.7408-9.9778 4.6044-14.796 1.8361-4.1738 4.4853-7.9105 6.9508-11.725 1.0626-1.732 2.1604-3.4411 3.2027-5.1854l16.307-7.1651c-1.1892 1.7138-2.1947 3.5358-3.3525 5.2733-2.5257 3.7416-5.1452 7.45-7.2266 11.463-1.966 4.6859-3.9469 9.465-4.729 14.513-0.80132 3.9155-1.7408 7.8196-1.9312 11.826l-16.035 8.1704z"/>
   <path transform="translate(0 308.27)" d="m303.68 329.19c-4.2924-5.8189-10.139-10.258-15.709-14.779-3.8961-3.0565-8.0262-5.8198-11.546-9.3285-2.4783-2.6632-1.2586-1.414-3.6453-3.7613-2.271-2.483-4.4949-4.9116-7.0572-7.0946l15.079-9.4009c2.5804 2.2226 4.7216 4.7733 6.9161 7.3715 1.1625 1.2521 2.2427 2.5797 3.4224 3.8155 3.3702 3.5306 7.3986 6.331 11.157 9.4141 5.747 4.6697 11.598 9.2492 16.779 14.561l-15.397 9.2026z"/>
   <path transform="translate(0 308.27)" d="m286.95 338.38c0.36337-3.7024 1.1864-7.3152 2.173-10.894 1.6732-6.8857 5.8317-12.548 10.168-17.991 3.4759-4.4491 7.7113-8.1379 11.857-11.923 5.9483-4.9764 2.5267-2.2314 17.725-10.588 0.95621-0.52578 2.1295-0.49527 3.1613-0.85051 1.0143-0.34922 2.0038-0.76759 3.015-1.1259 1.6445-0.8871 0.829-0.4698 2.4444-1.2559l-13.944 11.109c-1.6004 0.74361-0.7705 0.38653-2.4928 1.0641-1.5204 0.54569-3.0908 0.98992-4.5988 1.5635-0.48589 0.1848-1.8717 0.89835-1.427 0.62904 17.04-10.321 17.923-10.982 12.474-7.2016-4.375 3.7392-8.8193 7.4129-12.496 11.884-4.3087 5.1327-8.4553 10.552-10.129 17.169-0.87068 3.3786-1.5916 6.7611-1.8958 10.242l-16.035 8.1704z"/>
   <path transform="matrix(-1 0 0 1 620.36 302.2)" d="m270.31 268.84c2.1581 1.8027 4.1113 3.7533 5.8599 5.9559 2.2431 2.8678 4.3116 5.8775 6.1749 9.0056 1.12 2.2964 2.7393 4.3068 4.1822 6.4072 1.3017 2.059 1.5422 4.4991 2.0109 6.8342 0.56515 2.6654 0.80721 5.3781 0.94466 8.0943 0.0979 2.4692 0.0928 4.941 0.0929 7.4117-2e-3 2.0218-6e-3 4.0437-8e-3 6.0655l-15.91 8.1046c2e-3 -2.0218 5e-3 -4.0437 9e-3 -6.0656 4e-3 -2.4504 0.0154-4.9012-0.0429-7.351-0.0886-2.6303-0.2453-5.266-0.78466-7.8492-0.45245-2.0882-0.70838-4.2943-1.7488-6.1857-1.4299-2.1531-3.0028-4.2501-4.0949-6.5966-1.7553-3.0913-3.7696-6.0284-6.0222-8.7803-1.7711-2.1443-3.8221-3.9479-6.0349-5.6306l15.372-9.4201z"/>
   <path transform="matrix(-1 0 0 1 620.36 302.2)" d="m274.81 329.89c0.45402-4.1713 1.3344-8.2752 2.2101-12.373 0.79051-5.1352 2.7408-9.9778 4.6044-14.796 1.8361-4.1738 4.4853-7.9105 6.9508-11.725 1.0626-1.732 2.1604-3.4411 3.2027-5.1854l16.307-7.1651c-1.1892 1.7138-2.1947 3.5358-3.3525 5.2733-2.5257 3.7416-5.1452 7.45-7.2266 11.463-1.966 4.6859-3.9469 9.465-4.729 14.513-0.80132 3.9155-1.7408 7.8196-1.9312 11.826l-16.035 8.1704z"/>
   <path transform="matrix(-1 0 0 1 620.36 302.2)" d="m303.68 329.19c-4.2924-5.8189-10.139-10.258-15.709-14.779-3.8961-3.0565-8.0262-5.8198-11.546-9.3285-2.4783-2.6632-1.2586-1.414-3.6453-3.7613-2.271-2.483-4.4949-4.9116-7.0572-7.0946l15.079-9.4009c2.5804 2.2226 4.7216 4.7733 6.9161 7.3715 1.1625 1.2521 2.2427 2.5797 3.4224 3.8155 3.3702 3.5306 7.3986 6.331 11.157 9.4141 5.747 4.6697 11.598 9.2492 16.779 14.561l-15.397 9.2026z"/>
   <path transform="matrix(-1 0 0 1 620.36 302.2)" d="m286.95 338.38c0.36337-3.7024 1.1864-7.3152 2.173-10.894 1.6732-6.8857 5.8317-12.548 10.168-17.991 3.4759-4.4491 7.7113-8.1379 11.857-11.923 5.9483-4.9764 2.5267-2.2314 17.725-10.588 0.95621-0.52578 2.1295-0.49527 3.1613-0.85051 1.0143-0.34922 2.0038-0.76759 3.015-1.1259 1.6445-0.8871 0.829-0.4698 2.4444-1.2559l-13.944 11.109c-1.6004 0.74361-0.7705 0.38653-2.4928 1.0641-1.5204 0.54569-3.0908 0.98992-4.5988 1.5635-0.48589 0.1848-1.8717 0.89835-1.427 0.62904 17.04-10.321 17.923-10.982 12.474-7.2016-4.375 3.7392-8.8193 7.4129-12.496 11.884-4.3087 5.1327-8.4553 10.552-10.129 17.169-0.87068 3.3786-1.5916 6.7611-1.8958 10.242l-16.035 8.1704z"/>
  </g>
  <g transform="matrix(.25419 0 0 .25419 413.81 595.21)" stroke="#000">
   <path d="m158.62 610.12h19.003v95.476h-19.003z" fill="#500" fill-rule="evenodd" stroke-width=".20461"/>
   <path d="m139.61 651.96c22.689 15.045 42.011 13.26 58.23-4.0436 38.428-23.227 0.0673-158.39-29.115-192.75-28.005 24.286-65.493 159.87-29.115 196.79z" fill="url(#e)" stroke-width="1.0534"/>
  </g>
  <g transform="matrix(.20391 0 0 .16849 393.61 671.3)" fill="#aad400">
   <path transform="translate(0 308.27)" d="m270.31 268.84c2.1581 1.8027 4.1113 3.7533 5.8599 5.9559 2.2431 2.8678 4.3116 5.8775 6.1749 9.0056 1.12 2.2964 2.7393 4.3068 4.1822 6.4072 1.3017 2.059 1.5422 4.4991 2.0109 6.8342 0.56515 2.6654 0.80721 5.3781 0.94466 8.0943 0.0979 2.4692 0.0928 4.941 0.0929 7.4117-2e-3 2.0218-6e-3 4.0437-8e-3 6.0655l-15.91 8.1046c2e-3 -2.0218 5e-3 -4.0437 9e-3 -6.0656 4e-3 -2.4504 0.0154-4.9012-0.0429-7.351-0.0886-2.6303-0.2453-5.266-0.78466-7.8492-0.45245-2.0882-0.70838-4.2943-1.7488-6.1857-1.4299-2.1531-3.0028-4.2501-4.0949-6.5966-1.7553-3.0913-3.7696-6.0284-6.0222-8.7803-1.7711-2.1443-3.8221-3.9479-6.0349-5.6306l15.372-9.4201z"/>
   <path transform="translate(0 308.27)" d="m274.81 329.89c0.45402-4.1713 1.3344-8.2752 2.2101-12.373 0.79051-5.1352 2.7408-9.9778 4.6044-14.796 1.8361-4.1738 4.4853-7.9105 6.9508-11.725 1.0626-1.732 2.1604-3.4411 3.2027-5.1854l16.307-7.1651c-1.1892 1.7138-2.1947 3.5358-3.3525 5.2733-2.5257 3.7416-5.1452 7.45-7.2266 11.463-1.966 4.6859-3.9469 9.465-4.729 14.513-0.80132 3.9155-1.7408 7.8196-1.9312 11.826l-16.035 8.1704z"/>
   <path transform="translate(0 308.27)" d="m303.68 329.19c-4.2924-5.8189-10.139-10.258-15.709-14.779-3.8961-3.0565-8.0262-5.8198-11.546-9.3285-2.4783-2.6632-1.2586-1.414-3.6453-3.7613-2.271-2.483-4.4949-4.9116-7.0572-7.0946l15.079-9.4009c2.5804 2.2226 4.7216 4.7733 6.9161 7.3715 1.1625 1.2521 2.2427 2.5797 3.4224 3.8155 3.3702 3.5306 7.3986 6.331 11.157 9.4141 5.747 4.6697 11.598 9.2492 16.779 14.561l-15.397 9.2026z"/>
   <path transform="translate(0 308.27)" d="m286.95 338.38c0.36337-3.7024 1.1864-7.3152 2.173-10.894 1.6732-6.8857 5.8317-12.548 10.168-17.991 3.4759-4.4491 7.7113-8.1379 11.857-11.923 5.9483-4.9764 2.5267-2.2314 17.725-10.588 0.95621-0.52578 2.1295-0.49527 3.1613-0.85051 1.0143-0.34922 2.0038-0.76759 3.015-1.1259 1.6445-0.8871 0.829-0.4698 2.4444-1.2559l-13.944 11.109c-1.6004 0.74361-0.7705 0.38653-2.4928 1.0641-1.5204 0.54569-3.0908 0.98992-4.5988 1.5635-0.48589 0.1848-1.8717 0.89835-1.427 0.62904 17.04-10.321 17.923-10.982 12.474-7.2016-4.375 3.7392-8.8193 7.4129-12.496 11.884-4.3087 5.1327-8.4553 10.552-10.129 17.169-0.87068 3.3786-1.5916 6.7611-1.8958 10.242l-16.035 8.1704z"/>
   <path transform="matrix(-1 0 0 1 620.36 302.2)" d="m270.31 268.84c2.1581 1.8027 4.1113 3.7533 5.8599 5.9559 2.2431 2.8678 4.3116 5.8775 6.1749 9.0056 1.12 2.2964 2.7393 4.3068 4.1822 6.4072 1.3017 2.059 1.5422 4.4991 2.0109 6.8342 0.56515 2.6654 0.80721 5.3781 0.94466 8.0943 0.0979 2.4692 0.0928 4.941 0.0929 7.4117-2e-3 2.0218-6e-3 4.0437-8e-3 6.0655l-15.91 8.1046c2e-3 -2.0218 5e-3 -4.0437 9e-3 -6.0656 4e-3 -2.4504 0.0154-4.9012-0.0429-7.351-0.0886-2.6303-0.2453-5.266-0.78466-7.8492-0.45245-2.0882-0.70838-4.2943-1.7488-6.1857-1.4299-2.1531-3.0028-4.2501-4.0949-6.5966-1.7553-3.0913-3.7696-6.0284-6.0222-8.7803-1.7711-2.1443-3.8221-3.9479-6.0349-5.6306l15.372-9.4201z"/>
   <path transform="matrix(-1 0 0 1 620.36 302.2)" d="m274.81 329.89c0.45402-4.1713 1.3344-8.2752 2.2101-12.373 0.79051-5.1352 2.7408-9.9778 4.6044-14.796 1.8361-4.1738 4.4853-7.9105 6.9508-11.725 1.0626-1.732 2.1604-3.4411 3.2027-5.1854l16.307-7.1651c-1.1892 1.7138-2.1947 3.5358-3.3525 5.2733-2.5257 3.7416-5.1452 7.45-7.2266 11.463-1.966 4.6859-3.9469 9.465-4.729 14.513-0.80132 3.9155-1.7408 7.8196-1.9312 11.826l-16.035 8.1704z"/>
   <path transform="matrix(-1 0 0 1 620.36 302.2)" d="m303.68 329.19c-4.2924-5.8189-10.139-10.258-15.709-14.779-3.8961-3.0565-8.0262-5.8198-11.546-9.3285-2.4783-2.6632-1.2586-1.414-3.6453-3.7613-2.271-2.483-4.4949-4.9116-7.0572-7.0946l15.079-9.4009c2.5804 2.2226 4.7216 4.7733 6.9161 7.3715 1.1625 1.2521 2.2427 2.5797 3.4224 3.8155 3.3702 3.5306 7.3986 6.331 11.157 9.4141 5.747 4.6697 11.598 9.2492 16.779 14.561l-15.397 9.2026z"/>
   <path transform="matrix(-1 0 0 1 620.36 302.2)" d="m286.95 338.38c0.36337-3.7024 1.1864-7.3152 2.173-10.894 1.6732-6.8857 5.8317-12.548 10.168-17.991 3.4759-4.4491 7.7113-8.1379 11.857-11.923 5.9483-4.9764 2.5267-2.2314 17.725-10.588 0.95621-0.52578 2.1295-0.49527 3.1613-0.85051 1.0143-0.34922 2.0038-0.76759 3.015-1.1259 1.6445-0.8871 0.829-0.4698 2.4444-1.2559l-13.944 11.109c-1.6004 0.74361-0.7705 0.38653-2.4928 1.0641-1.5204 0.54569-3.0908 0.98992-4.5988 1.5635-0.48589 0.1848-1.8717 0.89835-1.427 0.62904 17.04-10.321 17.923-10.982 12.474-7.2016-4.375 3.7392-8.8193 7.4129-12.496 11.884-4.3087 5.1327-8.4553 10.552-10.129 17.169-0.87068 3.3786-1.5916 6.7611-1.8958 10.242l-16.035 8.1704z"/>
  </g>
  <g transform="matrix(.16677 0 0 .16677 469.72 645.87)" stroke="#000">
   <path d="m158.62 610.12h19.003v95.476h-19.003z" fill="#500" fill-rule="evenodd" stroke-width=".20461"/>
   <path d="m139.61 651.96c22.689 15.045 42.011 13.26 58.23-4.0436 38.428-23.227 0.0673-158.39-29.115-192.75-28.005 24.286-65.493 159.87-29.115 196.79z" fill="url(#e)" stroke-width="1.0534"/>
  </g>
  <g transform="matrix(.13379 0 0 .11055 456.47 695.79)" fill="#aad400">
   <path transform="translate(0 308.27)" d="m270.31 268.84c2.1581 1.8027 4.1113 3.7533 5.8599 5.9559 2.2431 2.8678 4.3116 5.8775 6.1749 9.0056 1.12 2.2964 2.7393 4.3068 4.1822 6.4072 1.3017 2.059 1.5422 4.4991 2.0109 6.8342 0.56515 2.6654 0.80721 5.3781 0.94466 8.0943 0.0979 2.4692 0.0928 4.941 0.0929 7.4117-2e-3 2.0218-6e-3 4.0437-8e-3 6.0655l-15.91 8.1046c2e-3 -2.0218 5e-3 -4.0437 9e-3 -6.0656 4e-3 -2.4504 0.0154-4.9012-0.0429-7.351-0.0886-2.6303-0.2453-5.266-0.78466-7.8492-0.45245-2.0882-0.70838-4.2943-1.7488-6.1857-1.4299-2.1531-3.0028-4.2501-4.0949-6.5966-1.7553-3.0913-3.7696-6.0284-6.0222-8.7803-1.7711-2.1443-3.8221-3.9479-6.0349-5.6306l15.372-9.4201z"/>
   <path transform="translate(0 308.27)" d="m274.81 329.89c0.45402-4.1713 1.3344-8.2752 2.2101-12.373 0.79051-5.1352 2.7408-9.9778 4.6044-14.796 1.8361-4.1738 4.4853-7.9105 6.9508-11.725 1.0626-1.732 2.1604-3.4411 3.2027-5.1854l16.307-7.1651c-1.1892 1.7138-2.1947 3.5358-3.3525 5.2733-2.5257 3.7416-5.1452 7.45-7.2266 11.463-1.966 4.6859-3.9469 9.465-4.729 14.513-0.80132 3.9155-1.7408 7.8196-1.9312 11.826l-16.035 8.1704z"/>
   <path transform="translate(0 308.27)" d="m303.68 329.19c-4.2924-5.8189-10.139-10.258-15.709-14.779-3.8961-3.0565-8.0262-5.8198-11.546-9.3285-2.4783-2.6632-1.2586-1.414-3.6453-3.7613-2.271-2.483-4.4949-4.9116-7.0572-7.0946l15.079-9.4009c2.5804 2.2226 4.7216 4.7733 6.9161 7.3715 1.1625 1.2521 2.2427 2.5797 3.4224 3.8155 3.3702 3.5306 7.3986 6.331 11.157 9.4141 5.747 4.6697 11.598 9.2492 16.779 14.561l-15.397 9.2026z"/>
   <path transform="translate(0 308.27)" d="m286.95 338.38c0.36337-3.7024 1.1864-7.3152 2.173-10.894 1.6732-6.8857 5.8317-12.548 10.168-17.991 3.4759-4.4491 7.7113-8.1379 11.857-11.923 5.9483-4.9764 2.5267-2.2314 17.725-10.588 0.95621-0.52578 2.1295-0.49527 3.1613-0.85051 1.0143-0.34922 2.0038-0.76759 3.015-1.1259 1.6445-0.8871 0.829-0.4698 2.4444-1.2559l-13.944 11.109c-1.6004 0.74361-0.7705 0.38653-2.4928 1.0641-1.5204 0.54569-3.0908 0.98992-4.5988 1.5635-0.48589 0.1848-1.8717 0.89835-1.427 0.62904 17.04-10.321 17.923-10.982 12.474-7.2016-4.375 3.7392-8.8193 7.4129-12.496 11.884-4.3087 5.1327-8.4553 10.552-10.129 17.169-0.87068 3.3786-1.5916 6.7611-1.8958 10.242l-16.035 8.1704z"/>
   <path transform="matrix(-1 0 0 1 620.36 302.2)" d="m270.31 268.84c2.1581 1.8027 4.1113 3.7533 5.8599 5.9559 2.2431 2.8678 4.3116 5.8775 6.1749 9.0056 1.12 2.2964 2.7393 4.3068 4.1822 6.4072 1.3017 2.059 1.5422 4.4991 2.0109 6.8342 0.56515 2.6654 0.80721 5.3781 0.94466 8.0943 0.0979 2.4692 0.0928 4.941 0.0929 7.4117-2e-3 2.0218-6e-3 4.0437-8e-3 6.0655l-15.91 8.1046c2e-3 -2.0218 5e-3 -4.0437 9e-3 -6.0656 4e-3 -2.4504 0.0154-4.9012-0.0429-7.351-0.0886-2.6303-0.2453-5.266-0.78466-7.8492-0.45245-2.0882-0.70838-4.2943-1.7488-6.1857-1.4299-2.1531-3.0028-4.2501-4.0949-6.5966-1.7553-3.0913-3.7696-6.0284-6.0222-8.7803-1.7711-2.1443-3.8221-3.9479-6.0349-5.6306l15.372-9.4201z"/>
   <path transform="matrix(-1 0 0 1 620.36 302.2)" d="m274.81 329.89c0.45402-4.1713 1.3344-8.2752 2.2101-12.373 0.79051-5.1352 2.7408-9.9778 4.6044-14.796 1.8361-4.1738 4.4853-7.9105 6.9508-11.725 1.0626-1.732 2.1604-3.4411 3.2027-5.1854l16.307-7.1651c-1.1892 1.7138-2.1947 3.5358-3.3525 5.2733-2.5257 3.7416-5.1452 7.45-7.2266 11.463-1.966 4.6859-3.9469 9.465-4.729 14.513-0.80132 3.9155-1.7408 7.8196-1.9312 11.826l-16.035 8.1704z"/>
   <path transform="matrix(-1 0 0 1 620.36 302.2)" d="m303.68 329.19c-4.2924-5.8189-10.139-10.258-15.709-14.779-3.8961-3.0565-8.0262-5.8198-11.546-9.3285-2.4783-2.6632-1.2586-1.414-3.6453-3.7613-2.271-2.483-4.4949-4.9116-7.0572-7.0946l15.079-9.4009c2.5804 2.2226 4.7216 4.7733 6.9161 7.3715 1.1625 1.2521 2.2427 2.5797 3.4224 3.8155 3.3702 3.5306 7.3986 6.331 11.157 9.4141 5.747 4.6697 11.598 9.2492 16.779 14.561l-15.397 9.2026z"/>
   <path transform="matrix(-1 0 0 1 620.36 302.2)" d="m286.95 338.38c0.36337-3.7024 1.1864-7.3152 2.173-10.894 1.6732-6.8857 5.8317-12.548 10.168-17.991 3.4759-4.4491 7.7113-8.1379 11.857-11.923 5.9483-4.9764 2.5267-2.2314 17.725-10.588 0.95621-0.52578 2.1295-0.49527 3.1613-0.85051 1.0143-0.34922 2.0038-0.76759 3.015-1.1259 1.6445-0.8871 0.829-0.4698 2.4444-1.2559l-13.944 11.109c-1.6004 0.74361-0.7705 0.38653-2.4928 1.0641-1.5204 0.54569-3.0908 0.98992-4.5988 1.5635-0.48589 0.1848-1.8717 0.89835-1.427 0.62904 17.04-10.321 17.923-10.982 12.474-7.2016-4.375 3.7392-8.8193 7.4129-12.496 11.884-4.3087 5.1327-8.4553 10.552-10.129 17.169-0.87068 3.3786-1.5916 6.7611-1.8958 10.242l-16.035 8.1704z"/>
  </g>
  <path d="m78.965 1017.8c113.11-95.382 202.66-70.751 282.36 4.0034" fill="url(#z)"/>
  <path transform="matrix(1 0 0 1.0738 -337.9 70.696)" d="m1208.6 467.25a133 109.64 0 1 1 0.12 -3e-3l-4.5019-109.57z" fill="url(#f)"/>
  <path d="m497.63 997.85c3.46-0.28128 6.9571-0.3873 10.449-0.47717 3.9865-0.60553 7.4647-0.44659 11.463-0.0465 5.3976 1.0231 10.549 2.4045 15.74 3.7011 3.8297 0.8903 7.641 1.7462 11.753 2.1555 2.8562 0.2292 5.7506 0.2181 8.6305 0.2175 2.7972-0.01 5.5943-0.016 8.3916-0.02 3.0612-0.079 6.1888 0.1911 9.2022-0.1484 6.469-1.0079 20.239-5.6733-13.477 4.4229-0.76194 0.2281 1.3272-0.613 1.9258-0.9552 5.8687-3.9619 14.863-6.0377 23.542-7.9196 2.6495-0.50928 5.4595-0.62194 8.2443-0.69692 2.8297-0.0533 5.6618-0.0429 8.4927-0.0394l7.0335 8e-3 -16.76 6.5866-7.032-0.01c-2.8022 0-5.6084-0.01-8.4049 0.1056-2.7026 0.1391-5.3836 0.3758-7.8806 0.9844-7.2553 1.5822-0.50025 0.1446 15.563-4.9967 0.33081-0.1059-0.72791 0.1383-1.0678 0.2353-1.1351 0.3241-1.9334 0.837-2.5995 1.4189-0.30703 0.1755-0.63641 0.3403-0.92111 0.5266-0.30364 0.1986-0.4349 0.4901-0.84023 0.6255-6.9085 2.3087-13.952 5.8145-22.427 6.396-3.1138 0.063-6.2322 0.015-9.3476 0.045-2.8014 0.01-5.6029 0.019-8.4044 0.01-2.9566-0.024-5.931-0.07-8.8262-0.43-4.0991-0.5677-7.9381-1.506-11.794-2.4373-5.0394-1.297-10.067-2.7434-15.548-3.4012-3.9802-0.3016-7.3152-0.049-11.255 0.2581-3.5136 0.1089-7.0396 0.2514-10.475 0.6906l16.628-6.8123z" fill="url(#y)" stroke="url(#x)" stroke-linecap="round" stroke-linejoin="round" stroke-width=".77377"/>
  <path d="m625.24 1017.6c3.46-0.2813 6.9571-0.3873 10.449-0.4772 3.9865-0.6055 7.4647-0.4466 11.463-0.047 5.3976 1.0231 10.549 2.4045 15.74 3.7011 3.8297 0.8903 7.641 1.7462 11.753 2.1555 2.8562 0.2292 5.7506 0.2181 8.6305 0.2175 2.7972-0.01 5.5943-0.016 8.3916-0.02 3.0612-0.079 6.1888 0.1911 9.2022-0.1484 6.469-1.0079 20.239-5.6733-13.477 4.4229-0.76194 0.2281 1.3272-0.613 1.9258-0.9552 5.8687-3.9619 14.863-6.0377 23.542-7.9196 2.6495-0.5093 5.4595-0.6219 8.2443-0.6969 2.8297-0.053 5.6618-0.043 8.4927-0.039l7.0335 0.01-16.76 6.5866-7.032-0.01c-2.8022 0-5.6084-0.01-8.4049 0.1056-2.7026 0.1391-5.3836 0.3758-7.8806 0.9844-7.2553 1.5822-0.50025 0.1446 15.563-4.9967 0.33081-0.1059-0.72791 0.1383-1.0678 0.2353-1.1351 0.3241-1.9334 0.837-2.5995 1.4189-0.30703 0.1755-0.63641 0.3403-0.92111 0.5266-0.30364 0.1986-0.4349 0.4901-0.84023 0.6255-6.9085 2.3087-13.952 5.8145-22.427 6.396-3.1138 0.063-6.2322 0.015-9.3476 0.045-2.8014 0.01-5.6029 0.019-8.4044 0.01-2.9566-0.024-5.931-0.07-8.8262-0.43-4.0991-0.5677-7.9381-1.506-11.794-2.4373-5.0394-1.297-10.067-2.7434-15.548-3.4012-3.9802-0.3016-7.3152-0.049-11.255 0.2581-3.5136 0.1089-7.0396 0.2514-10.475 0.6906l16.628-6.8123z" fill="url(#w)" stroke="url(#v)" stroke-linecap="round" stroke-linejoin="round" stroke-width=".77377"/>
  <path d="m733.08 996.05c3.46-0.2813 6.9571-0.3873 10.449-0.4772 3.9865-0.6055 7.4647-0.4466 11.463-0.047 5.3976 1.0231 10.549 2.4045 15.74 3.7011 3.8297 0.89026 7.641 1.7462 11.753 2.1555 2.8562 0.2292 5.7506 0.2181 8.6305 0.2175 2.7972-0.01 5.5943-0.016 8.3916-0.02 3.0612-0.079 6.1888 0.1911 9.2022-0.1484 6.469-1.0079 20.239-5.6733-13.477 4.4229-0.76194 0.2281 1.3272-0.613 1.9258-0.9552 5.8687-3.9619 14.863-6.0377 23.542-7.9196 2.6495-0.5093 5.4595-0.6219 8.2443-0.6969 2.8297-0.053 5.6618-0.043 8.4927-0.039l7.0335 0.01-16.76 6.5866-7.032-0.01c-2.8022 0-5.6084-0.01-8.4049 0.1056-2.7026 0.1391-5.3836 0.3758-7.8806 0.9844-7.2553 1.5822-0.50025 0.1446 15.563-4.9967 0.33081-0.1059-0.72791 0.1383-1.0678 0.2353-1.1351 0.3241-1.9334 0.837-2.5995 1.4189-0.30703 0.1755-0.63641 0.3403-0.92111 0.5266-0.30364 0.1986-0.4349 0.4901-0.84023 0.6255-6.9085 2.3087-13.952 5.8145-22.427 6.396-3.1138 0.063-6.2322 0.015-9.3476 0.045-2.8014 0.01-5.6029 0.019-8.4044 0.01-2.9566-0.024-5.931-0.07-8.8262-0.43-4.0991-0.5677-7.9381-1.506-11.794-2.4373-5.0394-1.297-10.067-2.7434-15.548-3.4012-3.9802-0.3016-7.3152-0.049-11.255 0.2581-3.5136 0.1089-7.0396 0.2514-10.475 0.6906l16.628-6.8123z" fill="url(#u)" stroke="url(#t)" stroke-linecap="round" stroke-linejoin="round" stroke-width=".77377"/>
  <path d="m837.32 1026.6c3.46-0.2813 6.9571-0.3873 10.449-0.4772 3.9865-0.6055 7.4647-0.4466 11.463-0.047 5.3976 1.0231 10.549 2.4045 15.74 3.7011 3.8297 0.8903 7.641 1.7462 11.753 2.1555 2.8562 0.2292 5.7506 0.2181 8.6305 0.2175 2.7972-0.01 5.5943-0.016 8.3916-0.02 3.0612-0.079 6.1888 0.1911 9.2022-0.1484 6.469-1.0079 20.239-5.6733-13.477 4.4229-0.76194 0.2281 1.3272-0.613 1.9258-0.9552 5.8687-3.9619 14.863-6.0377 23.542-7.9196 2.6495-0.5093 5.4595-0.6219 8.2443-0.6969 2.8297-0.053 5.6618-0.043 8.4927-0.039l7.0335 0.01-16.76 6.5866-7.032-0.01c-2.8022 0-5.6084-0.01-8.4049 0.1056-2.7026 0.1391-5.3836 0.3758-7.8806 0.9844-7.2553 1.5822-0.50025 0.1446 15.563-4.9967 0.33081-0.1059-0.72791 0.1383-1.0678 0.2353-1.1351 0.3241-1.9334 0.837-2.5995 1.4189-0.30703 0.1755-0.63641 0.3403-0.92111 0.5266-0.30364 0.1986-0.4349 0.4901-0.84023 0.6255-6.9085 2.3087-13.952 5.8145-22.427 6.396-3.1138 0.063-6.2322 0.015-9.3476 0.045-2.8014 0.01-5.6029 0.019-8.4044 0.01-2.9566-0.024-5.931-0.07-8.8262-0.43-4.0991-0.5677-7.9381-1.506-11.794-2.4373-5.0394-1.297-10.067-2.7434-15.548-3.4012-3.9802-0.3016-7.3152-0.049-11.255 0.2581-3.5136 0.1089-7.0396 0.2514-10.475 0.6906l16.628-6.8123z" fill="url(#s)" stroke="url(#r)" stroke-linecap="round" stroke-linejoin="round" stroke-width=".77377"/>
  <path d="m42.918 964.77c2.8026-0.22785 5.6352-0.31371 8.4634-0.38653 3.2291-0.49046 6.0464-0.36175 9.2853-0.0381 4.3721 0.82871 8.5443 1.9476 12.75 2.9979 3.102 0.72114 6.1892 1.4144 9.5202 1.746 2.3135 0.18566 4.658 0.17667 6.9907 0.17618l6.7972-0.0162c2.4796-0.064 5.013 0.15479 7.4538-0.1202 5.2399-0.8164 16.393-4.5954-10.917 3.5825-0.61717 0.18477 1.075-0.49653 1.5599-0.77371 4.7536-3.2091 12.039-4.8905 19.069-6.4149 2.1461-0.41254 4.4222-0.50374 6.6778-0.56449 2.2921-0.0429 4.586-0.0348 6.8791-0.0316l5.6971 8e-3 -13.575 5.3351-5.6959-8e-3c-2.2698 0-4.5428-8e-3 -6.808 0.0855-2.1891 0.11267-4.3607 0.3044-6.3833 0.79737-5.8768 1.2816-0.40521 0.11712 12.606-4.0473 0.26796-0.0858-0.58961 0.11202-0.86495 0.19059-0.91944 0.26252-1.566 0.67797-2.1056 1.1493-0.2487 0.14216-0.5155 0.27565-0.7461 0.42655-0.24595 0.16086-0.35227 0.39698-0.68059 0.50665-5.5959 1.87-11.301 4.7098-18.166 5.1808-2.5222 0.051-5.0481 0.0121-7.5716 0.0364-2.2692 8e-3 -4.5384 0.0154-6.8076 8e-3 -2.3948-0.0194-4.8041-0.0567-7.1492-0.3483-3.3203-0.45983-6.4299-1.2199-9.5528-1.9742-4.0819-1.0506-8.1542-2.2222-12.594-2.755-3.2239-0.2443-5.9253-0.0397-9.1162 0.20906-2.846 0.0882-5.702 0.20363-8.4844 0.55939l13.468-5.518z" fill="url(#q)" stroke="url(#p)" stroke-linecap="round" stroke-linejoin="round" stroke-width=".62676"/>
  <path d="m30.4398,893.74429c2.27009-.18456 4.56453-.25411 6.85536-.31309 2.61556-.39727 4.8976-.29302 7.52112-.0309 3.54139.67125 6.92089,1.57759 10.32729,2.42829 2.51265.58412 5.01329,1.14568 7.71132,1.41422 1.87393.15039 3.77298.1431 5.66246.1427 1.83522-.006 3.67044-.0105 5.5057-.0131 2.00847-.0518 4.06051.12538 6.03755-.0974 4.24433-.66128 13.27855-3.72225-8.84253,2.90186-.49991.14966.87074-.40219 1.26354-.6267 3.85045-2.59941 9.75151-3.96134 15.44605-5.19605 1.73837-.33416 3.58201-.40803 5.40906-.45723 1.85657-.0347 3.71469-.0282 5.57206-.0256 1.53823,0 3.07645.006 4.61468.006l-10.99602,4.32146c-1.53791,0-3.0758-.006-4.6137-.006-1.83854,0-3.67965-.006-5.51448.0693-1.77315.0913-3.53219.24656-5.17046.64587-4.76023,1.03808-.32822.0949 10.2108-3.27834 .21705-.0695-.47758.0907-.70061.15438-.74475.21264-1.26847.54915-1.70552.93094-.20145.11515-.41756.22327-.60434.3455-.19922.1303-.28534.32156-.55128.41039-4.53266,1.51474-9.15419,3.8149-14.71435,4.19642-2.04299.0413-4.08894.01-6.13299.0295-1.83802.006-3.67608.0125-5.51411.006-1.93979-.0157-3.89134-.0459-5.79088-.28213-2.68944-.37245-5.20821-.98808-7.73775-1.59911-3.30636-.85096-6.60493-1.79994-10.20091-2.23152-2.61138-.19788-4.79948-.0321-7.38412.16933-2.30525.0715-4.61866.16495-6.87237.45312l10.90944-4.46956z" fill="url(#o)" stroke="url(#n)" stroke-linecap="round" stroke-linejoin="round" stroke-width=".50767"/>
  <path d="m20.17039,835.13393c1.83878-.14949 3.69727-.20583 5.55284-.2536 2.11861-.32179 3.96705-.23735 6.09211-.025 2.86852.54371 5.60592,1.27785 8.3651,1.96692 2.03525.47314 4.06077.928 6.24617,1.14552 1.51788.12181 3.05612.11591 4.58659.11558 1.48653-.005 2.97306-.008 4.45961-.0106 1.62686-.0419 3.28901.10156 4.89042-.0789 3.43791-.53564 10.75562-3.01502-7.16245,2.35051-.40493.12122.7053-.32578 1.02346-.50763 3.11886-2.10552 7.89872-3.20869 12.5113-4.20881 1.40808-.27066 2.90143-.33049 4.38134-.37035 1.50382-.0281 3.0089-.0229 4.51337-.0207 1.24597,0 2.49193.005 3.73789.005l-8.90678,3.50038c-1.24571,0-2.49139-.005-3.7371-.005-1.48922,0-2.98052-.005-4.46673.0562-1.43625.074-2.86108.19972-4.18807.52316-3.85579.84085-.26586.0769 8.27075-2.65545 .17581-.0563-.38684.0734-.56749.12504-.60324.17224-1.02746.44482-1.38147.75407-.16317.0933-.33822.18084-.48952.27985-.16137.10554-.23113.26046-.44654.33242-3.67145,1.22693-7.41489,3.09007-11.91862,3.3991-1.65482.0335-3.31204.008-4.96772.0239-1.4888.005-2.97763.0102-4.46643.005-1.57123-.0127-3.15198-.0372-4.69061-.22853-2.17845-.30169-4.21865-.80034-6.26758-1.29528-2.67815-.68927-5.34999-1.45795-8.26273-1.80753-2.11522-.16028-3.88758-.026-5.98114.13716-1.86726.0579-3.74111.1336-5.56662.36703l8.83665-3.62035z" fill="url(#m)" stroke="url(#l)" stroke-linecap="round" stroke-linejoin="round" stroke-width=".41122"/>
  <path d="m959.65925,904.52827c2.27009-.18456 4.56453-.2541 6.85536-.31309 2.61557-.39727 4.8976-.29301 7.52112-.0309 3.54138.67126 6.92088,1.57759 10.32728,2.42829 2.51266.58413 5.01331,1.14568 7.71131,1.41422 1.8739.15039 3.773.1431 5.6625.14271 1.8352-.006 3.67038-.0105 5.50568-.0131 2.0084-.0518 4.0606.12538 6.0376-.0974 4.2442-.66129 13.2785-3.72226-8.8426,2.90185-.49988.14967.8708-.40218 1.2635-.6267 3.8505-2.59941 9.7515-3.96133 15.4461-5.19605 1.7383-.33415 3.582-.40802 5.4091-.45724 1.8565-.0347 3.7147-.0282 5.5721-.0256 1.5381,0 3.0763.006 4.6146.006l-10.9961,4.32147c-1.5379,0-3.0757-.006-4.6137-.006-1.8385,0-3.6796-.006-5.5144.0692-1.7731.0913-3.5323.24657-5.1705.64587-4.7602,1.03808-.3283.0949 10.2108-3.27834 .217-.0695-.4775.0907-.7005.15438-.7449.21264-1.2686.54916-1.7056.93094-.2015.11515-.4175.22328-.6044.34551-.1992.13029-.2853.32155-.5512.41038-4.5327,1.51474-9.1542,3.8149-14.71428,4.19642-2.0431.0413-4.089.01-6.1331.0295-1.8379.006-3.67605.0125-5.51408.006-1.93979-.0158-3.89133-.0459-5.79087-.28212-2.68945-.37247-5.20821-.98809-7.73776-1.59911-3.30636-.85096-6.60492-1.79995-10.20091-2.23153-2.61137-.19788-4.79947-.0321-7.38412.16934-2.30525.0715-4.61865.16494-6.87237.4531l10.90944-4.46955z" fill="url(#k)" stroke="url(#j)" stroke-linecap="round" stroke-linejoin="round" stroke-width=".50767"/>
  <path d="m965.5658,833.33659c1.83877-.14949 3.69727-.20582 5.55283-.2536 2.11862-.32179 3.96706-.23734 6.09211-.025 2.86852.54372 5.60591,1.27784 8.3651,1.96691 2.03526.47315 4.06078.928 6.24616,1.14552 1.51786.12182 3.05613.11591 4.58663.1156l4.45957-.0106c1.6268-.0419 3.2891.10155 4.8905-.0789 3.4378-.53565 10.7556-3.01503-7.16252,2.35049-.40491.12124.70534-.32576 1.0234-.50763 3.11892-2.10551 7.89872-3.20867 12.51132-4.20879 1.4081-.27067 2.9015-.3305 4.3814-.37037 1.5038-.0281 3.0089-.0229 4.5134-.0207 1.2459,0 2.4919.005 3.7378.005l-8.9067,3.5004c-1.2458,0-2.4914-.005-3.7372-.005-1.4891,0-2.9804-.005-4.4666.0561-1.4362.074-2.8612.19972-4.1882.52315-3.85575.84084-.2659.0769 8.2708-2.65546 .1757-.0562-.3868.0734-.5674.12506-.6034.17223-1.0276.44481-1.3816.75405-.1632.0933-.3381.18086-.4895.27987-.1614.10553-.2311.26046-.4465.3324-3.6714,1.22694-7.4149,3.09007-11.91855,3.3991-1.65491.0335-3.31209.008-4.96781.0238-1.4887.005-2.9776.0102-4.46641.005-1.57122-.0128-3.15198-.0372-4.6906-.22852-2.17846-.30169-4.21865-.80035-6.26759-1.29528-2.67815-.68927-5.34998-1.45795-8.26273-1.80753-2.11521-.16029-3.88757-.026-5.98114.13716-1.86725.0579-3.74111.13361-5.56662.36701l8.83665-3.62033z" fill="url(#i)" stroke="url(#h)" stroke-linecap="round" stroke-linejoin="round" stroke-width=".41122"/>
  <g transform="matrix(.28243 0 0 .28243 496.23 716.41)">
   <path transform="translate(0 308.27)" d="m1258.1 235.45c-18.824 122.66-47.674 96.621-79.082 197.71 25.762 9.9601 51.523 3.8086 77.285 0 44.579-41.634 29.639-127.48 37.744-197.71h-35.947z" fill="#a40" stroke="#a40"/>
   <path d="m1207.8 452.05c-36.609 8.6554-66.082 20.879-64.704 48.528-15.168 16.775-15.386 33.55-1.7974 50.325 21.799 25.773 56.129 35.882 97.056 37.744 35.947 6.1996 71.893-7.3815 107.84-19.771 40.456-4.6352 58.154-20.649 70.096-39.541 13.467-22.167 6.6079-44.334-3.5947-66.501-43.034-12.063-65.349-18.476-55.717-16.176-28.19-15.512-59.963-23.86-102.45-10.784-16.307 4.8075-51.834-5.76-46.731 16.176z" fill="#aad400" stroke="#cf0"/>
   <path d="m1202.4 443.07c-36.609 8.6554-66.082 20.879-64.704 48.528-15.168 16.775-15.386 33.55-1.7974 50.325 21.799 25.773 56.129 35.882 97.056 37.744 35.947 6.1996 71.893-7.3815 107.84-19.771 40.456-4.6352 58.154-20.649 70.096-39.541 13.467-22.167 6.6079-44.334-3.5947-66.501-43.034-12.063-65.349-18.476-55.717-16.176-28.19-15.512-59.963-23.86-102.45-10.784-16.307 4.8075-51.834-5.76-46.731 16.176z" fill="url(#c)"/>
   <g transform="matrix(.4396 0 0 .33502 652.58 586.91)">
    <path d="m1207.8 452.05c-36.609 8.6554-66.082 20.879-64.704 48.528-15.168 16.775-15.386 33.55-1.7974 50.325 21.799 25.773 56.129 35.882 97.056 37.744 35.947 6.1996 71.893-7.3815 107.84-19.771 40.456-4.6352 58.154-20.649 70.096-39.541 13.467-22.167 6.6079-44.334-3.5947-66.501-43.034-12.063-65.349-18.476-55.717-16.176-28.19-15.512-59.963-23.86-102.45-10.784-16.307 4.8075-51.834-5.76-46.731 16.176z" fill="#aad400" stroke="#cf0"/>
    <path d="m1202.4 443.07c-36.609 8.6554-66.082 20.879-64.704 48.528-15.168 16.775-15.386 33.55-1.7974 50.325 21.799 25.773 56.129 35.882 97.056 37.744 35.947 6.1996 71.893-7.3815 107.84-19.771 40.456-4.6352 58.154-20.649 70.096-39.541 13.467-22.167 6.6079-44.334-3.5947-66.501-43.034-12.063-65.349-18.476-55.717-16.176-28.19-15.512-59.963-23.86-102.45-10.784-16.307 4.8075-51.834-5.76-46.731 16.176z" fill="url(#c)"/>
   </g>
  </g>
  <g transform="matrix(.34868 0 0 .34868 345.25 676.48)">
   <path transform="translate(0 308.27)" d="m1258.1 235.45c-18.824 122.66-47.674 96.621-79.082 197.71 25.762 9.9601 51.523 3.8086 77.285 0 44.579-41.634 29.639-127.48 37.744-197.71h-35.947z" fill="#a40" stroke="#a40"/>
   <path d="m1207.8 452.05c-36.609 8.6554-66.082 20.879-64.704 48.528-15.168 16.775-15.386 33.55-1.7974 50.325 21.799 25.773 56.129 35.882 97.056 37.744 35.947 6.1996 71.893-7.3815 107.84-19.771 40.456-4.6352 58.154-20.649 70.096-39.541 13.467-22.167 6.6079-44.334-3.5947-66.501-43.034-12.063-65.349-18.476-55.717-16.176-28.19-15.512-59.963-23.86-102.45-10.784-16.307 4.8075-51.834-5.76-46.731 16.176z" fill="#aad400" stroke="#cf0"/>
   <path d="m1202.4 443.07c-36.609 8.6554-66.082 20.879-64.704 48.528-15.168 16.775-15.386 33.55-1.7974 50.325 21.799 25.773 56.129 35.882 97.056 37.744 35.947 6.1996 71.893-7.3815 107.84-19.771 40.456-4.6352 58.154-20.649 70.096-39.541 13.467-22.167 6.6079-44.334-3.5947-66.501-43.034-12.063-65.349-18.476-55.717-16.176-28.19-15.512-59.963-23.86-102.45-10.784-16.307 4.8075-51.834-5.76-46.731 16.176z" fill="url(#c)"/>
   <g transform="matrix(.4396 0 0 .33502 652.58 586.91)">
    <path d="m1207.8 452.05c-36.609 8.6554-66.082 20.879-64.704 48.528-15.168 16.775-15.386 33.55-1.7974 50.325 21.799 25.773 56.129 35.882 97.056 37.744 35.947 6.1996 71.893-7.3815 107.84-19.771 40.456-4.6352 58.154-20.649 70.096-39.541 13.467-22.167 6.6079-44.334-3.5947-66.501-43.034-12.063-65.349-18.476-55.717-16.176-28.19-15.512-59.963-23.86-102.45-10.784-16.307 4.8075-51.834-5.76-46.731 16.176z" fill="#aad400" stroke="#cf0"/>
    <path d="m1202.4 443.07c-36.609 8.6554-66.082 20.879-64.704 48.528-15.168 16.775-15.386 33.55-1.7974 50.325 21.799 25.773 56.129 35.882 97.056 37.744 35.947 6.1996 71.893-7.3815 107.84-19.771 40.456-4.6352 58.154-20.649 70.096-39.541 13.467-22.167 6.6079-44.334-3.5947-66.501-43.034-12.063-65.349-18.476-55.717-16.176-28.19-15.512-59.963-23.86-102.45-10.784-16.307 4.8075-51.834-5.76-46.731 16.176z" fill="url(#c)"/>
   </g>
  </g>
  <g transform="matrix(.34868 0 0 .34868 305.71 644.13)">
   <path transform="translate(0 308.27)" d="m1258.1 235.45c-18.824 122.66-47.674 96.621-79.082 197.71 25.762 9.9601 51.523 3.8086 77.285 0 44.579-41.634 29.639-127.48 37.744-197.71h-35.947z" fill="#a40" stroke="#a40"/>
   <path d="m1207.8 452.05c-36.609 8.6554-66.082 20.879-64.704 48.528-15.168 16.775-15.386 33.55-1.7974 50.325 21.799 25.773 56.129 35.882 97.056 37.744 35.947 6.1996 71.893-7.3815 107.84-19.771 40.456-4.6352 58.154-20.649 70.096-39.541 13.467-22.167 6.6079-44.334-3.5947-66.501-43.034-12.063-65.349-18.476-55.717-16.176-28.19-15.512-59.963-23.86-102.45-10.784-16.307 4.8075-51.834-5.76-46.731 16.176z" fill="#aad400" stroke="#cf0"/>
   <path d="m1202.4 443.07c-36.609 8.6554-66.082 20.879-64.704 48.528-15.168 16.775-15.386 33.55-1.7974 50.325 21.799 25.773 56.129 35.882 97.056 37.744 35.947 6.1996 71.893-7.3815 107.84-19.771 40.456-4.6352 58.154-20.649 70.096-39.541 13.467-22.167 6.6079-44.334-3.5947-66.501-43.034-12.063-65.349-18.476-55.717-16.176-28.19-15.512-59.963-23.86-102.45-10.784-16.307 4.8075-51.834-5.76-46.731 16.176z" fill="url(#c)"/>
   <g transform="matrix(.4396 0 0 .33502 652.58 586.91)">
    <path d="m1207.8 452.05c-36.609 8.6554-66.082 20.879-64.704 48.528-15.168 16.775-15.386 33.55-1.7974 50.325 21.799 25.773 56.129 35.882 97.056 37.744 35.947 6.1996 71.893-7.3815 107.84-19.771 40.456-4.6352 58.154-20.649 70.096-39.541 13.467-22.167 6.6079-44.334-3.5947-66.501-43.034-12.063-65.349-18.476-55.717-16.176-28.19-15.512-59.963-23.86-102.45-10.784-16.307 4.8075-51.834-5.76-46.731 16.176z" fill="#aad400" stroke="#cf0"/>
    <path d="m1202.4 443.07c-36.609 8.6554-66.082 20.879-64.704 48.528-15.168 16.775-15.386 33.55-1.7974 50.325 21.799 25.773 56.129 35.882 97.056 37.744 35.947 6.1996 71.893-7.3815 107.84-19.771 40.456-4.6352 58.154-20.649 70.096-39.541 13.467-22.167 6.6079-44.334-3.5947-66.501-43.034-12.063-65.349-18.476-55.717-16.176-28.19-15.512-59.963-23.86-102.45-10.784-16.307 4.8075-51.834-5.76-46.731 16.176z" fill="url(#c)"/>
   </g>
  </g>
  <g transform="matrix(.4783 0 0 .4783 64.942 560.63)">
   <path transform="translate(0 308.27)" d="m1258.1 235.45c-18.824 122.66-47.674 96.621-79.082 197.71 25.762 9.9601 51.523 3.8086 77.285 0 44.579-41.634 29.639-127.48 37.744-197.71h-35.947z" fill="#a40" stroke="#a40"/>
   <path d="m1207.8 452.05c-36.609 8.6554-66.082 20.879-64.704 48.528-15.168 16.775-15.386 33.55-1.7974 50.325 21.799 25.773 56.129 35.882 97.056 37.744 35.947 6.1996 71.893-7.3815 107.84-19.771 40.456-4.6352 58.154-20.649 70.096-39.541 13.467-22.167 6.6079-44.334-3.5947-66.501-43.034-12.063-65.349-18.476-55.717-16.176-28.19-15.512-59.963-23.86-102.45-10.784-16.307 4.8075-51.834-5.76-46.731 16.176z" fill="#aad400" stroke="#cf0"/>
   <path d="m1202.4 443.07c-36.609 8.6554-66.082 20.879-64.704 48.528-15.168 16.775-15.386 33.55-1.7974 50.325 21.799 25.773 56.129 35.882 97.056 37.744 35.947 6.1996 71.893-7.3815 107.84-19.771 40.456-4.6352 58.154-20.649 70.096-39.541 13.467-22.167 6.6079-44.334-3.5947-66.501-43.034-12.063-65.349-18.476-55.717-16.176-28.19-15.512-59.963-23.86-102.45-10.784-16.307 4.8075-51.834-5.76-46.731 16.176z" fill="url(#c)"/>
   <g transform="matrix(.4396 0 0 .33502 652.58 586.91)">
    <path d="m1207.8 452.05c-36.609 8.6554-66.082 20.879-64.704 48.528-15.168 16.775-15.386 33.55-1.7974 50.325 21.799 25.773 56.129 35.882 97.056 37.744 35.947 6.1996 71.893-7.3815 107.84-19.771 40.456-4.6352 58.154-20.649 70.096-39.541 13.467-22.167 6.6079-44.334-3.5947-66.501-43.034-12.063-65.349-18.476-55.717-16.176-28.19-15.512-59.963-23.86-102.45-10.784-16.307 4.8075-51.834-5.76-46.731 16.176z" fill="#aad400" stroke="#cf0"/>
    <path d="m1202.4 443.07c-36.609 8.6554-66.082 20.879-64.704 48.528-15.168 16.775-15.386 33.55-1.7974 50.325 21.799 25.773 56.129 35.882 97.056 37.744 35.947 6.1996 71.893-7.3815 107.84-19.771 40.456-4.6352 58.154-20.649 70.096-39.541 13.467-22.167 6.6079-44.334-3.5947-66.501-43.034-12.063-65.349-18.476-55.717-16.176-28.19-15.512-59.963-23.86-102.45-10.784-16.307 4.8075-51.834-5.76-46.731 16.176z" fill="url(#c)"/>
   </g>
  </g>
 </g>
</svg>
