<?xml version="1.0" encoding="UTF-8" standalone="no"?>
<svg
   xmlns:dc="http://purl.org/dc/elements/1.1/"
   xmlns:cc="http://creativecommons.org/ns#"
   xmlns:rdf="http://www.w3.org/1999/02/22-rdf-syntax-ns#"
   xmlns:svg="http://www.w3.org/2000/svg"
   xmlns="http://www.w3.org/2000/svg"
   xmlns:sodipodi="http://sodipodi.sourceforge.net/DTD/sodipodi-0.dtd"
   xmlns:inkscape="http://www.inkscape.org/namespaces/inkscape"
   viewBox="0 0 400 300"
   version="1.1"
   id="svg48"
   sodipodi:docname="island.svg"
   inkscape:version="0.92.2 (5c3e80d, 2017-08-06)">
  <metadata
     id="metadata54">
    <rdf:RDF>
      <cc:Work
         rdf:about="">
        <dc:format>image/svg+xml</dc:format>
        <dc:type
           rdf:resource="http://purl.org/dc/dcmitype/StillImage" />
      </cc:Work>
    </rdf:RDF>
  </metadata>
  <defs
     id="defs52" />
  <sodipodi:namedview
     pagecolor="#ffffff"
     bordercolor="#666666"
     borderopacity="1"
     objecttolerance="10"
     gridtolerance="10"
     guidetolerance="10"
     inkscape:pageopacity="0"
     inkscape:pageshadow="2"
     inkscape:window-width="1858"
     inkscape:window-height="1057"
     id="namedview50"
     showgrid="false"
     inkscape:zoom="2.0081833"
     inkscape:cx="166.83447"
     inkscape:cy="137.75445"
     inkscape:window-x="54"
     inkscape:window-y="-8"
     inkscape:window-maximized="1"
     inkscape:current-layer="svg48" />
  <path
     d="m-7.1672-6.1433h416.72v315.36h-416.72z"
     id="path2"
     fill="#d5f6ff"
     opacity=".2" />
  <path
     d="m-7.1672 158.53c139.34-3.5606 290.67 2.5892 416.72 0v150.68h-416.72v-150.68z"
     id="path6"
     fill="#80e5ff"
     opacity=".2" />
  <path
     d="m267.24 48.123c-6.8997 28.206-9.4488 55.542-12.287 82.935l-7.1672 1.0239c6.5708-29.479 11.114-59.972 14.334-91.126l5.1194 7.1672z"
     fill="#d4aa00"
     fill-rule="evenodd"
     id="path8" />
  <path
     d="m252.54 130.19c3.2657-27.058 7.5174-54.116 12.44-81.174l-2.1771-3.1101c-3.1864 29.47-7.3899 57.922-13.062 84.906l2.7991-0.62202z"
     fill="#a80"
     fill-rule="evenodd"
     id="path10" />
  <path
     d="m237.11 56.374c5.4053-9.098 14.069-15.3 19.474-24.398-7.2783-4.0106-15.643-0.78118-22.921-4.7918 10.323 2.3293 21.732-2.5815 32.055-0.25221 1.5652-8.1614 23.04 5.0351 28.95 7.7336-10.609 1.8496-22.305-11.143-21.33-0.60532 8.2457-1.0335 18.301 9.1551 26.547 8.1216-9.7206 4.1833-21.251-2.8554-30.972 1.3279 3.5309 7.5227 1.9939 18.303 5.5248 25.826-6.9824-7.9521-8.8968-19.162-15.879-27.114-6.0634 5.6828-15.385 8.4695-21.448 14.152z"
     fill="#abc837"
     opacity=".8"
     id="path12" />
  <path
     d="m249.61 28.108c6.7419-0.52578 11.992-0.18117 13.833 2.1518 4.5456-3.5824 11.606-2.9901 15.216-1.0759-3.9643 0.28195-10.338 0.24403-9.9904 4.4572 6.4513 3.1132 12.71 5.6475 18.751 7.5312-7.5038 0.51546-18.857 0.17118-21.21-1.6907l3.8425 17.983c-3.1251-6.0966-2.3668-9.6043-9.3756-18.29-5.3816-1.1-8.5162 5.2897-12.757 7.9923 4.1859-5.0699 5.7002-9.7581 12.603-15.216-1.2228-2.1863-6.6358-2.8014-10.913-3.8425z"
     fill="#89a02c"
     fill-rule="evenodd"
     id="path14" />
  <path
     d="m234.95 64.346c7.2435 28.12 6.1393 40.174 16.579 65.659l-5.8334 4.2883c-8.1348-29.086-6.7645-44.866-18.644-73.846l7.898 3.8986z"
     fill="#d4aa00"
     fill-rule="evenodd"
     id="path16" />
  <path
     d="m250.47 129.27c-9.9041-25.391-8.6395-36.902-17.083-63.076l-3.3881-1.7127c11.113 27.479 10.55 40.197 18.298 66.659l2.1732-1.8706z"
     fill="#a80"
     fill-rule="evenodd"
     id="path18" />
  <path
     d="m212.3 85.85c0.46609-10.572 5.1718-20.131 5.6379-30.703-8.3096-0.09649-14.156 6.7012-22.466 6.6048 10.199-2.8237 17.935-12.542 28.134-15.365-2.476-7.9327 22.686-6.4467 29.169-6.8598-8.477 6.6421-24.923 0.7158-19.086 9.5429 6.7793-4.8062 20.455-0.57665 27.235-5.3829-6.5913 8.2792-20.079 7.5226-26.671 15.802 6.6659 4.9623 10.404 15.19 17.07 20.153-9.9108-3.7103-16.894-12.686-26.805-16.397-2.6596 7.8731-9.5588 14.733-12.218 22.606z"
     fill="#abc837"
     opacity=".8"
     id="path20" />
  <path
     d="m209.96 55.034c5.6938-3.6483 10.484-5.8246 13.208-4.6382 2.314-5.3048 8.8163-8.118 12.903-8.1365-3.3609 2.1213-8.9963 5.0988-6.6997 8.6481 7.1568-0.30376 13.87-1.0266 20.085-2.2204-6.3702 3.9992-16.54 9.0593-19.493 8.5298l11.882 14.034c-5.6345-3.8971-6.6232-7.347-16.904-11.691-5.2628 1.5728-5.0071 8.6853-7.4681 13.071 1.2943-6.4459 0.41421-11.293 3.92-19.365-2.1106-1.3493-7.172 0.66577-11.433 1.7686z"
     fill="#89a02c"
     fill-rule="evenodd"
     id="path22" />
  <path
     d="m74.598 64.752 3.5166-3.3097 3.3097 2.4823-3.3097-0.82743s-2.2754 4.1371-3.1029 4.1371-3.3097-2.896-3.3097-2.896l-2.896 1.2411 2.6891-3.1029 3.1029 2.2754z"
     fill="#00222b"
     fill-rule="evenodd"
     id="path24" />
  <path
     d="m88.48 58.654 4.4739-2.7559 2.9828 3.3716-3.3458-1.6079s-3.3327 3.91-4.2145 3.7285-2.892-3.8125-2.892-3.8125l-3.3587 0.68743 3.5467-2.7169 2.8077 3.1058z"
     fill="#00222b"
     fill-rule="evenodd"
     id="path26" />
  <path
     d="m77.163 54.908 3.4863-1.479 1.7601 2.7255-2.2098-1.5081s-2.7982 2.425-3.4068 2.2001-1.6476-3.0298-1.6476-3.0298l-2.4676 0.12597 2.8214-1.5517 1.6641 2.5171z"
     fill="#00222b"
     fill-rule="evenodd"
     id="path28" />
  <path
     d="m91.959 50.073 1.7081-2.3946 2.2719 1.0902-2.0755-0.10158s-0.86846 2.7416-1.3628 2.8398-2.321-1.3374-2.321-1.3374l-1.5829 1.0851 1.2384-2.1728 2.1237 0.99119z"
     fill="#00222b"
     fill-rule="evenodd"
     id="path30" />
  <path
     d="m166.38 40.5-4.4739-2.7559-2.9828 3.3716 3.3458-1.6079s3.3327 3.91 4.2145 3.7285 2.892-3.8125 2.892-3.8125l3.3587 0.68743-3.5467-2.7169-2.8077 3.1058z"
     fill="#00222b"
     fill-rule="evenodd"
     id="path32" />
  <path
     d="m161.58 28.41-1.7081-2.3946-2.2719 1.0902 2.0755-0.10158s0.86846 2.7416 1.3628 2.8398 2.321-1.3374 2.321-1.3374l1.5829 1.0851-1.2384-2.1728-2.1237 0.9912z"
     fill="#00222b"
     fill-rule="evenodd"
     id="path34" />
  <path
     d="m301 32.5 4.4739-2.7559 2.9828 3.3716-3.3458-1.6079s-3.3327 3.91-4.2145 3.7285-2.892-3.8125-2.892-3.8125l-3.3587 0.68743 3.5467-2.7169 2.8077 3.1058z"
     fill="#00222b"
     fill-rule="evenodd"
     id="path36" />
  <path
     d="m321.98 25.393-3.6761-1.5595-1.8559 2.8738 2.3301-1.5902s2.9505 2.557 3.5923 2.3198 1.7373-3.1947 1.7373-3.1947l2.602 0.13283-2.975-1.6362-1.7547 2.6541z"
     fill="#00222b"
     fill-rule="evenodd"
     id="path38" />
  <path
     d="m303.57 23.588 1.7081-2.3946 2.2719 1.0902-2.0755-0.10158s-0.86846 2.7416-1.3628 2.8398-2.321-1.3374-2.321-1.3374l-1.5829 1.0851 1.2384-2.1728 2.1237 0.9912z"
     fill="#00222b"
     fill-rule="evenodd"
     id="path40" />
  <g
     id="g66">
    <path
       fill="#fd5"
       fill-rule="evenodd"
       id="path4"
       d="m73.598 163.34c17.337-24.483 78.003-27.797 177.26-39.992 47.355 16.172 59.202 20.845 74.46 41.029-138.07 15.129-198.2 7.9913-251.72-1.0376z" />
    <path
       fill="#ffe680"
       fill-rule="evenodd"
       id="path42"
       d="m93.686 153.84c10.946-8.5578 47.324-12.669 70.648-16.894-7.0885 3.0279-12.865 6.2745-15.87 9.9829 7.9892 6.2202 13.969 6.4134 20.734 8.959-28.059-0.96656-48.492-3.2964-75.512-2.0478z" />
    <path
       fill="#ffe680"
       fill-rule="evenodd"
       id="path44"
       d="m307.17 155.38c-6.2903-7.2218-17.806-11.831-29.437-16.382-17.945 10.335-49.028 11.911-74.232 17.406 34.511-0.33486 50.57 1.9664 103.67-1.0239z" />
    <path
       fill="#ffe680"
       fill-rule="evenodd"
       id="path46"
       d="m239.08 128.75c0.58404 3.331 3.6435 6.043 6.9113 8.7031 5.4244-0.03221 8.5695-3.8631 12.031-7.1672 1.045-0.96182 2.1251-1.6769 3.8396 2.0478-5.392 9.5995-13.171 9.1359-17.918 8.959-5.7399-4.1743-7.9157-8.0504-8.959-13.567 3.9821-1.9018 4.8821-1.1617 4.0956 1.0239z" />
  </g>
</svg>
