<?xml version="1.0" encoding="UTF-8" standalone="no"?>
<svg
   xmlns:dc="http://purl.org/dc/elements/1.1/"
   xmlns:cc="http://creativecommons.org/ns#"
   xmlns:rdf="http://www.w3.org/1999/02/22-rdf-syntax-ns#"
   xmlns:svg="http://www.w3.org/2000/svg"
   xmlns="http://www.w3.org/2000/svg"
   xmlns:xlink="http://www.w3.org/1999/xlink"
   xmlns:sodipodi="http://sodipodi.sourceforge.net/DTD/sodipodi-0.dtd"
   xmlns:inkscape="http://www.inkscape.org/namespaces/inkscape"
   viewBox="0 0 1122.5197 793.70077"
   version="1.1"
   id="svg404"
   sodipodi:docname="level1.svg"
   inkscape:version="0.92.2 (5c3e80d, 2017-08-06)"
   inkscape:export-filename="C:\Poulad\Workspace\Unity\Tank Mania\Assets\Artworks\tank.png"
   inkscape:export-xdpi="60.869999"
   inkscape:export-ydpi="60.869999"
   width="297mm"
   height="210mm">
  <metadata
     id="metadata410">
    <rdf:RDF>
      <cc:Work
         rdf:about="">
        <dc:format>image/svg+xml</dc:format>
        <dc:type
           rdf:resource="http://purl.org/dc/dcmitype/StillImage" />
        <dc:title></dc:title>
      </cc:Work>
    </rdf:RDF>
  </metadata>
  <defs
     id="defs408">
    <linearGradient
       id="i"
       x1="756.53998"
       x2="643.40002"
       y1="-0.57034999"
       y2="19.025"
       gradientUnits="userSpaceOnUse"
       xlink:href="#d" />
    <linearGradient
       id="d">
      <stop
         offset="0"
         id="stop2" />
      <stop
         stop-opacity="0"
         offset="1"
         id="stop4" />
    </linearGradient>
    <radialGradient
       id="e"
       cx="742.09003"
       cy="-41.415001"
       r="31.594"
       gradientTransform="matrix(0.68348,-4.5287e-8,1.0919e-7,1.6479,234.89,29.34)"
       gradientUnits="userSpaceOnUse">
      <stop
         stop-color="#808080"
         offset="0"
         id="stop207" />
      <stop
         stop-color="#666"
         offset="1"
         id="stop209" />
    </radialGradient>
    <linearGradient
       id="h"
       x1="731.28998"
       x2="801.52002"
       gradientUnits="userSpaceOnUse"
       xlink:href="#j"
       spreadMethod="reflect"
       gradientTransform="matrix(0.32099271,0,0,0.32099271,158.20837,1347.8781)" />
    <linearGradient
       id="j">
      <stop
         stop-color="#f1e6d2"
         offset="0"
         id="stop7" />
      <stop
         stop-color="#c8ab37"
         offset=".5"
         id="stop9" />
      <stop
         stop-color="#d1ad83"
         offset="1"
         id="stop11" />
    </linearGradient>
    <linearGradient
       id="g"
       x1="741.76001"
       x2="741.29999"
       y1="134.42999"
       y2="117.01"
       gradientUnits="userSpaceOnUse">
      <stop
         stop-color="#333"
         offset="0"
         id="stop131" />
      <stop
         stop-color="#333"
         stop-opacity="0"
         offset="1"
         id="stop133" />
    </linearGradient>
    <linearGradient
       id="f"
       x1="724.28998"
       x2="791.10999"
       gradientUnits="userSpaceOnUse"
       spreadMethod="reflect">
      <stop
         stop-color="#f1e6d2"
         offset="0"
         id="stop136" />
      <stop
         stop-color="#c8ab37"
         offset=".43134"
         id="stop138" />
      <stop
         stop-color="#d1ad83"
         offset="1"
         id="stop140" />
    </linearGradient>
    <radialGradient
       id="radialGradient549"
       cx="742.09003"
       cy="-41.415001"
       r="31.594"
       gradientTransform="matrix(0.68348,-4.5287e-8,1.0919e-7,1.6479,234.89,29.34)"
       gradientUnits="userSpaceOnUse">
      <stop
         stop-color="#808080"
         offset="0"
         id="stop545" />
      <stop
         stop-color="#666"
         offset="1"
         id="stop547" />
    </radialGradient>
    <linearGradient
       id="linearGradient574"
       x1="724.28998"
       x2="791.10999"
       gradientUnits="userSpaceOnUse"
       spreadMethod="reflect">
      <stop
         stop-color="#f1e6d2"
         offset="0"
         id="stop568" />
      <stop
         stop-color="#c8ab37"
         offset=".43134"
         id="stop570" />
      <stop
         stop-color="#d1ad83"
         offset="1"
         id="stop572" />
    </linearGradient>
    <radialGradient
       id="radialGradient588"
       cx="742.09003"
       cy="-41.415001"
       r="31.594"
       gradientTransform="matrix(0.68348,-4.5287e-8,1.0919e-7,1.6479,234.89,29.34)"
       gradientUnits="userSpaceOnUse">
      <stop
         stop-color="#808080"
         offset="0"
         id="stop584" />
      <stop
         stop-color="#666"
         offset="1"
         id="stop586" />
    </radialGradient>
    <linearGradient
       id="linearGradient613"
       x1="724.28998"
       x2="791.10999"
       gradientUnits="userSpaceOnUse"
       spreadMethod="reflect">
      <stop
         stop-color="#f1e6d2"
         offset="0"
         id="stop607" />
      <stop
         stop-color="#c8ab37"
         offset=".43134"
         id="stop609" />
      <stop
         stop-color="#d1ad83"
         offset="1"
         id="stop611" />
    </linearGradient>
    <radialGradient
       id="t"
       cx="173.33"
       cy="299.76999"
       r="33.969002"
       gradientUnits="userSpaceOnUse"
       xlink:href="#d"
       gradientTransform="translate(90.953167,-415.18409)" />
    <linearGradient
       id="i-0"
       x1="756.53998"
       x2="643.40002"
       y1="-0.57034999"
       y2="19.025"
       gradientUnits="userSpaceOnUse"
       xlink:href="#d" />
    <radialGradient
       inkscape:collect="always"
       xlink:href="#e-8"
       id="radialGradient422"
       gradientUnits="userSpaceOnUse"
       gradientTransform="matrix(0.68348,-4.5287e-8,1.0919e-7,1.6479,234.89,29.34)"
       cx="742.09003"
       cy="-41.415001"
       r="31.594" />
    <radialGradient
       id="e-8"
       cx="742.09003"
       cy="-41.415001"
       r="31.594"
       gradientTransform="matrix(0.68348,-4.5287e-8,1.0919e-7,1.6479,234.89,29.34)"
       gradientUnits="userSpaceOnUse">
      <stop
         stop-color="#808080"
         offset="0"
         id="stop207-3" />
      <stop
         stop-color="#666"
         offset="1"
         id="stop209-6" />
    </radialGradient>
    <linearGradient
       id="h-8"
       x1="731.28998"
       x2="801.52002"
       gradientUnits="userSpaceOnUse"
       xlink:href="#j"
       spreadMethod="reflect" />
    <linearGradient
       inkscape:collect="always"
       xlink:href="#g"
       id="linearGradient424"
       gradientUnits="userSpaceOnUse"
       x1="741.76001"
       y1="134.42999"
       x2="741.29999"
       y2="117.01" />
    <linearGradient
       inkscape:collect="always"
       xlink:href="#f-0"
       id="linearGradient426"
       gradientUnits="userSpaceOnUse"
       x1="724.28998"
       x2="791.10999"
       spreadMethod="reflect" />
    <linearGradient
       id="f-0"
       x1="724.28998"
       x2="791.10999"
       gradientUnits="userSpaceOnUse"
       spreadMethod="reflect">
      <stop
         stop-color="#f1e6d2"
         offset="0"
         id="stop136-3" />
      <stop
         stop-color="#c8ab37"
         offset=".43134"
         id="stop138-7" />
      <stop
         stop-color="#d1ad83"
         offset="1"
         id="stop140-6" />
    </linearGradient>
  </defs>
  <sodipodi:namedview
     pagecolor="#ffffff"
     bordercolor="#666666"
     borderopacity="1"
     objecttolerance="10"
     gridtolerance="10"
     guidetolerance="10"
     inkscape:pageopacity="0"
     inkscape:pageshadow="2"
     inkscape:window-width="1858"
     inkscape:window-height="1057"
     id="namedview406"
     showgrid="false"
     inkscape:zoom="0.70710682"
     inkscape:cx="436.01226"
     inkscape:cy="473.03417"
     inkscape:window-x="54"
     inkscape:window-y="-8"
     inkscape:window-maximized="1"
     inkscape:current-layer="svg404"
     showguides="false"
     units="mm">
    <inkscape:grid
       type="xygrid"
       id="grid369" />
  </sodipodi:namedview>
  <path
     inkscape:connector-curvature="0"
     style="opacity:0.2;fill:#d5f6ff;stroke-width:2.52036786"
     d="M -0.47061857,-0.37530824 H 1049.817 V 794.44786 H -0.47061857 Z"
     id="path2-7" />
  <path
     inkscape:connector-curvature="0"
     style="opacity:0.2;fill:#80e5ff;stroke-width:2.52036786"
     d="M -0.47061857,414.66197 C 350.71742,405.68795 732.12467,421.1877 1049.817,414.66197 V 794.43098 H -0.47061857 Z"
     id="path6-4"
     inkscape:export-xdpi="60.869999"
     inkscape:export-ydpi="60.869999" />
  <g
     inkscape:export-xdpi="60.869999"
     inkscape:export-ydpi="60.869999"
     id="g4530">
    <path
       id="path8-5"
       d="m 597.80723,248.45395 c -8.41722,34.40964 -11.52697,67.75793 -14.98941,101.17575 l -8.74355,1.2491 c 8.01599,-35.96262 13.55842,-73.16226 17.48663,-111.16828 l 6.24536,8.74355 z"
       style="fill:#d4aa00;fill-rule:evenodd;stroke-width:1.21994042"
       inkscape:connector-curvature="0" />
    <path
       id="path10-2"
       d="m 579.87411,348.5708 c 3.98396,-33.00915 9.17078,-66.0183 15.17606,-99.02745 l -2.65593,-3.79413 c -3.88722,35.95165 -9.01524,70.66139 -15.93486,103.58026 l 3.41473,-0.75883 z"
       style="fill:#aa8800;fill-rule:evenodd;stroke-width:1.21994042"
       inkscape:connector-curvature="0" />
    <path
       id="path12-0"
       d="m 561.05043,258.51968 c 6.59415,-11.09902 17.16334,-18.66509 23.75712,-29.76411 -8.87909,-4.89269 -19.08353,-0.95299 -27.96225,-5.84571 12.59344,2.84161 26.51174,-3.14927 39.10518,-0.30768 1.90945,-9.95642 28.10743,6.14252 35.31728,9.43453 -12.94235,2.25641 -27.21077,-13.59379 -26.02133,-0.73846 10.05926,-1.2608 22.32613,11.16868 32.38576,9.90787 -11.85856,5.10338 -25.92496,-3.48342 -37.784,1.61996 4.30749,9.17725 2.43244,22.32857 6.73993,31.50619 -8.51811,-9.70109 -10.85356,-23.3765 -19.37143,-33.07747 -7.39699,6.93268 -18.76879,10.33229 -26.16528,17.2646 z"
       style="opacity:0.8;fill:#abc837;stroke-width:1.21994042"
       inkscape:connector-curvature="0" />
    <path
       id="path14-3"
       d="m 576.29968,224.03684 c 8.22472,-0.64142 14.62953,-0.22101 16.87544,2.62507 5.54536,-4.37031 14.15863,-3.64774 18.56261,-1.31253 -4.83621,0.34396 -12.61174,0.2977 -12.18769,5.43751 7.8702,3.79792 15.50544,6.88962 22.8751,9.18762 -9.15419,0.62883 -23.00441,0.20883 -25.87493,-2.06255 l 4.68762,21.93818 c -3.81244,-7.43748 -2.88736,-11.71667 -11.43767,-22.3127 -6.56524,-1.34194 -10.38926,6.45312 -15.56278,9.75012 5.10655,-6.18497 6.9539,-11.9043 15.3749,-18.56261 -1.49174,-2.66715 -8.09527,-3.41754 -13.31321,-4.68762 z"
       style="fill:#89a02c;fill-rule:evenodd;stroke-width:1.21994042"
       inkscape:connector-curvature="0" />
    <path
       id="path16-2"
       d="m 558.41536,268.24504 c 8.83664,34.30473 7.48958,49.00989 20.22539,80.10007 l -7.1164,5.23147 c -9.92397,-35.48319 -8.25229,-54.73385 -22.74457,-90.08772 l 9.63509,4.75606 z"
       style="fill:#d4aa00;fill-rule:evenodd;stroke-width:1.21994042"
       inkscape:connector-curvature="0" />
    <path
       id="path18-9"
       d="m 577.34884,347.44845 c -12.08242,-30.9755 -10.53968,-45.01824 -20.84025,-76.94896 l -4.13328,-2.08939 c 13.5572,33.52274 12.87037,49.03794 22.32247,81.32001 l 2.65118,-2.28202 z"
       style="fill:#aa8800;fill-rule:evenodd;stroke-width:1.21994042"
       inkscape:connector-curvature="0" />
    <path
       id="path20-1"
       d="m 530.78371,294.47864 c 0.56861,-12.89721 6.30929,-24.55862 6.8779,-37.45583 -10.13722,-0.11772 -17.26948,8.17507 -27.40718,8.05746 12.44217,-3.44474 21.87963,-15.30049 34.32181,-18.74438 -3.02058,-9.67742 27.67556,-7.86459 35.58443,-8.36855 -10.34143,8.10297 -30.40457,0.87323 -23.28378,11.64177 8.27034,-5.86328 24.95388,-0.70348 33.22508,-6.56682 -8.04099,10.10013 -24.49519,9.17713 -32.53703,19.2775 8.132,6.05371 12.69226,18.5309 20.82438,24.58546 -12.09058,-4.52634 -20.60967,-15.47616 -32.7005,-20.00336 -3.24456,9.60471 -11.66117,17.97338 -14.90523,27.57797 z"
       style="opacity:0.8;fill:#abc837;stroke-width:1.21994042"
       inkscape:connector-curvature="0" />
    <path
       id="path22-0"
       d="m 527.92905,256.88496 c 6.9461,-4.45071 12.78985,-7.10567 16.11297,-5.65833 2.82294,-6.47154 10.75536,-9.90348 15.74089,-9.92605 -4.10009,2.58786 -10.97495,6.22024 -8.17323,10.55017 8.73087,-0.37057 16.92057,-1.25239 24.5025,-2.70876 -7.77127,4.87879 -20.17781,11.05181 -23.7803,10.40586 l 14.49533,17.12064 c -6.87375,-4.75423 -8.07991,-8.96291 -20.62187,-14.26232 -6.4203,1.91872 -6.10836,10.59554 -9.11063,15.94583 1.57896,-7.86361 0.50529,-13.77678 4.78216,-23.62414 -2.57481,-1.64607 -8.74941,0.8122 -13.94758,2.15758 z"
       style="fill:#89a02c;fill-rule:evenodd;stroke-width:1.21994042"
       inkscape:connector-curvature="0" />
  </g>
  <path
     inkscape:connector-curvature="0"
     style="fill:#00222b;fill-rule:evenodd;stroke-width:2.52036786"
     d="m 205.60775,178.30692 8.86313,-8.34166 8.34166,6.25631 -8.34166,-2.08543 c 0,0 -5.73485,10.42701 -7.82045,10.42701 -2.08561,0 -8.34166,-7.29898 -8.34166,-7.29898 l -7.29899,3.12803 6.77752,-7.82045 7.82045,5.73484 z"
     id="path24-1" />
  <path
     inkscape:connector-curvature="0"
     style="fill:#00222b;fill-rule:evenodd;stroke-width:2.52036786"
     d="m 240.5955,162.93772 11.27587,-6.94588 7.51775,8.49767 -8.43264,-4.0525 c 0,0 -8.39963,9.85464 -10.62209,9.39719 -2.22246,-0.45745 -7.28891,-9.6089 -7.28891,-9.6089 l -8.46515,1.73257 8.93898,-6.84758 7.07644,7.82776 z"
     id="path26-4" />
  <path
     inkscape:connector-curvature="0"
     style="fill:#00222b;fill-rule:evenodd;stroke-width:2.52036786"
     d="m 212.0725,153.49642 8.78675,-3.72762 4.4361,6.86926 -5.56951,-3.80097 c 0,0 -7.05249,6.11189 -8.58638,5.54506 -1.5339,-0.56683 -4.15256,-7.63621 -4.15256,-7.63621 l -6.21926,0.31749 7.11096,-3.91085 4.19415,6.34402 z"
     id="path28-4" />
  <path
     inkscape:connector-curvature="0"
     style="fill:#00222b;fill-rule:evenodd;stroke-width:2.52036786"
     d="m 249.36386,141.31044 4.30503,-6.03527 5.72603,2.7477 -5.23102,-0.25601 c 0,0 -2.18894,6.90984 -3.43476,7.15734 -1.24582,0.2475 -5.84977,-3.37074 -5.84977,-3.37074 l -3.98949,2.73485 3.12122,-5.47626 5.35251,2.49817 z"
     id="path30-8" />
  <path
     inkscape:connector-curvature="0"
     style="fill:#00222b;fill-rule:evenodd;stroke-width:2.52036786"
     d="m 436.93214,117.18296 -11.27587,-6.94588 -7.51775,8.49767 8.43264,-4.0525 c 0,0 8.39963,9.85464 10.62209,9.39719 2.22246,-0.45744 7.28891,-9.6089 7.28891,-9.6089 l 8.46516,1.73258 -8.93899,-6.84759 -7.07644,7.82776 z"
     id="path32-6" />
  <path
     inkscape:connector-curvature="0"
     style="fill:#00222b;fill-rule:evenodd;stroke-width:2.52036786"
     d="m 424.83438,86.711716 -4.30504,-6.035273 -5.72603,2.747705 5.23103,-0.256019 c 0,0 2.18894,6.90984 3.43475,7.15734 1.24582,0.2475 5.84978,-3.370739 5.84978,-3.370739 l 3.98949,2.734851 -3.12123,-5.476255 -5.3525,2.498188 z"
     id="path34-9" />
  <path
     inkscape:connector-curvature="0"
     style="fill:#00222b;fill-rule:evenodd;stroke-width:1.21994042"
     d="m 670.49242,115.89483 5.45789,-3.36203 3.63884,4.11315 -4.08167,-1.96154 c 0,0 -4.0657,4.76996 -5.14144,4.54854 -1.07575,-0.22141 -3.52807,-4.65102 -3.52807,-4.65102 l -4.09741,0.83862 4.32676,-3.31445 3.42522,3.78889 z"
     id="path36-6" />
  <path
     inkscape:connector-curvature="0"
     style="fill:#00222b;fill-rule:evenodd;stroke-width:1.21994042"
     d="m 696.08677,107.22471 -4.48462,-1.90249 -2.26409,3.50586 2.84258,-1.93995 c 0,0 3.59944,3.11939 4.3824,2.83002 0.78296,-0.28937 2.1194,-3.89734 2.1194,-3.89734 l 3.17428,0.16204 -3.62932,-1.99607 -2.14063,3.23785 z"
     id="path38-2" />
  <path
     inkscape:connector-curvature="0"
     style="fill:#00222b;fill-rule:evenodd;stroke-width:1.21994042"
     d="m 673.62767,105.02272 2.08378,-2.92127 2.77158,1.32998 -2.53199,-0.12392 c 0,0 -1.05952,3.34459 -1.66253,3.46439 -0.60302,0.11979 -2.83148,-1.63155 -2.83148,-1.63155 l -1.93105,1.32376 1.51078,-2.65069 2.59079,1.2092 z"
     id="path40-5" />
  <g
     transform="matrix(2.5203677,0,0,2.5203677,17.593361,15.108067)"
     id="g66"
     inkscape:export-xdpi="96"
     inkscape:export-ydpi="96">
    <path
       style="fill:#ffdd55;fill-rule:evenodd"
       inkscape:connector-curvature="0"
       id="path4-4"
       d="m 73.598,163.34 c 17.337,-24.483 78.003,-27.797 177.26,-39.992 47.355,16.172 59.202,20.845 74.46,41.029 -138.07,15.129 -198.2,7.9913 -251.72,-1.0376 z" />
    <path
       style="fill:#ffe680;fill-rule:evenodd"
       inkscape:connector-curvature="0"
       id="path42-6"
       d="m 93.686,153.84 c 10.946,-8.5578 47.324,-12.669 70.648,-16.894 -7.0885,3.0279 -12.865,6.2745 -15.87,9.9829 7.9892,6.2202 13.969,6.4134 20.734,8.959 -28.059,-0.96656 -48.492,-3.2964 -75.512,-2.0478 z" />
    <path
       style="fill:#ffe680;fill-rule:evenodd"
       inkscape:connector-curvature="0"
       id="path44-3"
       d="m 307.17,155.38 c -6.2903,-7.2218 -17.806,-11.831 -29.437,-16.382 -17.945,10.335 -49.028,11.911 -74.232,17.406 34.511,-0.33486 50.57,1.9664 103.67,-1.0239 z" />
    <path
       style="fill:#ffe680;fill-rule:evenodd"
       inkscape:connector-curvature="0"
       id="path46-4"
       d="m 239.08,128.75 c 0.58404,3.331 3.6435,6.043 6.9113,8.7031 5.4244,-0.0322 8.5695,-3.8631 12.031,-7.1672 1.045,-0.96182 2.1251,-1.6769 3.8396,2.0478 -5.392,9.5995 -13.171,9.1359 -17.918,8.959 -5.7399,-4.1743 -7.9157,-8.0504 -8.959,-13.567 3.9821,-1.9018 4.8821,-1.1617 4.0956,1.0239 z" />
  </g>
  <g
     id="g4139"
     transform="matrix(0.32099271,0,0,0.32099271,1002.711,142.38338)"
     inkscape:export-xdpi="60.869999"
     inkscape:export-ydpi="60.869999">
    <g
       id="g4341"
       transform="translate(220.61731,-234.75944)">
      <path
         style="fill:#2e5b04"
         inkscape:connector-curvature="0"
         id="path2"
         d="m 31.02,768.37501 c -6.4047,-5.3371 -1.7946,-25.684 -13.165,-52.044 l 236.28,0.35355 c -16.604,10.842 -30.318,36.915 -58.818,47.915 l -64.755,0.6519 c -35.605,0.36038 -70.513,0.78168 -77.612,0.90541 l -21.929,2.2173 z" />
      <path
         style="fill:#444643;stroke-width:1.46095908"
         inkscape:connector-curvature="0"
         id="path4"
         d="m 225.6159,766.31249 c -6.34767,13.89128 -22.75474,20.00708 -36.64655,13.65917 -13.8918,-6.34792 -20.00708,-22.75474 -13.65916,-36.64655 6.34791,-13.8918 22.75473,-20.00708 36.64654,-13.65916 13.89181,6.34791 20.00708,22.75473 13.65917,36.64654 z" />
      <path
         style="fill:#888a85;stroke-width:1.00000155"
         inkscape:connector-curvature="0"
         id="path6"
         d="m 188.21829,769.0719 c -0.99607,0.37126 -4.42177,-0.20557 -5.24131,-0.88263 -0.81954,-0.67707 -2.03284,-3.9321 -1.8563,-4.98035 0.17655,-1.04826 2.38891,-3.72654 3.38496,-4.09785 0.99605,-0.37132 4.42177,0.20556 5.2413,0.88263 0.81954,0.67706 2.03285,3.93209 1.8563,4.98034 -0.17654,1.04826 -2.3889,3.72654 -3.38495,4.09786 z" />
      <path
         style="fill:#888a85;stroke-width:1.00000155"
         inkscape:connector-curvature="0"
         id="path8"
         d="m 218.94829,752.3329 c -0.99607,0.37126 -4.42177,-0.20557 -5.24131,-0.88263 -0.81954,-0.67707 -2.03284,-3.9321 -1.8563,-4.98035 0.17655,-1.04826 2.38891,-3.72654 3.38496,-4.09785 0.99605,-0.37132 4.42177,0.20556 5.2413,0.88263 0.81954,0.67706 2.03285,3.93209 1.8563,4.98034 -0.17654,1.04826 -2.3889,3.72654 -3.38495,4.09786 z" />
      <path
         style="fill:#888a85;stroke-width:1.00000155"
         inkscape:connector-curvature="0"
         id="path10"
         d="m 187.75829,749.6219 c -0.99607,0.37126 -4.42177,-0.20557 -5.24131,-0.88263 -0.81954,-0.67707 -2.03284,-3.9321 -1.8563,-4.98035 0.17655,-1.04826 2.38891,-3.72654 3.38496,-4.09785 0.99605,-0.37132 4.42177,0.20556 5.2413,0.88263 0.81954,0.67706 2.03285,3.93209 1.8563,4.98034 -0.17654,1.04826 -2.3889,3.72654 -3.38495,4.09786 z" />
      <path
         style="fill:#888a85;stroke-width:1.00000155"
         inkscape:connector-curvature="0"
         id="path12"
         d="m 204.44829,740.7589 c -0.99607,0.37126 -4.42177,-0.20557 -5.24131,-0.88263 -0.81954,-0.67707 -2.03284,-3.9321 -1.8563,-4.98035 0.17655,-1.04826 2.38891,-3.72654 3.38496,-4.09785 0.99605,-0.37132 4.42177,0.20556 5.2413,0.88263 0.81954,0.67706 2.03285,3.93209 1.8563,4.98034 -0.17654,1.04826 -2.3889,3.72654 -3.38495,4.09786 z" />
      <path
         style="fill:#888a85;stroke-width:1.00000155"
         inkscape:connector-curvature="0"
         id="path14"
         d="m 204.18829,778.0259 c -0.99607,0.37126 -4.42177,-0.20557 -5.24131,-0.88263 -0.81954,-0.67707 -2.03284,-3.9321 -1.8563,-4.98035 0.17655,-1.04826 2.38891,-3.72654 3.38496,-4.09785 0.99605,-0.37132 4.42177,0.20556 5.2413,0.88263 0.81954,0.67706 2.03285,3.93209 1.8563,4.98034 -0.17654,1.04826 -2.3889,3.72654 -3.38495,4.09786 z" />
      <path
         style="fill:#888a85;stroke-width:1.00000155"
         inkscape:connector-curvature="0"
         id="path16"
         d="m 217.36829,767.8269 c -0.99607,0.37126 -4.42177,-0.20557 -5.24131,-0.88263 -0.81954,-0.67707 -2.03284,-3.9321 -1.8563,-4.98035 0.17655,-1.04826 2.38891,-3.72654 3.38496,-4.09785 0.99605,-0.37132 4.42177,0.20556 5.2413,0.88263 0.81954,0.67706 2.03285,3.93209 1.8563,4.98034 -0.17654,1.04826 -2.3889,3.72654 -3.38495,4.09786 z" />
      <path
         style="opacity:0.68980001;fill:#2e3436"
         inkscape:connector-curvature="0"
         id="path18"
         d="m 195.47,727.83501 c -10.619,1.7548 -18.816,9.3405 -21.86,18.942 l 48.653,-8.0397 c -5.9719,-8.112 -16.173,-12.658 -26.792,-10.903 z" />
      <path
         style="fill:#444643;stroke-width:1.46099997"
         inkscape:connector-curvature="0"
         id="path20"
         d="m 167.12966,760.83162 c 0,15.27329 -12.38139,27.65527 -27.65527,27.65527 -15.27388,0 -27.65527,-12.38139 -27.65527,-27.65527 0,-15.27388 12.38139,-27.65527 27.65527,-27.65527 15.27388,0 27.65527,12.38139 27.65527,27.65527 z" />
      <path
         style="fill:#888a85"
         inkscape:connector-curvature="0"
         id="path22"
         d="m 134.25,778.87501 c -0.75166,0.75166 -4.1072,1.6508 -5.134,1.3756 -1.0268,-0.2752 -3.4832,-2.7315 -3.7583,-3.7583 -0.2751,-1.0268 0.62398,-4.3823 1.3756,-5.134 0.75162,-0.7517 4.1072,-1.6508 5.134,-1.3756 1.0268,0.2752 3.4832,2.7315 3.7583,3.7583 0.2751,1.0268 -0.62398,4.3823 -1.3756,5.134 z" />
      <path
         style="fill:#888a85"
         inkscape:connector-curvature="0"
         id="path24"
         d="m 155.25,750.87501 c -0.75166,0.75166 -4.1072,1.6508 -5.134,1.3756 -1.0268,-0.2752 -3.4832,-2.7315 -3.7583,-3.7583 -0.2751,-1.0268 0.62398,-4.3823 1.3756,-5.134 0.75162,-0.7517 4.1072,-1.6508 5.134,-1.3756 1.0268,0.2752 3.4832,2.7315 3.7583,3.7583 0.2751,1.0268 -0.62398,4.3823 -1.3756,5.134 z" />
      <path
         style="fill:#888a85"
         inkscape:connector-curvature="0"
         id="path26"
         d="m 125.75,761.37501 c -0.75166,0.75166 -4.1072,1.6508 -5.134,1.3756 -1.0268,-0.2752 -3.4832,-2.7315 -3.7583,-3.7583 -0.2751,-1.0268 0.62398,-4.3823 1.3756,-5.134 0.75162,-0.7517 4.1072,-1.6508 5.134,-1.3756 1.0268,0.2752 3.4832,2.7315 3.7583,3.7583 0.2751,1.0268 -0.62398,4.3823 -1.3756,5.134 z" />
      <path
         style="fill:#888a85"
         inkscape:connector-curvature="0"
         id="path28"
         d="m 137.25,746.37501 c -0.75166,0.75166 -4.1072,1.6508 -5.134,1.3756 -1.0268,-0.2752 -3.4832,-2.7315 -3.7583,-3.7583 -0.2751,-1.0268 0.62398,-4.3823 1.3756,-5.134 0.75162,-0.7517 4.1072,-1.6508 5.134,-1.3756 1.0268,0.2752 3.4832,2.7315 3.7583,3.7583 0.2751,1.0268 -0.62398,4.3823 -1.3756,5.134 z" />
      <path
         style="fill:#888a85"
         inkscape:connector-curvature="0"
         id="path30"
         d="m 152.5,780.37501 c -0.75166,0.75166 -4.1072,1.6508 -5.134,1.3756 -1.0268,-0.2752 -3.4832,-2.7315 -3.7583,-3.7583 -0.2751,-1.0268 0.62398,-4.3823 1.3756,-5.134 0.75162,-0.7517 4.1072,-1.6508 5.134,-1.3756 1.0268,0.2752 3.4832,2.7315 3.7583,3.7583 0.2751,1.0268 -0.62398,4.3823 -1.3756,5.134 z" />
      <path
         style="fill:#888a85"
         inkscape:connector-curvature="0"
         id="path32"
         d="m 160.25,765.62501 c -0.75166,0.75166 -4.1072,1.6508 -5.134,1.3756 -1.0268,-0.2752 -3.4832,-2.7315 -3.7583,-3.7583 -0.2751,-1.0268 0.62398,-4.3823 1.3756,-5.134 0.75162,-0.7517 4.1072,-1.6508 5.134,-1.3756 1.0268,0.2752 3.4832,2.7315 3.7583,3.7583 0.2751,1.0268 -0.62398,4.3823 -1.3756,5.134 z" />
      <path
         style="opacity:0.68980001;fill:#2e3436"
         inkscape:connector-curvature="0"
         id="path34"
         d="m 134.47,733.83501 c -10.619,1.7548 -18.816,9.3405 -21.86,18.942 l 48.653,-8.0397 c -5.9719,-8.112 -16.173,-12.658 -26.792,-10.903 z" />
      <path
         style="fill:#444643;stroke-width:1.46099997"
         inkscape:connector-curvature="0"
         id="path36"
         d="m 107.13646,759.42162 c 0,15.27329 -12.381391,27.65527 -27.655269,27.65527 -15.273878,0 -27.655269,-12.38139 -27.655269,-27.65527 0,-15.27388 12.381391,-27.65527 27.655269,-27.65527 15.273878,0 27.655269,12.38139 27.655269,27.65527 z" />
      <path
         style="fill:#888a85"
         inkscape:connector-curvature="0"
         id="path38"
         d="m 74.257,777.45501 c -0.75166,0.75166 -4.1072,1.6508 -5.134,1.3756 -1.0268,-0.2752 -3.4832,-2.7315 -3.7583,-3.7583 -0.2751,-1.0268 0.62398,-4.3823 1.3756,-5.134 0.75162,-0.7517 4.1072,-1.6508 5.134,-1.3756 1.0268,0.2752 3.4832,2.7315 3.7583,3.7583 0.2751,1.0268 -0.62398,4.3823 -1.3756,5.134 z" />
      <path
         style="fill:#888a85"
         inkscape:connector-curvature="0"
         id="path40"
         d="m 95.257,749.45501 c -0.75166,0.75166 -4.1072,1.6508 -5.134,1.3756 -1.0268,-0.2752 -3.4832,-2.7315 -3.7583,-3.7583 -0.2751,-1.0268 0.62398,-4.3823 1.3756,-5.134 0.75162,-0.7517 4.1072,-1.6508 5.134,-1.3756 1.0268,0.2752 3.4832,2.7315 3.7583,3.7583 0.2751,1.0268 -0.62398,4.3823 -1.3756,5.134 z" />
      <path
         style="fill:#888a85"
         inkscape:connector-curvature="0"
         id="path42"
         d="m 65.7573,759.95501 c -0.75166,0.75166 -4.1072,1.6508 -5.134,1.3756 -1.0268,-0.2752 -3.4832,-2.7315 -3.7583,-3.7583 -0.2751,-1.0268 0.62398,-4.3823 1.3756,-5.134 0.75162,-0.7517 4.1072,-1.6508 5.134,-1.3756 1.0268,0.2752 3.4832,2.7315 3.7583,3.7583 0.2751,1.0268 -0.62398,4.3823 -1.3756,5.134 z" />
      <path
         style="fill:#888a85"
         inkscape:connector-curvature="0"
         id="path44"
         d="m 77.257,744.95501 c -0.75166,0.75166 -4.1072,1.6508 -5.134,1.3756 -1.0268,-0.2752 -3.4832,-2.7315 -3.7583,-3.7583 -0.2751,-1.0268 0.62398,-4.3823 1.3756,-5.134 0.75162,-0.7517 4.1072,-1.6508 5.134,-1.3756 1.0268,0.2752 3.4832,2.7315 3.7583,3.7583 0.2751,1.0268 -0.62398,4.3823 -1.3756,5.134 z" />
      <path
         style="fill:#888a85"
         inkscape:connector-curvature="0"
         id="path46"
         d="m 92.507,778.95501 c -0.75166,0.75166 -4.1072,1.6508 -5.134,1.3756 -1.0268,-0.2752 -3.4832,-2.7315 -3.7583,-3.7583 -0.2751,-1.0268 0.62398,-4.3823 1.3756,-5.134 0.75162,-0.7517 4.1072,-1.6508 5.134,-1.3756 1.0268,0.2752 3.4832,2.7315 3.7583,3.7583 0.2751,1.0268 -0.62398,4.3823 -1.3756,5.134 z" />
      <path
         style="fill:#888a85"
         inkscape:connector-curvature="0"
         id="path48"
         d="m 100.257,764.20501 c -0.75166,0.75166 -4.1072,1.6508 -5.134,1.3756 -1.0268,-0.2752 -3.4832,-2.7315 -3.7583,-3.7583 -0.2751,-1.0268 0.62398,-4.3823 1.3756,-5.134 0.75162,-0.7517 4.1072,-1.6508 5.134,-1.3756 1.0268,0.2752 3.4832,2.7315 3.7583,3.7583 0.2751,1.0268 -0.62398,4.3823 -1.3756,5.134 z" />
      <path
         style="fill:#2e5b04"
         inkscape:connector-curvature="0"
         id="path50"
         d="m 58,675.70101 h 115 v 13 H 58 Z" />
      <path
         style="fill:#4e9a06"
         inkscape:connector-curvature="0"
         id="path52"
         d="m 114.52,612.34501 c -10.863,0 -13.259,0.2994 -19.267,2.4265 -9.3746,3.319 -18.026,7.1226 -24.156,14.161 -12.187,13.991 -21.295,51.428 -21.295,51.428 l 9.4525,0.32595 c 5.1964,0.17257 34.318,0.39716 64.719,0.50703 l 55.267,0.2173 -0.57946,-8.8368 c -0.29241,-4.4515 -0.90216,-8.481 -1.8833,-12.35 l 110.86,3.1856 8.0892,7.7655 19.689,-6.9673 v -29.118 l -18.493,-7.5839 -10.455,8.4114 -119.29,3.4098 c -7.6698,-10.983 -19.294,-19.564 -33.392,-24.555 -6.008,-2.1271 -8.4044,-2.4265 -19.267,-2.4265 z" />
      <path
         style="fill:#4e9a06"
         inkscape:connector-curvature="0"
         id="path54"
         d="m 38.52,683.33501 c -6.4047,5.3371 -11.795,13.184 -23.165,39.544 l 238.94,-5.5 c -16.604,-10.842 -31.979,-21.269 -60.479,-32.269 l -64.755,-0.6519 C 93.456,684.09773 58.548,683.67643 51.449,683.5527 L 38.52,683.3354 Z" />
      <path
         style="opacity:0.68980001;fill:#2e3436"
         inkscape:connector-curvature="0"
         id="path56"
         d="m 79.25,732.31501 c -10.763,0 -20.087,6.1479 -24.656,15.125 h 49.312 c -4.5694,-8.9771 -13.893,-15.125 -24.656,-15.125 z" />
      <g
         style="fill:#444643"
         id="g84"
         transform="translate(-104.19,396.36501)">
        <path
           inkscape:connector-curvature="0"
           id="path58"
           d="m 187.86,462.01 c 0,10.454 -8.4746,18.929 -18.929,18.929 -10.4544,0 -18.929,-8.4746 -18.929,-18.929 0,-10.4544 8.4746,-18.929 18.929,-18.929 10.4544,0 18.929,8.4746 18.929,18.929 z"
           transform="matrix(0.8983,0,0,0.8983,-18.459,-61.462)" />
        <g
           id="g64"
           transform="matrix(0.58491,0,0,0.58491,-10.847,61.865)">
          <path
             inkscape:connector-curvature="0"
             id="path60"
             d="m 246.43,461.22 a 6.0104,6.0104 0 0 1 6.0104,6.0104 v 12.021 a 6.0104,6.0104 0 0 1 -6.0104,6.0104 6.0104,6.0104 0 0 1 -6.0104,-6.0104 v -12.021 A 6.0104,6.0104 0 0 1 246.43,461.22" />
          <path
             inkscape:connector-curvature="0"
             id="path62"
             d="m 246.43,512.13 a 6.0104,6.0104 0 0 1 6.0104,6.0104 v 12.021 a 6.0104,6.0104 0 0 1 -6.0104,6.0104 6.0104,6.0104 0 0 1 -6.0104,-6.0104 v -12.021 A 6.0104,6.0104 0 0 1 246.43,512.13" />
        </g>
        <g
           id="g70"
           transform="matrix(0.41359,-0.41359,0.41359,0.41359,-174.89,249.22)">
          <path
             inkscape:connector-curvature="0"
             id="path66"
             d="m 246.43,461.22 a 6.0104,6.0104 0 0 1 6.0104,6.0104 v 12.021 a 6.0104,6.0104 0 0 1 -6.0104,6.0104 6.0104,6.0104 0 0 1 -6.0104,-6.0104 v -12.021 A 6.0104,6.0104 0 0 1 246.43,461.22" />
          <path
             inkscape:connector-curvature="0"
             id="path68"
             d="m 246.43,512.13 a 6.0104,6.0104 0 0 1 6.0104,6.0104 v 12.021 a 6.0104,6.0104 0 0 1 -6.0104,6.0104 6.0104,6.0104 0 0 1 -6.0104,-6.0104 v -12.021 A 6.0104,6.0104 0 0 1 246.43,512.13" />
        </g>
        <g
           id="g76"
           transform="matrix(0,-0.58491,0.58491,0,-158.4,497.69)">
          <path
             inkscape:connector-curvature="0"
             id="path72"
             d="m 246.43,461.22 a 6.0104,6.0104 0 0 1 6.0104,6.0104 v 12.021 a 6.0104,6.0104 0 0 1 -6.0104,6.0104 6.0104,6.0104 0 0 1 -6.0104,-6.0104 v -12.021 A 6.0104,6.0104 0 0 1 246.43,461.22" />
          <path
             inkscape:connector-curvature="0"
             id="path74"
             d="m 246.43,512.13 a 6.0104,6.0104 0 0 1 6.0104,6.0104 v 12.021 a 6.0104,6.0104 0 0 1 -6.0104,6.0104 6.0104,6.0104 0 0 1 -6.0104,-6.0104 v -12.021 A 6.0104,6.0104 0 0 1 246.43,512.13" />
        </g>
        <g
           id="g82"
           transform="matrix(-0.41359,-0.41359,0.41359,-0.41359,28.953,661.73)">
          <path
             inkscape:connector-curvature="0"
             id="path78"
             d="m 246.43,461.22 a 6.0104,6.0104 0 0 1 6.0104,6.0104 v 12.021 a 6.0104,6.0104 0 0 1 -6.0104,6.0104 6.0104,6.0104 0 0 1 -6.0104,-6.0104 v -12.021 A 6.0104,6.0104 0 0 1 246.43,461.22" />
          <path
             inkscape:connector-curvature="0"
             id="path80"
             d="m 246.43,512.13 a 6.0104,6.0104 0 0 1 6.0104,6.0104 v 12.021 a 6.0104,6.0104 0 0 1 -6.0104,6.0104 6.0104,6.0104 0 0 1 -6.0104,-6.0104 v -12.021 A 6.0104,6.0104 0 0 1 246.43,512.13" />
        </g>
      </g>
      <path
         style="fill:#444643"
         inkscape:connector-curvature="0"
         id="path86"
         d="m 240.09,720.50501 c -1.5034,0 -2.7188,1.2154 -2.7188,2.7188 v 1.375 c -1.5973,0.33932 -3.113,0.95004 -4.4375,1.8125 l -0.96875,-0.96875 c -1.063,-1.063 -2.7807,-1.063 -3.8438,0 -1.0631,1.063 -1.063,2.7807 0,3.8438 l 1,1 c -0.87234,1.3371 -1.5367,2.8224 -1.875,4.4375 h -1.3438 c -1.5034,0 -2.7188,1.1842 -2.7188,2.6875 0,1.5033 1.2154,2.7188 2.7188,2.7188 h 1.3438 c 0.33716,1.609 0.97631,3.1042 1.8438,4.4375 l -0.96875,0.96875 c -1.063,1.063 -1.063,2.7807 0,3.8438 1.063,1.0631 2.7807,1.063 3.8438,0 l 0.96875,-0.96875 c 1.328,0.867 2.8347,1.5033 4.4375,1.8438 v 1.375 c 0,1.5034 1.2154,2.7188 2.7188,2.7188 1.5034,0 2.7188,-1.2154 2.7188,-2.7188 v -1.375 c 1.6221,-0.3409 3.1277,-0.96432 4.4688,-1.8438 l 0.9375,0.96875 c 1.063,1.063 2.7807,1.063 3.8438,0 1.0631,-1.063 1.063,-2.7807 0,-3.8438 l -0.96875,-0.9375 c 0.87835,-1.3403 1.5031,-2.8479 1.8438,-4.4688 h 1.375 c 1.5034,0 2.7188,-1.2154 2.7188,-2.7188 0,-1.5034 -1.2154,-2.6875 -2.7188,-2.6875 h -1.375 c -0.34054,-1.6215 -0.96511,-3.128 -1.8438,-4.4688 l 0.96875,-0.96875 c 1.063,-1.063 1.063,-2.7807 0,-3.8438 -1.063,-1.0631 -2.7807,-1.063 -3.8438,0 l -0.96875,0.96875 c -1.3322,-0.86746 -2.8297,-1.4746 -4.4375,-1.8125 v -1.375 c 0,-1.5034 -1.2154,-2.7188 -2.7188,-2.7188 z" />
      <path
         style="fill:#73d216"
         inkscape:connector-curvature="0"
         id="path88"
         d="m 57.629,675.61401 22.274,0.70711 c 0,0 11.89,-52.535 28.991,-56.922 -33.941,-10.607 -51.265,56.215 -51.265,56.215 z" />
      <path
         style="fill:#73d216"
         inkscape:connector-curvature="0"
         id="path90"
         d="m 286.38,638.12601 -108.59,2.8125 c 0.70006,0.68983 1.5308,1.5446 2.4062,2.5625 l 105.47,1.7188 0.71875,-7.0938 z" />
      <path
         style="opacity:0.40613002"
         inkscape:connector-curvature="0"
         id="path92"
         d="m 167.05,639.19801 c 0,0 10.607,18.031 9.546,20.86 l 11.137,0.35355 c -0.35355,-12.021 -12.021,-21.39 -12.021,-21.39 l -8.6621,0.17678 z" />
      <path
         style="fill:#73d216"
         inkscape:connector-curvature="0"
         id="path94"
         d="m 287.25,638.07601 -0.125,6 10.75,-2.25 -1,-10.75 z" />
      <path
         style="fill:#73d216"
         inkscape:connector-curvature="0"
         id="path96"
         d="m 315.37,636.57501 -1,5.25 -15,0.125 -0.625,-11.625 z" />
      <path
         style="fill:#73d216"
         inkscape:connector-curvature="0"
         id="path98"
         d="m 299.46,642.55701 -3.3588,27.577 1.4142,-27.754 1.9445,0.17678 z" />
      <path
         style="fill:#ffffff;stroke-width:0.76234663"
         inkscape:connector-curvature="0"
         id="path100"
         d="m 129.17848,670.6736 -10.8579,-6.26119 -11.31331,5.39517 2.59934,-12.26128 -8.62698,-9.0926 12.46443,-1.31689 5.98165,-11.01498 5.10416,11.4481 12.32372,2.2851 -9.31051,8.39219 1.63504,12.427 z" />
      <g
         id="g110"
         transform="matrix(0.9951,-0.09883,0.09883,0.9951,-86.315,572.03501)">
        <path
           style="fill:#888a85"
           inkscape:connector-curvature="0"
           id="path102"
           d="m 206.44,176.34 h 22.624 a 4.25,4.25 0 0 1 4.25,4.25 4.25,4.25 0 0 1 -4.25,4.25 H 206.44 a 4.25,4.25 0 0 1 -4.25,-4.25 4.25,4.25 0 0 1 4.25,-4.25" />
        <path
           style="fill:#382509;fill-rule:evenodd;stroke:#000000"
           inkscape:connector-curvature="0"
           id="path104"
           d="m 231.25,180.57 c 0,1.5878 -3.2872,2.875 -4.875,2.875 -1.5878,0 -2.875,-1.2872 -2.875,-2.875 0,-1.5878 3.2872,-2.875 4.875,-2.875 1.5878,0 2.875,1.2872 2.875,2.875 z" />
        <path
           style="fill:#382509;fill-rule:evenodd;stroke:#000000"
           inkscape:connector-curvature="0"
           id="path106"
           d="m 210.83,182.28 c -0.73886,1.4054 -4.2474,1.0152 -5.6529,0.27631 -1.4055,-0.73889 -1.9458,-2.4772 -1.207,-3.8826 0.7388,-1.4054 4.2474,-1.0152 5.6529,-0.27631 1.4055,0.73889 1.9458,2.4772 1.207,3.8826 z" />
        <path
           style="fill:#555753"
           inkscape:connector-curvature="0"
           id="path108"
           d="m 213.03,176.4 c 1.1923,1.1314 1.9062,2.6161 1.9062,4.25 0,1.6339 -0.71394,3.1186 -1.9062,4.25 h 9.8438 c -1.1995,-1.1314 -1.9375,-2.6161 -1.9375,-4.25 0,-1.6339 0.73802,-3.1186 1.9375,-4.25 z" />
      </g>
      <g
         id="g120"
         transform="matrix(0.9593,-0.28238,0.28238,0.9593,-91.53,615.81501)">
        <path
           style="fill:#888a85"
           inkscape:connector-curvature="0"
           id="path112"
           d="m 206.44,176.34 h 22.624 a 4.25,4.25 0 0 1 4.25,4.25 4.25,4.25 0 0 1 -4.25,4.25 H 206.44 a 4.25,4.25 0 0 1 -4.25,-4.25 4.25,4.25 0 0 1 4.25,-4.25" />
        <path
           style="fill:#382509;fill-rule:evenodd;stroke:#000000"
           inkscape:connector-curvature="0"
           id="path114"
           d="m 231.25,180.57 c 0,1.5878 -3.2872,2.875 -4.875,2.875 -1.5878,0 -2.875,-1.2872 -2.875,-2.875 0,-1.5878 3.2872,-2.875 4.875,-2.875 1.5878,0 2.875,1.2872 2.875,2.875 z" />
        <path
           style="fill:#382509;fill-rule:evenodd;stroke:#000000"
           inkscape:connector-curvature="0"
           id="path116"
           d="m 210.83,182.28 c -0.73886,1.4054 -4.2474,1.0152 -5.6529,0.27631 -1.4055,-0.73889 -1.9458,-2.4772 -1.207,-3.8826 0.7388,-1.4054 4.2474,-1.0152 5.6529,-0.27631 1.4055,0.73889 1.9458,2.4772 1.207,3.8826 z" />
        <path
           style="fill:#555753"
           inkscape:connector-curvature="0"
           id="path118"
           d="m 213.03,176.4 c 1.1923,1.1314 1.9062,2.6161 1.9062,4.25 0,1.6339 -0.71394,3.1186 -1.9062,4.25 h 9.8438 c -1.1995,-1.1314 -1.9375,-2.6161 -1.9375,-4.25 0,-1.6339 0.73802,-3.1186 1.9375,-4.25 z" />
      </g>
      <g
         id="g130"
         transform="rotate(0.05140977,-604887.54,-30084.477)">
        <path
           style="fill:#888a85"
           inkscape:connector-curvature="0"
           id="path122"
           d="m 206.44,176.34 h 22.624 a 4.25,4.25 0 0 1 4.25,4.25 4.25,4.25 0 0 1 -4.25,4.25 H 206.44 a 4.25,4.25 0 0 1 -4.25,-4.25 4.25,4.25 0 0 1 4.25,-4.25" />
        <path
           style="fill:#382509;fill-rule:evenodd;stroke:#000000"
           inkscape:connector-curvature="0"
           id="path124"
           d="m 231.25,180.57 c 0,1.5878 -3.2872,2.875 -4.875,2.875 -1.5878,0 -2.875,-1.2872 -2.875,-2.875 0,-1.5878 3.2872,-2.875 4.875,-2.875 1.5878,0 2.875,1.2872 2.875,2.875 z" />
        <path
           style="fill:#382509;fill-rule:evenodd;stroke:#000000"
           inkscape:connector-curvature="0"
           id="path126"
           d="m 210.83,182.28 c -0.73886,1.4054 -4.2474,1.0152 -5.6529,0.27631 -1.4055,-0.73889 -1.9458,-2.4772 -1.207,-3.8826 0.7388,-1.4054 4.2474,-1.0152 5.6529,-0.27631 1.4055,0.73889 1.9458,2.4772 1.207,3.8826 z" />
        <path
           style="fill:#555753"
           inkscape:connector-curvature="0"
           id="path128"
           d="m 213.03,176.4 c 1.1923,1.1314 1.9062,2.6161 1.9062,4.25 0,1.6339 -0.71394,3.1186 -1.9062,4.25 h 9.8438 c -1.1995,-1.1314 -1.9375,-2.6161 -1.9375,-4.25 0,-1.6339 0.73802,-3.1186 1.9375,-4.25 z" />
      </g>
      <g
         id="g140"
         transform="matrix(0.99274,-0.1203,0.1203,0.99274,-27.825,569.53501)">
        <path
           style="fill:#888a85"
           inkscape:connector-curvature="0"
           id="path132"
           d="m 206.44,176.34 h 22.624 a 4.25,4.25 0 0 1 4.25,4.25 4.25,4.25 0 0 1 -4.25,4.25 H 206.44 a 4.25,4.25 0 0 1 -4.25,-4.25 4.25,4.25 0 0 1 4.25,-4.25" />
        <path
           style="fill:#382509;fill-rule:evenodd;stroke:#000000"
           inkscape:connector-curvature="0"
           id="path134"
           d="m 231.25,180.57 c 0,1.5878 -3.2872,2.875 -4.875,2.875 -1.5878,0 -2.875,-1.2872 -2.875,-2.875 0,-1.5878 3.2872,-2.875 4.875,-2.875 1.5878,0 2.875,1.2872 2.875,2.875 z" />
        <path
           style="fill:#382509;fill-rule:evenodd;stroke:#000000"
           inkscape:connector-curvature="0"
           id="path136"
           d="m 210.83,182.28 c -0.73886,1.4054 -4.2474,1.0152 -5.6529,0.27631 -1.4055,-0.73889 -1.9458,-2.4772 -1.207,-3.8826 0.7388,-1.4054 4.2474,-1.0152 5.6529,-0.27631 1.4055,0.73889 1.9458,2.4772 1.207,3.8826 z" />
        <path
           style="fill:#555753"
           inkscape:connector-curvature="0"
           id="path138"
           d="m 213.03,176.4 c 1.1923,1.1314 1.9062,2.6161 1.9062,4.25 0,1.6339 -0.71394,3.1186 -1.9062,4.25 h 9.8438 c -1.1995,-1.1314 -1.9375,-2.6161 -1.9375,-4.25 0,-1.6339 0.73802,-3.1186 1.9375,-4.25 z" />
      </g>
      <g
         id="g150"
         transform="matrix(0.99274,-0.1203,0.1203,0.99274,-27.825,569.53501)">
        <path
           style="fill:#888a85"
           inkscape:connector-curvature="0"
           id="path142"
           d="m 206.44,176.34 h 22.624 a 4.25,4.25 0 0 1 4.25,4.25 4.25,4.25 0 0 1 -4.25,4.25 H 206.44 a 4.25,4.25 0 0 1 -4.25,-4.25 4.25,4.25 0 0 1 4.25,-4.25" />
        <path
           style="fill:#382509;fill-rule:evenodd;stroke:#000000"
           inkscape:connector-curvature="0"
           id="path144"
           d="m 231.25,180.57 c 0,1.5878 -3.2872,2.875 -4.875,2.875 -1.5878,0 -2.875,-1.2872 -2.875,-2.875 0,-1.5878 3.2872,-2.875 4.875,-2.875 1.5878,0 2.875,1.2872 2.875,2.875 z" />
        <path
           style="fill:#382509;fill-rule:evenodd;stroke:#000000"
           inkscape:connector-curvature="0"
           id="path146"
           d="m 210.83,182.28 c -0.73886,1.4054 -4.2474,1.0152 -5.6529,0.27631 -1.4055,-0.73889 -1.9458,-2.4772 -1.207,-3.8826 0.7388,-1.4054 4.2474,-1.0152 5.6529,-0.27631 1.4055,0.73889 1.9458,2.4772 1.207,3.8826 z" />
        <path
           style="fill:#555753"
           inkscape:connector-curvature="0"
           id="path148"
           d="m 213.03,176.4 c 1.1923,1.1314 1.9062,2.6161 1.9062,4.25 0,1.6339 -0.71394,3.1186 -1.9062,4.25 h 9.8438 c -1.1995,-1.1314 -1.9375,-2.6161 -1.9375,-4.25 0,-1.6339 0.73802,-3.1186 1.9375,-4.25 z" />
      </g>
      <g
         id="g160"
         transform="matrix(0.99274,-0.1203,0.1203,0.99274,-6.612,567.41501)">
        <path
           style="fill:#888a85"
           inkscape:connector-curvature="0"
           id="path152"
           d="m 206.44,176.34 h 22.624 a 4.25,4.25 0 0 1 4.25,4.25 4.25,4.25 0 0 1 -4.25,4.25 H 206.44 a 4.25,4.25 0 0 1 -4.25,-4.25 4.25,4.25 0 0 1 4.25,-4.25" />
        <path
           style="fill:#382509;fill-rule:evenodd;stroke:#000000"
           inkscape:connector-curvature="0"
           id="path154"
           d="m 231.25,180.57 c 0,1.5878 -3.2872,2.875 -4.875,2.875 -1.5878,0 -2.875,-1.2872 -2.875,-2.875 0,-1.5878 3.2872,-2.875 4.875,-2.875 1.5878,0 2.875,1.2872 2.875,2.875 z" />
        <path
           style="fill:#382509;fill-rule:evenodd;stroke:#000000"
           inkscape:connector-curvature="0"
           id="path156"
           d="m 210.83,182.28 c -0.73886,1.4054 -4.2474,1.0152 -5.6529,0.27631 -1.4055,-0.73889 -1.9458,-2.4772 -1.207,-3.8826 0.7388,-1.4054 4.2474,-1.0152 5.6529,-0.27631 1.4055,0.73889 1.9458,2.4772 1.207,3.8826 z" />
        <path
           style="fill:#555753"
           inkscape:connector-curvature="0"
           id="path158"
           d="m 213.03,176.4 c 1.1923,1.1314 1.9062,2.6161 1.9062,4.25 0,1.6339 -0.71394,3.1186 -1.9062,4.25 h 9.8438 c -1.1995,-1.1314 -1.9375,-2.6161 -1.9375,-4.25 0,-1.6339 0.73802,-3.1186 1.9375,-4.25 z" />
      </g>
      <g
         id="g170"
         transform="matrix(0.92683,0.37547,-0.37547,0.92683,116.97,474.72701)">
        <path
           style="fill:#888a85"
           inkscape:connector-curvature="0"
           id="path162"
           d="m 206.44,176.34 h 22.624 a 4.25,4.25 0 0 1 4.25,4.25 4.25,4.25 0 0 1 -4.25,4.25 H 206.44 a 4.25,4.25 0 0 1 -4.25,-4.25 4.25,4.25 0 0 1 4.25,-4.25" />
        <path
           style="fill:#382509;fill-rule:evenodd;stroke:#000000"
           inkscape:connector-curvature="0"
           id="path164"
           d="m 231.25,180.57 c 0,1.5878 -3.2872,2.875 -4.875,2.875 -1.5878,0 -2.875,-1.2872 -2.875,-2.875 0,-1.5878 3.2872,-2.875 4.875,-2.875 1.5878,0 2.875,1.2872 2.875,2.875 z" />
        <path
           style="fill:#382509;fill-rule:evenodd;stroke:#000000"
           inkscape:connector-curvature="0"
           id="path166"
           d="m 210.83,182.28 c -0.73886,1.4054 -4.2474,1.0152 -5.6529,0.27631 -1.4055,-0.73889 -1.9458,-2.4772 -1.207,-3.8826 0.7388,-1.4054 4.2474,-1.0152 5.6529,-0.27631 1.4055,0.73889 1.9458,2.4772 1.207,3.8826 z" />
        <path
           style="fill:#555753"
           inkscape:connector-curvature="0"
           id="path168"
           d="m 213.03,176.4 c 1.1923,1.1314 1.9062,2.6161 1.9062,4.25 0,1.6339 -0.71394,3.1186 -1.9062,4.25 h 9.8438 c -1.1995,-1.1314 -1.9375,-2.6161 -1.9375,-4.25 0,-1.6339 0.73802,-3.1186 1.9375,-4.25 z" />
      </g>
      <g
         id="g180"
         transform="matrix(-0.04587,0.99895,-0.99895,-0.04587,450.28,528.84501)">
        <path
           style="fill:#888a85"
           inkscape:connector-curvature="0"
           id="path172"
           d="m 206.44,176.34 h 22.624 a 4.25,4.25 0 0 1 4.25,4.25 4.25,4.25 0 0 1 -4.25,4.25 H 206.44 a 4.25,4.25 0 0 1 -4.25,-4.25 4.25,4.25 0 0 1 4.25,-4.25" />
        <path
           style="fill:#382509;fill-rule:evenodd;stroke:#000000"
           inkscape:connector-curvature="0"
           id="path174"
           d="m 231.25,180.57 c 0,1.5878 -3.2872,2.875 -4.875,2.875 -1.5878,0 -2.875,-1.2872 -2.875,-2.875 0,-1.5878 3.2872,-2.875 4.875,-2.875 1.5878,0 2.875,1.2872 2.875,2.875 z" />
        <path
           style="fill:#382509;fill-rule:evenodd;stroke:#000000"
           inkscape:connector-curvature="0"
           id="path176"
           d="m 210.83,182.28 c -0.73886,1.4054 -4.2474,1.0152 -5.6529,0.27631 -1.4055,-0.73889 -1.9458,-2.4772 -1.207,-3.8826 0.7388,-1.4054 4.2474,-1.0152 5.6529,-0.27631 1.4055,0.73889 1.9458,2.4772 1.207,3.8826 z" />
        <path
           style="fill:#555753"
           inkscape:connector-curvature="0"
           id="path178"
           d="m 213.03,176.4 c 1.1923,1.1314 1.9062,2.6161 1.9062,4.25 0,1.6339 -0.71394,3.1186 -1.9062,4.25 h 9.8438 c -1.1995,-1.1314 -1.9375,-2.6161 -1.9375,-4.25 0,-1.6339 0.73802,-3.1186 1.9375,-4.25 z" />
      </g>
      <g
         id="g190"
         transform="matrix(-0.65353869,0.75689203,-0.75689203,-0.65353869,532.17362,712.72984)">
        <path
           style="fill:#888a85"
           inkscape:connector-curvature="0"
           id="path182"
           d="m 206.44,176.34 h 22.624 a 4.25,4.25 0 0 1 4.25,4.25 4.25,4.25 0 0 1 -4.25,4.25 H 206.44 a 4.25,4.25 0 0 1 -4.25,-4.25 4.25,4.25 0 0 1 4.25,-4.25" />
        <path
           style="fill:#382509;fill-rule:evenodd;stroke:#000000"
           inkscape:connector-curvature="0"
           id="path184"
           d="m 231.25,180.57 c 0,1.5878 -3.2872,2.875 -4.875,2.875 -1.5878,0 -2.875,-1.2872 -2.875,-2.875 0,-1.5878 3.2872,-2.875 4.875,-2.875 1.5878,0 2.875,1.2872 2.875,2.875 z" />
        <path
           style="fill:#382509;fill-rule:evenodd;stroke:#000000"
           inkscape:connector-curvature="0"
           id="path186"
           d="m 210.83,182.28 c -0.73886,1.4054 -4.2474,1.0152 -5.6529,0.27631 -1.4055,-0.73889 -1.9458,-2.4772 -1.207,-3.8826 0.7388,-1.4054 4.2474,-1.0152 5.6529,-0.27631 1.4055,0.73889 1.9458,2.4772 1.207,3.8826 z" />
        <path
           style="fill:#555753"
           inkscape:connector-curvature="0"
           id="path188"
           d="m 213.03,176.4 c 1.1923,1.1314 1.9062,2.6161 1.9062,4.25 0,1.6339 -0.71394,3.1186 -1.9062,4.25 h 9.8438 c -1.1995,-1.1314 -1.9375,-2.6161 -1.9375,-4.25 0,-1.6339 0.73802,-3.1186 1.9375,-4.25 z" />
      </g>
      <g
         id="g200"
         transform="matrix(-0.69243,0.72149,-0.72149,-0.69243,519.3173,740.91965)">
        <path
           style="fill:#888a85"
           inkscape:connector-curvature="0"
           id="path192"
           d="m 206.44,176.34 h 22.624 a 4.25,4.25 0 0 1 4.25,4.25 4.25,4.25 0 0 1 -4.25,4.25 H 206.44 a 4.25,4.25 0 0 1 -4.25,-4.25 4.25,4.25 0 0 1 4.25,-4.25" />
        <path
           style="fill:#382509;fill-rule:evenodd;stroke:#000000"
           inkscape:connector-curvature="0"
           id="path194"
           d="m 231.25,180.57 c 0,1.5878 -3.2872,2.875 -4.875,2.875 -1.5878,0 -2.875,-1.2872 -2.875,-2.875 0,-1.5878 3.2872,-2.875 4.875,-2.875 1.5878,0 2.875,1.2872 2.875,2.875 z" />
        <path
           style="fill:#382509;fill-rule:evenodd;stroke:#000000"
           inkscape:connector-curvature="0"
           id="path196"
           d="m 210.83,182.28 c -0.73886,1.4054 -4.2474,1.0152 -5.6529,0.27631 -1.4055,-0.73889 -1.9458,-2.4772 -1.207,-3.8826 0.7388,-1.4054 4.2474,-1.0152 5.6529,-0.27631 1.4055,0.73889 1.9458,2.4772 1.207,3.8826 z" />
        <path
           style="fill:#555753"
           inkscape:connector-curvature="0"
           id="path198"
           d="m 213.03,176.4 c 1.1923,1.1314 1.9062,2.6161 1.9062,4.25 0,1.6339 -0.71394,3.1186 -1.9062,4.25 h 9.8438 c -1.1995,-1.1314 -1.9375,-2.6161 -1.9375,-4.25 0,-1.6339 0.73802,-3.1186 1.9375,-4.25 z" />
      </g>
      <g
         id="g210"
         transform="matrix(-0.97489621,0.22266829,-0.22266829,-0.97489621,469.4353,912.89866)">
        <path
           style="fill:#888a85"
           inkscape:connector-curvature="0"
           id="path202"
           d="m 206.44,176.34 h 22.624 a 4.25,4.25 0 0 1 4.25,4.25 4.25,4.25 0 0 1 -4.25,4.25 H 206.44 a 4.25,4.25 0 0 1 -4.25,-4.25 4.25,4.25 0 0 1 4.25,-4.25" />
        <path
           style="fill:#382509;fill-rule:evenodd;stroke:#000000"
           inkscape:connector-curvature="0"
           id="path204"
           d="m 231.25,180.57 c 0,1.5878 -3.2872,2.875 -4.875,2.875 -1.5878,0 -2.875,-1.2872 -2.875,-2.875 0,-1.5878 3.2872,-2.875 4.875,-2.875 1.5878,0 2.875,1.2872 2.875,2.875 z" />
        <path
           style="fill:#382509;fill-rule:evenodd;stroke:#000000"
           inkscape:connector-curvature="0"
           id="path206"
           d="m 210.83,182.28 c -0.73886,1.4054 -4.2474,1.0152 -5.6529,0.27631 -1.4055,-0.73889 -1.9458,-2.4772 -1.207,-3.8826 0.7388,-1.4054 4.2474,-1.0152 5.6529,-0.27631 1.4055,0.73889 1.9458,2.4772 1.207,3.8826 z" />
        <path
           style="fill:#555753"
           inkscape:connector-curvature="0"
           id="path208"
           d="m 213.03,176.4 c 1.1923,1.1314 1.9062,2.6161 1.9062,4.25 0,1.6339 -0.71394,3.1186 -1.9062,4.25 h 9.8438 c -1.1995,-1.1314 -1.9375,-2.6161 -1.9375,-4.25 0,-1.6339 0.73802,-3.1186 1.9375,-4.25 z" />
      </g>
      <g
         id="g220"
         transform="matrix(-1,0.00205,-0.00205,-1,406.22,967.89501)">
        <path
           style="fill:#888a85"
           inkscape:connector-curvature="0"
           id="path212"
           d="m 206.44,176.34 h 22.624 a 4.25,4.25 0 0 1 4.25,4.25 4.25,4.25 0 0 1 -4.25,4.25 H 206.44 a 4.25,4.25 0 0 1 -4.25,-4.25 4.25,4.25 0 0 1 4.25,-4.25" />
        <path
           style="fill:#382509;fill-rule:evenodd;stroke:#000000"
           inkscape:connector-curvature="0"
           id="path214"
           d="m 231.25,180.57 c 0,1.5878 -3.2872,2.875 -4.875,2.875 -1.5878,0 -2.875,-1.2872 -2.875,-2.875 0,-1.5878 3.2872,-2.875 4.875,-2.875 1.5878,0 2.875,1.2872 2.875,2.875 z" />
        <path
           style="fill:#382509;fill-rule:evenodd;stroke:#000000"
           inkscape:connector-curvature="0"
           id="path216"
           d="m 210.83,182.28 c -0.73886,1.4054 -4.2474,1.0152 -5.6529,0.27631 -1.4055,-0.73889 -1.9458,-2.4772 -1.207,-3.8826 0.7388,-1.4054 4.2474,-1.0152 5.6529,-0.27631 1.4055,0.73889 1.9458,2.4772 1.207,3.8826 z" />
        <path
           style="fill:#555753"
           inkscape:connector-curvature="0"
           id="path218"
           d="m 213.03,176.4 c 1.1923,1.1314 1.9062,2.6161 1.9062,4.25 0,1.6339 -0.71394,3.1186 -1.9062,4.25 h 9.8438 c -1.1995,-1.1314 -1.9375,-2.6161 -1.9375,-4.25 0,-1.6339 0.73802,-3.1186 1.9375,-4.25 z" />
      </g>
      <g
         id="g230"
         transform="matrix(-0.99355,0.1134,-0.1134,-0.99355,403.63,942.74501)">
        <path
           style="fill:#888a85"
           inkscape:connector-curvature="0"
           id="path222"
           d="m 206.44,176.34 h 22.624 a 4.25,4.25 0 0 1 4.25,4.25 4.25,4.25 0 0 1 -4.25,4.25 H 206.44 a 4.25,4.25 0 0 1 -4.25,-4.25 4.25,4.25 0 0 1 4.25,-4.25" />
        <path
           style="fill:#382509;fill-rule:evenodd;stroke:#000000"
           inkscape:connector-curvature="0"
           id="path224"
           d="m 231.25,180.57 c 0,1.5878 -3.2872,2.875 -4.875,2.875 -1.5878,0 -2.875,-1.2872 -2.875,-2.875 0,-1.5878 3.2872,-2.875 4.875,-2.875 1.5878,0 2.875,1.2872 2.875,2.875 z" />
        <path
           style="fill:#382509;fill-rule:evenodd;stroke:#000000"
           inkscape:connector-curvature="0"
           id="path226"
           d="m 210.83,182.28 c -0.73886,1.4054 -4.2474,1.0152 -5.6529,0.27631 -1.4055,-0.73889 -1.9458,-2.4772 -1.207,-3.8826 0.7388,-1.4054 4.2474,-1.0152 5.6529,-0.27631 1.4055,0.73889 1.9458,2.4772 1.207,3.8826 z" />
        <path
           style="fill:#555753"
           inkscape:connector-curvature="0"
           id="path228"
           d="m 213.03,176.4 c 1.1923,1.1314 1.9062,2.6161 1.9062,4.25 0,1.6339 -0.71394,3.1186 -1.9062,4.25 h 9.8438 c -1.1995,-1.1314 -1.9375,-2.6161 -1.9375,-4.25 0,-1.6339 0.73802,-3.1186 1.9375,-4.25 z" />
      </g>
      <g
         id="g240"
         transform="matrix(-1,0.00205,-0.00205,-1,364.72,967.89501)">
        <path
           style="fill:#888a85"
           inkscape:connector-curvature="0"
           id="path232"
           d="m 206.44,176.34 h 22.624 a 4.25,4.25 0 0 1 4.25,4.25 4.25,4.25 0 0 1 -4.25,4.25 H 206.44 a 4.25,4.25 0 0 1 -4.25,-4.25 4.25,4.25 0 0 1 4.25,-4.25" />
        <path
           style="fill:#382509;fill-rule:evenodd;stroke:#000000"
           inkscape:connector-curvature="0"
           id="path234"
           d="m 231.25,180.57 c 0,1.5878 -3.2872,2.875 -4.875,2.875 -1.5878,0 -2.875,-1.2872 -2.875,-2.875 0,-1.5878 3.2872,-2.875 4.875,-2.875 1.5878,0 2.875,1.2872 2.875,2.875 z" />
        <path
           style="fill:#382509;fill-rule:evenodd;stroke:#000000"
           inkscape:connector-curvature="0"
           id="path236"
           d="m 210.83,182.28 c -0.73886,1.4054 -4.2474,1.0152 -5.6529,0.27631 -1.4055,-0.73889 -1.9458,-2.4772 -1.207,-3.8826 0.7388,-1.4054 4.2474,-1.0152 5.6529,-0.27631 1.4055,0.73889 1.9458,2.4772 1.207,3.8826 z" />
        <path
           style="fill:#555753"
           inkscape:connector-curvature="0"
           id="path238"
           d="m 213.03,176.4 c 1.1923,1.1314 1.9062,2.6161 1.9062,4.25 0,1.6339 -0.71394,3.1186 -1.9062,4.25 h 9.8438 c -1.1995,-1.1314 -1.9375,-2.6161 -1.9375,-4.25 0,-1.6339 0.73802,-3.1186 1.9375,-4.25 z" />
      </g>
      <g
         id="g250"
         transform="matrix(-1,0.00205,-0.00205,-1,343.72,967.89501)">
        <path
           style="fill:#888a85"
           inkscape:connector-curvature="0"
           id="path242"
           d="m 206.44,176.34 h 22.624 a 4.25,4.25 0 0 1 4.25,4.25 4.25,4.25 0 0 1 -4.25,4.25 H 206.44 a 4.25,4.25 0 0 1 -4.25,-4.25 4.25,4.25 0 0 1 4.25,-4.25" />
        <path
           style="fill:#382509;fill-rule:evenodd;stroke:#000000"
           inkscape:connector-curvature="0"
           id="path244"
           d="m 231.25,180.57 c 0,1.5878 -3.2872,2.875 -4.875,2.875 -1.5878,0 -2.875,-1.2872 -2.875,-2.875 0,-1.5878 3.2872,-2.875 4.875,-2.875 1.5878,0 2.875,1.2872 2.875,2.875 z" />
        <path
           style="fill:#382509;fill-rule:evenodd;stroke:#000000"
           inkscape:connector-curvature="0"
           id="path246"
           d="m 210.83,182.28 c -0.73886,1.4054 -4.2474,1.0152 -5.6529,0.27631 -1.4055,-0.73889 -1.9458,-2.4772 -1.207,-3.8826 0.7388,-1.4054 4.2474,-1.0152 5.6529,-0.27631 1.4055,0.73889 1.9458,2.4772 1.207,3.8826 z" />
        <path
           style="fill:#555753"
           inkscape:connector-curvature="0"
           id="path248"
           d="m 213.03,176.4 c 1.1923,1.1314 1.9062,2.6161 1.9062,4.25 0,1.6339 -0.71394,3.1186 -1.9062,4.25 h 9.8438 c -1.1995,-1.1314 -1.9375,-2.6161 -1.9375,-4.25 0,-1.6339 0.73802,-3.1186 1.9375,-4.25 z" />
      </g>
      <g
         id="g260"
         transform="matrix(-0.99583,-0.09125,0.09125,-0.99583,304.73,987.26501)">
        <path
           style="fill:#888a85"
           inkscape:connector-curvature="0"
           id="path252"
           d="m 206.44,176.34 h 22.624 a 4.25,4.25 0 0 1 4.25,4.25 4.25,4.25 0 0 1 -4.25,4.25 H 206.44 a 4.25,4.25 0 0 1 -4.25,-4.25 4.25,4.25 0 0 1 4.25,-4.25" />
        <path
           style="fill:#382509;fill-rule:evenodd;stroke:#000000"
           inkscape:connector-curvature="0"
           id="path254"
           d="m 231.25,180.57 c 0,1.5878 -3.2872,2.875 -4.875,2.875 -1.5878,0 -2.875,-1.2872 -2.875,-2.875 0,-1.5878 3.2872,-2.875 4.875,-2.875 1.5878,0 2.875,1.2872 2.875,2.875 z" />
        <path
           style="fill:#382509;fill-rule:evenodd;stroke:#000000"
           inkscape:connector-curvature="0"
           id="path256"
           d="m 210.83,182.28 c -0.73886,1.4054 -4.2474,1.0152 -5.6529,0.27631 -1.4055,-0.73889 -1.9458,-2.4772 -1.207,-3.8826 0.7388,-1.4054 4.2474,-1.0152 5.6529,-0.27631 1.4055,0.73889 1.9458,2.4772 1.207,3.8826 z" />
        <path
           style="fill:#555753"
           inkscape:connector-curvature="0"
           id="path258"
           d="m 213.03,176.4 c 1.1923,1.1314 1.9062,2.6161 1.9062,4.25 0,1.6339 -0.71394,3.1186 -1.9062,4.25 h 9.8438 c -1.1995,-1.1314 -1.9375,-2.6161 -1.9375,-4.25 0,-1.6339 0.73802,-3.1186 1.9375,-4.25 z" />
      </g>
      <g
         id="g270"
         transform="matrix(-1,0.00205,-0.00205,-1,299.22,967.89501)">
        <path
           style="fill:#888a85"
           inkscape:connector-curvature="0"
           id="path262"
           d="m 206.44,176.34 h 22.624 a 4.25,4.25 0 0 1 4.25,4.25 4.25,4.25 0 0 1 -4.25,4.25 H 206.44 a 4.25,4.25 0 0 1 -4.25,-4.25 4.25,4.25 0 0 1 4.25,-4.25" />
        <path
           style="fill:#382509;fill-rule:evenodd;stroke:#000000"
           inkscape:connector-curvature="0"
           id="path264"
           d="m 231.25,180.57 c 0,1.5878 -3.2872,2.875 -4.875,2.875 -1.5878,0 -2.875,-1.2872 -2.875,-2.875 0,-1.5878 3.2872,-2.875 4.875,-2.875 1.5878,0 2.875,1.2872 2.875,2.875 z" />
        <path
           style="fill:#382509;fill-rule:evenodd;stroke:#000000"
           inkscape:connector-curvature="0"
           id="path266"
           d="m 210.83,182.28 c -0.73886,1.4054 -4.2474,1.0152 -5.6529,0.27631 -1.4055,-0.73889 -1.9458,-2.4772 -1.207,-3.8826 0.7388,-1.4054 4.2474,-1.0152 5.6529,-0.27631 1.4055,0.73889 1.9458,2.4772 1.207,3.8826 z" />
        <path
           style="fill:#555753"
           inkscape:connector-curvature="0"
           id="path268"
           d="m 213.03,176.4 c 1.1923,1.1314 1.9062,2.6161 1.9062,4.25 0,1.6339 -0.71394,3.1186 -1.9062,4.25 h 9.8438 c -1.1995,-1.1314 -1.9375,-2.6161 -1.9375,-4.25 0,-1.6339 0.73802,-3.1186 1.9375,-4.25 z" />
      </g>
      <g
         id="g280"
         transform="matrix(-0.98222,-0.18772,0.18772,-0.98222,239.64,1004.145)">
        <path
           style="fill:#888a85"
           inkscape:connector-curvature="0"
           id="path272"
           d="m 206.44,176.34 h 22.624 a 4.25,4.25 0 0 1 4.25,4.25 4.25,4.25 0 0 1 -4.25,4.25 H 206.44 a 4.25,4.25 0 0 1 -4.25,-4.25 4.25,4.25 0 0 1 4.25,-4.25" />
        <path
           style="fill:#382509;fill-rule:evenodd;stroke:#000000"
           inkscape:connector-curvature="0"
           id="path274"
           d="m 231.25,180.57 c 0,1.5878 -3.2872,2.875 -4.875,2.875 -1.5878,0 -2.875,-1.2872 -2.875,-2.875 0,-1.5878 3.2872,-2.875 4.875,-2.875 1.5878,0 2.875,1.2872 2.875,2.875 z" />
        <path
           style="fill:#382509;fill-rule:evenodd;stroke:#000000"
           inkscape:connector-curvature="0"
           id="path276"
           d="m 210.83,182.28 c -0.73886,1.4054 -4.2474,1.0152 -5.6529,0.27631 -1.4055,-0.73889 -1.9458,-2.4772 -1.207,-3.8826 0.7388,-1.4054 4.2474,-1.0152 5.6529,-0.27631 1.4055,0.73889 1.9458,2.4772 1.207,3.8826 z" />
        <path
           style="fill:#555753"
           inkscape:connector-curvature="0"
           id="path278"
           d="m 213.03,176.4 c 1.1923,1.1314 1.9062,2.6161 1.9062,4.25 0,1.6339 -0.71394,3.1186 -1.9062,4.25 h 9.8438 c -1.1995,-1.1314 -1.9375,-2.6161 -1.9375,-4.25 0,-1.6339 0.73802,-3.1186 1.9375,-4.25 z" />
      </g>
      <g
         id="g290"
         transform="matrix(-0.98222,-0.18772,0.18772,-0.98222,217.14,999.14501)">
        <path
           style="fill:#888a85"
           inkscape:connector-curvature="0"
           id="path282"
           d="m 206.44,176.34 h 22.624 a 4.25,4.25 0 0 1 4.25,4.25 4.25,4.25 0 0 1 -4.25,4.25 H 206.44 a 4.25,4.25 0 0 1 -4.25,-4.25 4.25,4.25 0 0 1 4.25,-4.25" />
        <path
           style="fill:#382509;fill-rule:evenodd;stroke:#000000"
           inkscape:connector-curvature="0"
           id="path284"
           d="m 231.25,180.57 c 0,1.5878 -3.2872,2.875 -4.875,2.875 -1.5878,0 -2.875,-1.2872 -2.875,-2.875 0,-1.5878 3.2872,-2.875 4.875,-2.875 1.5878,0 2.875,1.2872 2.875,2.875 z" />
        <path
           style="fill:#382509;fill-rule:evenodd;stroke:#000000"
           inkscape:connector-curvature="0"
           id="path286"
           d="m 210.83,182.28 c -0.73886,1.4054 -4.2474,1.0152 -5.6529,0.27631 -1.4055,-0.73889 -1.9458,-2.4772 -1.207,-3.8826 0.7388,-1.4054 4.2474,-1.0152 5.6529,-0.27631 1.4055,0.73889 1.9458,2.4772 1.207,3.8826 z" />
        <path
           style="fill:#555753"
           inkscape:connector-curvature="0"
           id="path288"
           d="m 213.03,176.4 c 1.1923,1.1314 1.9062,2.6161 1.9062,4.25 0,1.6339 -0.71394,3.1186 -1.9062,4.25 h 9.8438 c -1.1995,-1.1314 -1.9375,-2.6161 -1.9375,-4.25 0,-1.6339 0.73802,-3.1186 1.9375,-4.25 z" />
      </g>
      <g
         id="g300"
         transform="matrix(-0.79366,-0.60837,0.60837,-0.79366,81.4,1047.035)">
        <path
           style="fill:#888a85"
           inkscape:connector-curvature="0"
           id="path292"
           d="m 206.44,176.34 h 22.624 a 4.25,4.25 0 0 1 4.25,4.25 4.25,4.25 0 0 1 -4.25,4.25 H 206.44 a 4.25,4.25 0 0 1 -4.25,-4.25 4.25,4.25 0 0 1 4.25,-4.25" />
        <path
           style="fill:#382509;fill-rule:evenodd;stroke:#000000"
           inkscape:connector-curvature="0"
           id="path294"
           d="m 231.25,180.57 c 0,1.5878 -3.2872,2.875 -4.875,2.875 -1.5878,0 -2.875,-1.2872 -2.875,-2.875 0,-1.5878 3.2872,-2.875 4.875,-2.875 1.5878,0 2.875,1.2872 2.875,2.875 z" />
        <path
           style="fill:#382509;fill-rule:evenodd;stroke:#000000"
           inkscape:connector-curvature="0"
           id="path296"
           d="m 210.83,182.28 c -0.73886,1.4054 -4.2474,1.0152 -5.6529,0.27631 -1.4055,-0.73889 -1.9458,-2.4772 -1.207,-3.8826 0.7388,-1.4054 4.2474,-1.0152 5.6529,-0.27631 1.4055,0.73889 1.9458,2.4772 1.207,3.8826 z" />
        <path
           style="fill:#555753"
           inkscape:connector-curvature="0"
           id="path298"
           d="m 213.03,176.4 c 1.1923,1.1314 1.9062,2.6161 1.9062,4.25 0,1.6339 -0.71394,3.1186 -1.9062,4.25 h 9.8438 c -1.1995,-1.1314 -1.9375,-2.6161 -1.9375,-4.25 0,-1.6339 0.73802,-3.1186 1.9375,-4.25 z" />
      </g>
      <g
         id="g310"
         transform="matrix(-0.08918,-0.99602,0.99602,-0.08918,-152.38,984.51501)">
        <path
           style="fill:#888a85"
           inkscape:connector-curvature="0"
           id="path302"
           d="m 206.44,176.34 h 22.624 a 4.25,4.25 0 0 1 4.25,4.25 4.25,4.25 0 0 1 -4.25,4.25 H 206.44 a 4.25,4.25 0 0 1 -4.25,-4.25 4.25,4.25 0 0 1 4.25,-4.25" />
        <path
           style="fill:#382509;fill-rule:evenodd;stroke:#000000"
           inkscape:connector-curvature="0"
           id="path304"
           d="m 231.25,180.57 c 0,1.5878 -3.2872,2.875 -4.875,2.875 -1.5878,0 -2.875,-1.2872 -2.875,-2.875 0,-1.5878 3.2872,-2.875 4.875,-2.875 1.5878,0 2.875,1.2872 2.875,2.875 z" />
        <path
           style="fill:#382509;fill-rule:evenodd;stroke:#000000"
           inkscape:connector-curvature="0"
           id="path306"
           d="m 210.83,182.28 c -0.73886,1.4054 -4.2474,1.0152 -5.6529,0.27631 -1.4055,-0.73889 -1.9458,-2.4772 -1.207,-3.8826 0.7388,-1.4054 4.2474,-1.0152 5.6529,-0.27631 1.4055,0.73889 1.9458,2.4772 1.207,3.8826 z" />
        <path
           style="fill:#555753"
           inkscape:connector-curvature="0"
           id="path308"
           d="m 213.03,176.4 c 1.1923,1.1314 1.9062,2.6161 1.9062,4.25 0,1.6339 -0.71394,3.1186 -1.9062,4.25 h 9.8438 c -1.1995,-1.1314 -1.9375,-2.6161 -1.9375,-4.25 0,-1.6339 0.73802,-3.1186 1.9375,-4.25 z" />
      </g>
      <g
         id="g320"
         transform="matrix(0.82786,-0.56094,0.56094,0.82786,-264.7,707.04501)">
        <path
           style="fill:#888a85"
           inkscape:connector-curvature="0"
           id="path312"
           d="m 206.44,176.34 h 22.624 a 4.25,4.25 0 0 1 4.25,4.25 4.25,4.25 0 0 1 -4.25,4.25 H 206.44 a 4.25,4.25 0 0 1 -4.25,-4.25 4.25,4.25 0 0 1 4.25,-4.25" />
        <path
           style="fill:#382509;fill-rule:evenodd;stroke:#000000"
           inkscape:connector-curvature="0"
           id="path314"
           d="m 231.25,180.57 c 0,1.5878 -3.2872,2.875 -4.875,2.875 -1.5878,0 -2.875,-1.2872 -2.875,-2.875 0,-1.5878 3.2872,-2.875 4.875,-2.875 1.5878,0 2.875,1.2872 2.875,2.875 z" />
        <path
           style="fill:#382509;fill-rule:evenodd;stroke:#000000"
           inkscape:connector-curvature="0"
           id="path316"
           d="m 210.83,182.28 c -0.73886,1.4054 -4.2474,1.0152 -5.6529,0.27631 -1.4055,-0.73889 -1.9458,-2.4772 -1.207,-3.8826 0.7388,-1.4054 4.2474,-1.0152 5.6529,-0.27631 1.4055,0.73889 1.9458,2.4772 1.207,3.8826 z" />
        <path
           style="fill:#555753"
           inkscape:connector-curvature="0"
           id="path318"
           d="m 213.03,176.4 c 1.1923,1.1314 1.9062,2.6161 1.9062,4.25 0,1.6339 -0.71394,3.1186 -1.9062,4.25 h 9.8438 c -1.1995,-1.1314 -1.9375,-2.6161 -1.9375,-4.25 0,-1.6339 0.73802,-3.1186 1.9375,-4.25 z" />
      </g>
      <g
         id="g330"
         transform="matrix(0.98858,0.15072,-0.15072,0.98858,-148.409,517.92501)">
        <path
           style="fill:#888a85"
           inkscape:connector-curvature="0"
           id="path322"
           d="m 206.44,176.34 h 22.624 a 4.25,4.25 0 0 1 4.25,4.25 4.25,4.25 0 0 1 -4.25,4.25 H 206.44 a 4.25,4.25 0 0 1 -4.25,-4.25 4.25,4.25 0 0 1 4.25,-4.25" />
        <path
           style="fill:#382509;fill-rule:evenodd;stroke:#000000"
           inkscape:connector-curvature="0"
           id="path324"
           d="m 231.25,180.57 c 0,1.5878 -3.2872,2.875 -4.875,2.875 -1.5878,0 -2.875,-1.2872 -2.875,-2.875 0,-1.5878 3.2872,-2.875 4.875,-2.875 1.5878,0 2.875,1.2872 2.875,2.875 z" />
        <path
           style="fill:#382509;fill-rule:evenodd;stroke:#000000"
           inkscape:connector-curvature="0"
           id="path326"
           d="m 210.83,182.28 c -0.73886,1.4054 -4.2474,1.0152 -5.6529,0.27631 -1.4055,-0.73889 -1.9458,-2.4772 -1.207,-3.8826 0.7388,-1.4054 4.2474,-1.0152 5.6529,-0.27631 1.4055,0.73889 1.9458,2.4772 1.207,3.8826 z" />
        <path
           style="fill:#555753"
           inkscape:connector-curvature="0"
           id="path328"
           d="m 213.03,176.4 c 1.1923,1.1314 1.9062,2.6161 1.9062,4.25 0,1.6339 -0.71394,3.1186 -1.9062,4.25 h 9.8438 c -1.1995,-1.1314 -1.9375,-2.6161 -1.9375,-4.25 0,-1.6339 0.73802,-3.1186 1.9375,-4.25 z" />
      </g>
      <g
         id="g340"
         transform="matrix(0.99905,-0.0436,0.0436,0.99905,-165.421,561.17501)">
        <path
           style="fill:#888a85"
           inkscape:connector-curvature="0"
           id="path332"
           d="m 206.44,176.34 h 22.624 a 4.25,4.25 0 0 1 4.25,4.25 4.25,4.25 0 0 1 -4.25,4.25 H 206.44 a 4.25,4.25 0 0 1 -4.25,-4.25 4.25,4.25 0 0 1 4.25,-4.25" />
        <path
           style="fill:#382509;fill-rule:evenodd;stroke:#000000"
           inkscape:connector-curvature="0"
           id="path334"
           d="m 231.25,180.57 c 0,1.5878 -3.2872,2.875 -4.875,2.875 -1.5878,0 -2.875,-1.2872 -2.875,-2.875 0,-1.5878 3.2872,-2.875 4.875,-2.875 1.5878,0 2.875,1.2872 2.875,2.875 z" />
        <path
           style="fill:#382509;fill-rule:evenodd;stroke:#000000"
           inkscape:connector-curvature="0"
           id="path336"
           d="m 210.83,182.28 c -0.73886,1.4054 -4.2474,1.0152 -5.6529,0.27631 -1.4055,-0.73889 -1.9458,-2.4772 -1.207,-3.8826 0.7388,-1.4054 4.2474,-1.0152 5.6529,-0.27631 1.4055,0.73889 1.9458,2.4772 1.207,3.8826 z" />
        <path
           style="fill:#555753"
           inkscape:connector-curvature="0"
           id="path338"
           d="m 213.03,176.4 c 1.1923,1.1314 1.9062,2.6161 1.9062,4.25 0,1.6339 -0.71394,3.1186 -1.9062,4.25 h 9.8438 c -1.1995,-1.1314 -1.9375,-2.6161 -1.9375,-4.25 0,-1.6339 0.73802,-3.1186 1.9375,-4.25 z" />
      </g>
      <g
         id="g350"
         transform="matrix(0.99905,-0.0436,0.0436,0.99905,-144.921,559.17501)">
        <path
           style="fill:#888a85"
           inkscape:connector-curvature="0"
           id="path342"
           d="m 206.44,176.34 h 22.624 a 4.25,4.25 0 0 1 4.25,4.25 4.25,4.25 0 0 1 -4.25,4.25 H 206.44 a 4.25,4.25 0 0 1 -4.25,-4.25 4.25,4.25 0 0 1 4.25,-4.25" />
        <path
           style="fill:#382509;fill-rule:evenodd;stroke:#000000"
           inkscape:connector-curvature="0"
           id="path344"
           d="m 231.25,180.57 c 0,1.5878 -3.2872,2.875 -4.875,2.875 -1.5878,0 -2.875,-1.2872 -2.875,-2.875 0,-1.5878 3.2872,-2.875 4.875,-2.875 1.5878,0 2.875,1.2872 2.875,2.875 z" />
        <path
           style="fill:#382509;fill-rule:evenodd;stroke:#000000"
           inkscape:connector-curvature="0"
           id="path346"
           d="m 210.83,182.28 c -0.73886,1.4054 -4.2474,1.0152 -5.6529,0.27631 -1.4055,-0.73889 -1.9458,-2.4772 -1.207,-3.8826 0.7388,-1.4054 4.2474,-1.0152 5.6529,-0.27631 1.4055,0.73889 1.9458,2.4772 1.207,3.8826 z" />
        <path
           style="fill:#555753"
           inkscape:connector-curvature="0"
           id="path348"
           d="m 213.03,176.4 c 1.1923,1.1314 1.9062,2.6161 1.9062,4.25 0,1.6339 -0.71394,3.1186 -1.9062,4.25 h 9.8438 c -1.1995,-1.1314 -1.9375,-2.6161 -1.9375,-4.25 0,-1.6339 0.73802,-3.1186 1.9375,-4.25 z" />
      </g>
      <g
         id="g360"
         transform="matrix(0.98459,0.17486,-0.17486,0.98459,-83.323,516.71501)">
        <path
           style="fill:#888a85"
           inkscape:connector-curvature="0"
           id="path352"
           d="m 206.44,176.34 h 22.624 a 4.25,4.25 0 0 1 4.25,4.25 4.25,4.25 0 0 1 -4.25,4.25 H 206.44 a 4.25,4.25 0 0 1 -4.25,-4.25 4.25,4.25 0 0 1 4.25,-4.25" />
        <path
           style="fill:#382509;fill-rule:evenodd;stroke:#000000"
           inkscape:connector-curvature="0"
           id="path354"
           d="m 231.25,180.57 c 0,1.5878 -3.2872,2.875 -4.875,2.875 -1.5878,0 -2.875,-1.2872 -2.875,-2.875 0,-1.5878 3.2872,-2.875 4.875,-2.875 1.5878,0 2.875,1.2872 2.875,2.875 z" />
        <path
           style="fill:#382509;fill-rule:evenodd;stroke:#000000"
           inkscape:connector-curvature="0"
           id="path356"
           d="m 210.83,182.28 c -0.73886,1.4054 -4.2474,1.0152 -5.6529,0.27631 -1.4055,-0.73889 -1.9458,-2.4772 -1.207,-3.8826 0.7388,-1.4054 4.2474,-1.0152 5.6529,-0.27631 1.4055,0.73889 1.9458,2.4772 1.207,3.8826 z" />
        <path
           style="fill:#555753"
           inkscape:connector-curvature="0"
           id="path358"
           d="m 213.03,176.4 c 1.1923,1.1314 1.9062,2.6161 1.9062,4.25 0,1.6339 -0.71394,3.1186 -1.9062,4.25 h 9.8438 c -1.1995,-1.1314 -1.9375,-2.6161 -1.9375,-4.25 0,-1.6339 0.73802,-3.1186 1.9375,-4.25 z" />
      </g>
      <g
         id="g370"
         transform="matrix(0.99231,-0.12377,0.12377,0.99231,-115.431,580.84501)">
        <path
           style="fill:#888a85"
           inkscape:connector-curvature="0"
           id="path362"
           d="m 206.44,176.34 h 22.624 a 4.25,4.25 0 0 1 4.25,4.25 4.25,4.25 0 0 1 -4.25,4.25 H 206.44 a 4.25,4.25 0 0 1 -4.25,-4.25 4.25,4.25 0 0 1 4.25,-4.25" />
        <path
           style="fill:#382509;fill-rule:evenodd;stroke:#000000"
           inkscape:connector-curvature="0"
           id="path364"
           d="m 231.25,180.57 c 0,1.5878 -3.2872,2.875 -4.875,2.875 -1.5878,0 -2.875,-1.2872 -2.875,-2.875 0,-1.5878 3.2872,-2.875 4.875,-2.875 1.5878,0 2.875,1.2872 2.875,2.875 z" />
        <path
           style="fill:#382509;fill-rule:evenodd;stroke:#000000"
           inkscape:connector-curvature="0"
           id="path366"
           d="m 210.83,182.28 c -0.73886,1.4054 -4.2474,1.0152 -5.6529,0.27631 -1.4055,-0.73889 -1.9458,-2.4772 -1.207,-3.8826 0.7388,-1.4054 4.2474,-1.0152 5.6529,-0.27631 1.4055,0.73889 1.9458,2.4772 1.207,3.8826 z" />
        <path
           style="fill:#555753"
           inkscape:connector-curvature="0"
           id="path368"
           d="m 213.03,176.4 c 1.1923,1.1314 1.9062,2.6161 1.9062,4.25 0,1.6339 -0.71394,3.1186 -1.9062,4.25 h 9.8438 c -1.1995,-1.1314 -1.9375,-2.6161 -1.9375,-4.25 0,-1.6339 0.73802,-3.1186 1.9375,-4.25 z" />
      </g>
      <path
         style="fill:#444643;stroke-width:0.60175425"
         inkscape:connector-curvature="0"
         id="path372"
         d="m 250.81295,738.97138 c -0.82555,6.23633 -6.55034,10.62286 -12.78691,9.79727 -6.23658,-0.82558 -10.62286,-6.55034 -9.79728,-12.78692 0.82559,-6.23657 6.55035,-10.62285 12.78692,-9.79727 6.23657,0.82559 10.62286,6.55035 9.79727,12.78692 z" />
      <path
         style="fill:#888a85;stroke-width:0.41189173"
         inkscape:connector-curvature="0"
         id="path374"
         d="m 236.4162,744.56296 c -0.34755,0.26629 -1.76632,0.45207 -2.17071,0.2842 -0.4044,-0.16787 -1.27466,-1.30362 -1.3315,-1.73776 -0.0568,-0.43414 0.49166,-1.7557 0.8392,-2.02201 0.34753,-0.26632 1.76632,-0.45208 2.17071,-0.28421 0.4044,0.16787 1.27466,1.30362 1.33149,1.73776 0.0568,0.43414 -0.49165,1.7557 -0.83919,2.02202 z" />
      <path
         style="fill:#888a85;stroke-width:0.41189173"
         inkscape:connector-curvature="0"
         id="path376"
         d="m 246.5062,734.27296 c -0.34755,0.26629 -1.76632,0.45207 -2.17071,0.2842 -0.4044,-0.16787 -1.27466,-1.30362 -1.3315,-1.73776 -0.0568,-0.43414 0.49166,-1.7557 0.8392,-2.02201 0.34753,-0.26632 1.76632,-0.45208 2.17071,-0.28421 0.4044,0.16787 1.27466,1.30362 1.33149,1.73776 0.0568,0.43414 -0.49165,1.7557 -0.83919,2.02202 z" />
      <path
         style="fill:#888a85;stroke-width:0.41189173"
         inkscape:connector-curvature="0"
         id="path378"
         d="m 233.8862,736.96296 c -0.34755,0.26629 -1.76632,0.45207 -2.17071,0.2842 -0.4044,-0.16787 -1.27466,-1.30362 -1.3315,-1.73776 -0.0568,-0.43414 0.49166,-1.7557 0.8392,-2.02201 0.34753,-0.26632 1.76632,-0.45208 2.17071,-0.28421 0.4044,0.16787 1.27466,1.30362 1.33149,1.73776 0.0568,0.43414 -0.49165,1.7557 -0.83919,2.02202 z" />
      <path
         style="fill:#888a85;stroke-width:0.41189173"
         inkscape:connector-curvature="0"
         id="path380"
         d="m 239.3962,731.46296 c -0.34755,0.26629 -1.76632,0.45207 -2.17071,0.2842 -0.4044,-0.16787 -1.27466,-1.30362 -1.3315,-1.73776 -0.0568,-0.43414 0.49166,-1.7557 0.8392,-2.02201 0.34753,-0.26632 1.76632,-0.45208 2.17071,-0.28421 0.4044,0.16787 1.27466,1.30362 1.33149,1.73776 0.0568,0.43414 -0.49165,1.7557 -0.83919,2.02202 z" />
      <path
         style="fill:#888a85;stroke-width:0.41189173"
         inkscape:connector-curvature="0"
         id="path382"
         d="m 243.7862,746.16296 c -0.34755,0.26629 -1.76632,0.45207 -2.17071,0.2842 -0.4044,-0.16787 -1.27466,-1.30362 -1.3315,-1.73776 -0.0568,-0.43414 0.49166,-1.7557 0.8392,-2.02201 0.34753,-0.26632 1.76632,-0.45208 2.17071,-0.28421 0.4044,0.16787 1.27466,1.30362 1.33149,1.73776 0.0568,0.43414 -0.49165,1.7557 -0.83919,2.02202 z" />
      <path
         style="fill:#888a85;stroke-width:0.41189173"
         inkscape:connector-curvature="0"
         id="path384"
         d="m 247.7462,740.56296 c -0.34755,0.26629 -1.76632,0.45207 -2.17071,0.2842 -0.4044,-0.16787 -1.27466,-1.30362 -1.3315,-1.73776 -0.0568,-0.43414 0.49166,-1.7557 0.8392,-2.02201 0.34753,-0.26632 1.76632,-0.45208 2.17071,-0.28421 0.4044,0.16787 1.27466,1.30362 1.33149,1.73776 0.0568,0.43414 -0.49165,1.7557 -0.83919,2.02202 z" />
      <path
         style="fill:#444643;stroke-width:0.81652236"
         inkscape:connector-curvature="0"
         id="path386"
         d="m 45.712164,753.4687 c -1.120251,8.4621 -8.888281,14.41413 -17.3507,13.29384 -8.462419,-1.12029 -14.41413,-8.88828 -13.293837,-17.3507 1.120294,-8.46242 8.888282,-14.41413 17.3507,-13.29384 8.462419,1.1203 14.414131,8.88828 13.293837,17.3507 z" />
      <path
         style="fill:#888a85;stroke-width:0.55890411"
         inkscape:connector-curvature="0"
         id="path388"
         d="m 26.178157,761.06835 c -0.471606,0.36134 -2.396762,0.6134 -2.945495,0.3856 -0.548734,-0.22779 -1.729582,-1.76893 -1.80669,-2.35803 -0.07711,-0.5891 0.66717,-2.38233 1.138757,-2.7437 0.471587,-0.36136 2.396763,-0.61339 2.945496,-0.3856 0.548733,0.2278 1.729581,1.76894 1.80669,2.35804 0.07711,0.58909 -0.667171,2.38233 -1.138758,2.74369 z" />
      <path
         style="fill:#888a85;stroke-width:0.55890411"
         inkscape:connector-curvature="0"
         id="path390"
         d="m 39.867157,747.08835 c -0.471606,0.36134 -2.396762,0.6134 -2.945495,0.3856 -0.548734,-0.22779 -1.729582,-1.76893 -1.80669,-2.35803 -0.07711,-0.5891 0.66717,-2.38233 1.138757,-2.7437 0.471587,-0.36136 2.396763,-0.61339 2.945496,-0.3856 0.548733,0.2278 1.729581,1.76894 1.80669,2.35804 0.07711,0.58909 -0.667171,2.38233 -1.138758,2.74369 z" />
      <path
         style="fill:#888a85;stroke-width:0.55890411"
         inkscape:connector-curvature="0"
         id="path392"
         d="m 22.752157,750.74835 c -0.471606,0.36134 -2.396762,0.6134 -2.945495,0.3856 -0.548734,-0.22779 -1.729582,-1.76893 -1.80669,-2.35803 -0.07711,-0.5891 0.66717,-2.38233 1.138757,-2.7437 0.471587,-0.36136 2.396763,-0.61339 2.945496,-0.3856 0.548733,0.2278 1.729581,1.76894 1.80669,2.35804 0.07711,0.58909 -0.667171,2.38233 -1.138758,2.74369 z" />
      <path
         style="fill:#888a85;stroke-width:0.55890411"
         inkscape:connector-curvature="0"
         id="path394"
         d="m 30.224157,743.27835 c -0.471606,0.36134 -2.396762,0.6134 -2.945495,0.3856 -0.548734,-0.22779 -1.729582,-1.76893 -1.80669,-2.35803 -0.07711,-0.5891 0.66717,-2.38233 1.138757,-2.7437 0.471587,-0.36136 2.396763,-0.61339 2.945496,-0.3856 0.548733,0.2278 1.729581,1.76894 1.80669,2.35804 0.07711,0.58909 -0.667171,2.38233 -1.138758,2.74369 z" />
      <path
         style="fill:#888a85;stroke-width:0.55890411"
         inkscape:connector-curvature="0"
         id="path396"
         d="m 36.180157,763.23835 c -0.471606,0.36134 -2.396762,0.6134 -2.945495,0.3856 -0.548734,-0.22779 -1.729582,-1.76893 -1.80669,-2.35803 -0.07711,-0.5891 0.66717,-2.38233 1.138757,-2.7437 0.471587,-0.36136 2.396763,-0.61339 2.945496,-0.3856 0.548733,0.2278 1.729581,1.76894 1.80669,2.35804 0.07711,0.58909 -0.667171,2.38233 -1.138758,2.74369 z" />
      <path
         style="fill:#888a85;stroke-width:0.55890411"
         inkscape:connector-curvature="0"
         id="path398"
         d="m 41.556157,755.62835 c -0.471606,0.36134 -2.396762,0.6134 -2.945495,0.3856 -0.548734,-0.22779 -1.729582,-1.76893 -1.80669,-2.35803 -0.07711,-0.5891 0.66717,-2.38233 1.138757,-2.7437 0.471587,-0.36136 2.396763,-0.61339 2.945496,-0.3856 0.548733,0.2278 1.729581,1.76894 1.80669,2.35804 0.07711,0.58909 -0.667171,2.38233 -1.138758,2.74369 z" />
      <path
         style="fill:#73d216"
         inkscape:connector-curvature="0"
         id="path400"
         d="m 21.63,716.61501 15.774,1.2071 c 0,0 2.3897,-24.535 14.991,-30.422 -15.441,-7.1066 -30.765,29.215 -30.765,29.215 z" />
    </g>
  </g>
  <g
     id="g366"
     transform="matrix(-2.5509257e-5,0.0954418,-0.04989515,-4.8795312e-5,1136.1508,291.97574)"
     inkscape:export-xdpi="60.869999"
     inkscape:export-ydpi="60.869999">
    <path
       inkscape:connector-curvature="0"
       style="opacity:0.5;fill:url(#i-0)"
       id="path356-8"
       d="m 739.12,-90.969 c -17.459,0 -31.625,27.226 -31.625,60.812 0,4.578 0.28283,9.0236 0.78125,13.312 v 142.91 h -4 v 13.844 h 70.844 v -13.844 h -3.625 v -158.88 h -0.8125 c -0.7245,-32.351 -14.568,-58.156 -31.562,-58.156 z" />
    <path
       inkscape:connector-curvature="0"
       style="fill:url(#radialGradient422)"
       id="path358-0"
       d="m 742.12,-92.969 c -17.459,0 -31.625,27.226 -31.625,60.812 0,4.578 0.28283,9.0236 0.78125,13.312 v -15.969 h 62.406 c -0.7245,-32.351 -14.568,-58.156 -31.562,-58.156 z" />
    <path
       inkscape:connector-curvature="0"
       style="fill:url(#h-8)"
       id="path360"
       d="m 711.29,-34.801 h 63.223 v 172.71 H 711.29 Z" />
    <path
       inkscape:connector-curvature="0"
       style="fill:url(#linearGradient424)"
       id="path362-4"
       d="m 711.28,122.06 v 13.844 h 63.219 V 122.06 Z" />
    <path
       inkscape:connector-curvature="0"
       style="fill:url(#linearGradient426)"
       id="path364-0"
       d="m 707.29,124.05 h 70.821 v 13.856 H 707.29 Z" />
  </g>
</svg>
