<?xml version="1.0" encoding="UTF-8" standalone="no"?>
<svg
   xmlns:dc="http://purl.org/dc/elements/1.1/"
   xmlns:cc="http://creativecommons.org/ns#"
   xmlns:rdf="http://www.w3.org/1999/02/22-rdf-syntax-ns#"
   xmlns:svg="http://www.w3.org/2000/svg"
   xmlns="http://www.w3.org/2000/svg"
   xmlns:xlink="http://www.w3.org/1999/xlink"
   xmlns:sodipodi="http://sodipodi.sourceforge.net/DTD/sodipodi-0.dtd"
   xmlns:inkscape="http://www.inkscape.org/namespaces/inkscape"
   viewBox="0 0 315.41678 181.35577"
   version="1.1"
   id="svg404"
   sodipodi:docname="tank.svg"
   inkscape:version="0.92.2 (5c3e80d, 2017-08-06)"
   inkscape:export-filename="C:\Poulad\Workspace\Unity\Tank Mania\Assets\Artworks\tank.png"
   inkscape:export-xdpi="60.869999"
   inkscape:export-ydpi="60.869999">
  <metadata
     id="metadata410">
    <rdf:RDF>
      <cc:Work
         rdf:about="">
        <dc:format>image/svg+xml</dc:format>
        <dc:type
           rdf:resource="http://purl.org/dc/dcmitype/StillImage" />
      </cc:Work>
    </rdf:RDF>
  </metadata>
  <defs
     id="defs408">
    <linearGradient
       id="i"
       x1="756.53998"
       x2="643.40002"
       y1="-0.57034999"
       y2="19.025"
       gradientUnits="userSpaceOnUse"
       xlink:href="#d" />
    <linearGradient
       id="d">
      <stop
         offset="0"
         id="stop2" />
      <stop
         stop-opacity="0"
         offset="1"
         id="stop4" />
    </linearGradient>
    <radialGradient
       inkscape:collect="always"
       xlink:href="#e"
       id="radialGradient422"
       gradientUnits="userSpaceOnUse"
       gradientTransform="matrix(0.68348,-4.5287e-8,1.0919e-7,1.6479,234.89,29.34)"
       cx="742.09003"
       cy="-41.415001"
       r="31.594" />
    <radialGradient
       id="e"
       cx="742.09003"
       cy="-41.415001"
       r="31.594"
       gradientTransform="matrix(0.68348,-4.5287e-8,1.0919e-7,1.6479,234.89,29.34)"
       gradientUnits="userSpaceOnUse">
      <stop
         stop-color="#808080"
         offset="0"
         id="stop207" />
      <stop
         stop-color="#666"
         offset="1"
         id="stop209" />
    </radialGradient>
    <linearGradient
       id="h"
       x1="731.28998"
       x2="801.52002"
       gradientUnits="userSpaceOnUse"
       xlink:href="#j"
       spreadMethod="reflect" />
    <linearGradient
       id="j">
      <stop
         stop-color="#f1e6d2"
         offset="0"
         id="stop7" />
      <stop
         stop-color="#c8ab37"
         offset=".5"
         id="stop9" />
      <stop
         stop-color="#d1ad83"
         offset="1"
         id="stop11" />
    </linearGradient>
    <linearGradient
       inkscape:collect="always"
       xlink:href="#g"
       id="linearGradient424"
       gradientUnits="userSpaceOnUse"
       x1="741.76001"
       y1="134.42999"
       x2="741.29999"
       y2="117.01" />
    <linearGradient
       id="g"
       x1="741.76001"
       x2="741.29999"
       y1="134.42999"
       y2="117.01"
       gradientUnits="userSpaceOnUse">
      <stop
         stop-color="#333"
         offset="0"
         id="stop131" />
      <stop
         stop-color="#333"
         stop-opacity="0"
         offset="1"
         id="stop133" />
    </linearGradient>
    <linearGradient
       inkscape:collect="always"
       xlink:href="#f"
       id="linearGradient426"
       gradientUnits="userSpaceOnUse"
       x1="724.28998"
       x2="791.10999"
       spreadMethod="reflect" />
    <linearGradient
       id="f"
       x1="724.28998"
       x2="791.10999"
       gradientUnits="userSpaceOnUse"
       spreadMethod="reflect">
      <stop
         stop-color="#f1e6d2"
         offset="0"
         id="stop136" />
      <stop
         stop-color="#c8ab37"
         offset=".43134"
         id="stop138" />
      <stop
         stop-color="#d1ad83"
         offset="1"
         id="stop140" />
    </linearGradient>
    <radialGradient
       id="radialGradient549"
       cx="742.09003"
       cy="-41.415001"
       r="31.594"
       gradientTransform="matrix(0.68348,-4.5287e-8,1.0919e-7,1.6479,234.89,29.34)"
       gradientUnits="userSpaceOnUse">
      <stop
         stop-color="#808080"
         offset="0"
         id="stop545" />
      <stop
         stop-color="#666"
         offset="1"
         id="stop547" />
    </radialGradient>
    <linearGradient
       id="linearGradient574"
       x1="724.28998"
       x2="791.10999"
       gradientUnits="userSpaceOnUse"
       spreadMethod="reflect">
      <stop
         stop-color="#f1e6d2"
         offset="0"
         id="stop568" />
      <stop
         stop-color="#c8ab37"
         offset=".43134"
         id="stop570" />
      <stop
         stop-color="#d1ad83"
         offset="1"
         id="stop572" />
    </linearGradient>
    <radialGradient
       id="radialGradient588"
       cx="742.09003"
       cy="-41.415001"
       r="31.594"
       gradientTransform="matrix(0.68348,-4.5287e-8,1.0919e-7,1.6479,234.89,29.34)"
       gradientUnits="userSpaceOnUse">
      <stop
         stop-color="#808080"
         offset="0"
         id="stop584" />
      <stop
         stop-color="#666"
         offset="1"
         id="stop586" />
    </radialGradient>
    <linearGradient
       id="linearGradient613"
       x1="724.28998"
       x2="791.10999"
       gradientUnits="userSpaceOnUse"
       spreadMethod="reflect">
      <stop
         stop-color="#f1e6d2"
         offset="0"
         id="stop607" />
      <stop
         stop-color="#c8ab37"
         offset=".43134"
         id="stop609" />
      <stop
         stop-color="#d1ad83"
         offset="1"
         id="stop611" />
    </linearGradient>
    <radialGradient
       id="t"
       cx="173.33"
       cy="299.76999"
       r="33.969002"
       gradientUnits="userSpaceOnUse"
       xlink:href="#d"
       gradientTransform="translate(90.953167,-415.18409)" />
  </defs>
  <sodipodi:namedview
     pagecolor="#ffffff"
     bordercolor="#666666"
     borderopacity="1"
     objecttolerance="10"
     gridtolerance="10"
     guidetolerance="10"
     inkscape:pageopacity="0"
     inkscape:pageshadow="2"
     inkscape:window-width="1858"
     inkscape:window-height="1057"
     id="namedview406"
     showgrid="false"
     inkscape:zoom="2.0000001"
     inkscape:cx="218.85108"
     inkscape:cy="110.7883"
     inkscape:window-x="54"
     inkscape:window-y="-8"
     inkscape:window-maximized="1"
     inkscape:current-layer="svg404"
     showguides="false">
    <inkscape:grid
       type="xygrid"
       id="grid369" />
  </sodipodi:namedview>
  <path
     style="fill:#2e5b04"
     inkscape:connector-curvature="0"
     id="path2"
     d="m 31.02,156.03 c -6.4047,-5.3371 -1.7946,-25.684 -13.165,-52.044 l 236.28,0.35355 c -16.604,10.842 -30.318,36.915 -58.818,47.915 l -64.755,0.6519 c -35.605,0.36038 -70.513,0.78168 -77.612,0.90541 l -21.929,2.2173 z"
     inkscape:export-filename="D:\workspace\school\COMP305\Tank-Mania\Assets\Sprites\tank.png"
     inkscape:export-xdpi="60.869999"
     inkscape:export-ydpi="60.869999" />
  <path
     style="fill:#444643;stroke-width:1.46095908"
     inkscape:connector-curvature="0"
     id="path4"
     d="m 225.6159,153.96748 c -6.34767,13.89128 -22.75474,20.00708 -36.64655,13.65917 -13.8918,-6.34792 -20.00708,-22.75474 -13.65916,-36.64655 6.34791,-13.8918 22.75473,-20.00708 36.64654,-13.65916 13.89181,6.34791 20.00708,22.75473 13.65917,36.64654 z"
     inkscape:export-filename="D:\workspace\school\COMP305\Tank-Mania\Assets\Sprites\tank.png"
     inkscape:export-xdpi="60.869999"
     inkscape:export-ydpi="60.869999" />
  <path
     style="fill:#888a85;stroke-width:1.00000155"
     inkscape:connector-curvature="0"
     id="path6"
     d="m 188.21829,156.72689 c -0.99607,0.37126 -4.42177,-0.20557 -5.24131,-0.88263 -0.81954,-0.67707 -2.03284,-3.9321 -1.8563,-4.98035 0.17655,-1.04826 2.38891,-3.72654 3.38496,-4.09785 0.99605,-0.37132 4.42177,0.20556 5.2413,0.88263 0.81954,0.67706 2.03285,3.93209 1.8563,4.98034 -0.17654,1.04826 -2.3889,3.72654 -3.38495,4.09786 z"
     inkscape:export-filename="D:\workspace\school\COMP305\Tank-Mania\Assets\Sprites\tank.png"
     inkscape:export-xdpi="60.869999"
     inkscape:export-ydpi="60.869999" />
  <path
     style="fill:#888a85;stroke-width:1.00000155"
     inkscape:connector-curvature="0"
     id="path8"
     d="m 218.94829,139.98789 c -0.99607,0.37126 -4.42177,-0.20557 -5.24131,-0.88263 -0.81954,-0.67707 -2.03284,-3.9321 -1.8563,-4.98035 0.17655,-1.04826 2.38891,-3.72654 3.38496,-4.09785 0.99605,-0.37132 4.42177,0.20556 5.2413,0.88263 0.81954,0.67706 2.03285,3.93209 1.8563,4.98034 -0.17654,1.04826 -2.3889,3.72654 -3.38495,4.09786 z"
     inkscape:export-filename="D:\workspace\school\COMP305\Tank-Mania\Assets\Sprites\tank.png"
     inkscape:export-xdpi="60.869999"
     inkscape:export-ydpi="60.869999" />
  <path
     style="fill:#888a85;stroke-width:1.00000155"
     inkscape:connector-curvature="0"
     id="path10"
     d="m 187.75829,137.27689 c -0.99607,0.37126 -4.42177,-0.20557 -5.24131,-0.88263 -0.81954,-0.67707 -2.03284,-3.9321 -1.8563,-4.98035 0.17655,-1.04826 2.38891,-3.72654 3.38496,-4.09785 0.99605,-0.37132 4.42177,0.20556 5.2413,0.88263 0.81954,0.67706 2.03285,3.93209 1.8563,4.98034 -0.17654,1.04826 -2.3889,3.72654 -3.38495,4.09786 z"
     inkscape:export-filename="D:\workspace\school\COMP305\Tank-Mania\Assets\Sprites\tank.png"
     inkscape:export-xdpi="60.869999"
     inkscape:export-ydpi="60.869999" />
  <path
     style="fill:#888a85;stroke-width:1.00000155"
     inkscape:connector-curvature="0"
     id="path12"
     d="m 204.44829,128.41389 c -0.99607,0.37126 -4.42177,-0.20557 -5.24131,-0.88263 -0.81954,-0.67707 -2.03284,-3.9321 -1.8563,-4.98035 0.17655,-1.04826 2.38891,-3.72654 3.38496,-4.09785 0.99605,-0.37132 4.42177,0.20556 5.2413,0.88263 0.81954,0.67706 2.03285,3.93209 1.8563,4.98034 -0.17654,1.04826 -2.3889,3.72654 -3.38495,4.09786 z"
     inkscape:export-filename="D:\workspace\school\COMP305\Tank-Mania\Assets\Sprites\tank.png"
     inkscape:export-xdpi="60.869999"
     inkscape:export-ydpi="60.869999" />
  <path
     style="fill:#888a85;stroke-width:1.00000155"
     inkscape:connector-curvature="0"
     id="path14"
     d="m 204.18829,165.68089 c -0.99607,0.37126 -4.42177,-0.20557 -5.24131,-0.88263 -0.81954,-0.67707 -2.03284,-3.9321 -1.8563,-4.98035 0.17655,-1.04826 2.38891,-3.72654 3.38496,-4.09785 0.99605,-0.37132 4.42177,0.20556 5.2413,0.88263 0.81954,0.67706 2.03285,3.93209 1.8563,4.98034 -0.17654,1.04826 -2.3889,3.72654 -3.38495,4.09786 z"
     inkscape:export-filename="D:\workspace\school\COMP305\Tank-Mania\Assets\Sprites\tank.png"
     inkscape:export-xdpi="60.869999"
     inkscape:export-ydpi="60.869999" />
  <path
     style="fill:#888a85;stroke-width:1.00000155"
     inkscape:connector-curvature="0"
     id="path16"
     d="m 217.36829,155.48189 c -0.99607,0.37126 -4.42177,-0.20557 -5.24131,-0.88263 -0.81954,-0.67707 -2.03284,-3.9321 -1.8563,-4.98035 0.17655,-1.04826 2.38891,-3.72654 3.38496,-4.09785 0.99605,-0.37132 4.42177,0.20556 5.2413,0.88263 0.81954,0.67706 2.03285,3.93209 1.8563,4.98034 -0.17654,1.04826 -2.3889,3.72654 -3.38495,4.09786 z"
     inkscape:export-filename="D:\workspace\school\COMP305\Tank-Mania\Assets\Sprites\tank.png"
     inkscape:export-xdpi="60.869999"
     inkscape:export-ydpi="60.869999" />
  <path
     style="opacity:0.68980001;fill:#2e3436"
     inkscape:connector-curvature="0"
     id="path18"
     d="m 195.47,115.49 c -10.619,1.7548 -18.816,9.3405 -21.86,18.942 l 48.653,-8.0397 c -5.9719,-8.112 -16.173,-12.658 -26.792,-10.903 z"
     inkscape:export-filename="D:\workspace\school\COMP305\Tank-Mania\Assets\Sprites\tank.png"
     inkscape:export-xdpi="60.869999"
     inkscape:export-ydpi="60.869999" />
  <path
     style="fill:#444643;stroke-width:1.46099997"
     inkscape:connector-curvature="0"
     id="path20"
     d="m 167.12966,148.48661 c 0,15.27329 -12.38139,27.65527 -27.65527,27.65527 -15.27388,0 -27.65527,-12.38139 -27.65527,-27.65527 0,-15.27388 12.38139,-27.65527 27.65527,-27.65527 15.27388,0 27.65527,12.38139 27.65527,27.65527 z"
     inkscape:export-filename="D:\workspace\school\COMP305\Tank-Mania\Assets\Sprites\tank.png"
     inkscape:export-xdpi="60.869999"
     inkscape:export-ydpi="60.869999" />
  <path
     style="fill:#888a85"
     inkscape:connector-curvature="0"
     id="path22"
     d="m 134.25,166.53 c -0.75166,0.75166 -4.1072,1.6508 -5.134,1.3756 -1.0268,-0.2752 -3.4832,-2.7315 -3.7583,-3.7583 -0.2751,-1.0268 0.62398,-4.3823 1.3756,-5.134 0.75162,-0.7517 4.1072,-1.6508 5.134,-1.3756 1.0268,0.2752 3.4832,2.7315 3.7583,3.7583 0.2751,1.0268 -0.62398,4.3823 -1.3756,5.134 z"
     inkscape:export-filename="D:\workspace\school\COMP305\Tank-Mania\Assets\Sprites\tank.png"
     inkscape:export-xdpi="60.869999"
     inkscape:export-ydpi="60.869999" />
  <path
     style="fill:#888a85"
     inkscape:connector-curvature="0"
     id="path24"
     d="m 155.25,138.53 c -0.75166,0.75166 -4.1072,1.6508 -5.134,1.3756 -1.0268,-0.2752 -3.4832,-2.7315 -3.7583,-3.7583 -0.2751,-1.0268 0.62398,-4.3823 1.3756,-5.134 0.75162,-0.7517 4.1072,-1.6508 5.134,-1.3756 1.0268,0.2752 3.4832,2.7315 3.7583,3.7583 0.2751,1.0268 -0.62398,4.3823 -1.3756,5.134 z"
     inkscape:export-filename="D:\workspace\school\COMP305\Tank-Mania\Assets\Sprites\tank.png"
     inkscape:export-xdpi="60.869999"
     inkscape:export-ydpi="60.869999" />
  <path
     style="fill:#888a85"
     inkscape:connector-curvature="0"
     id="path26"
     d="m 125.75,149.03 c -0.75166,0.75166 -4.1072,1.6508 -5.134,1.3756 -1.0268,-0.2752 -3.4832,-2.7315 -3.7583,-3.7583 -0.2751,-1.0268 0.62398,-4.3823 1.3756,-5.134 0.75162,-0.7517 4.1072,-1.6508 5.134,-1.3756 1.0268,0.2752 3.4832,2.7315 3.7583,3.7583 0.2751,1.0268 -0.62398,4.3823 -1.3756,5.134 z"
     inkscape:export-filename="D:\workspace\school\COMP305\Tank-Mania\Assets\Sprites\tank.png"
     inkscape:export-xdpi="60.869999"
     inkscape:export-ydpi="60.869999" />
  <path
     style="fill:#888a85"
     inkscape:connector-curvature="0"
     id="path28"
     d="m 137.25,134.03 c -0.75166,0.75166 -4.1072,1.6508 -5.134,1.3756 -1.0268,-0.2752 -3.4832,-2.7315 -3.7583,-3.7583 -0.2751,-1.0268 0.62398,-4.3823 1.3756,-5.134 0.75162,-0.7517 4.1072,-1.6508 5.134,-1.3756 1.0268,0.2752 3.4832,2.7315 3.7583,3.7583 0.2751,1.0268 -0.62398,4.3823 -1.3756,5.134 z"
     inkscape:export-filename="D:\workspace\school\COMP305\Tank-Mania\Assets\Sprites\tank.png"
     inkscape:export-xdpi="60.869999"
     inkscape:export-ydpi="60.869999" />
  <path
     style="fill:#888a85"
     inkscape:connector-curvature="0"
     id="path30"
     d="m 152.5,168.03 c -0.75166,0.75166 -4.1072,1.6508 -5.134,1.3756 -1.0268,-0.2752 -3.4832,-2.7315 -3.7583,-3.7583 -0.2751,-1.0268 0.62398,-4.3823 1.3756,-5.134 0.75162,-0.7517 4.1072,-1.6508 5.134,-1.3756 1.0268,0.2752 3.4832,2.7315 3.7583,3.7583 0.2751,1.0268 -0.62398,4.3823 -1.3756,5.134 z"
     inkscape:export-filename="D:\workspace\school\COMP305\Tank-Mania\Assets\Sprites\tank.png"
     inkscape:export-xdpi="60.869999"
     inkscape:export-ydpi="60.869999" />
  <path
     style="fill:#888a85"
     inkscape:connector-curvature="0"
     id="path32"
     d="m 160.25,153.28 c -0.75166,0.75166 -4.1072,1.6508 -5.134,1.3756 -1.0268,-0.2752 -3.4832,-2.7315 -3.7583,-3.7583 -0.2751,-1.0268 0.62398,-4.3823 1.3756,-5.134 0.75162,-0.7517 4.1072,-1.6508 5.134,-1.3756 1.0268,0.2752 3.4832,2.7315 3.7583,3.7583 0.2751,1.0268 -0.62398,4.3823 -1.3756,5.134 z"
     inkscape:export-filename="D:\workspace\school\COMP305\Tank-Mania\Assets\Sprites\tank.png"
     inkscape:export-xdpi="60.869999"
     inkscape:export-ydpi="60.869999" />
  <path
     style="opacity:0.68980001;fill:#2e3436"
     inkscape:connector-curvature="0"
     id="path34"
     d="m 134.47,121.49 c -10.619,1.7548 -18.816,9.3405 -21.86,18.942 l 48.653,-8.0397 c -5.9719,-8.112 -16.173,-12.658 -26.792,-10.903 z"
     inkscape:export-filename="D:\workspace\school\COMP305\Tank-Mania\Assets\Sprites\tank.png"
     inkscape:export-xdpi="60.869999"
     inkscape:export-ydpi="60.869999" />
  <path
     style="fill:#444643;stroke-width:1.46099997"
     inkscape:connector-curvature="0"
     id="path36"
     d="m 107.13646,147.07661 c 0,15.27329 -12.381391,27.65527 -27.655269,27.65527 -15.273878,0 -27.655269,-12.38139 -27.655269,-27.65527 0,-15.27388 12.381391,-27.65527 27.655269,-27.65527 15.273878,0 27.655269,12.38139 27.655269,27.65527 z"
     inkscape:export-filename="D:\workspace\school\COMP305\Tank-Mania\Assets\Sprites\tank.png"
     inkscape:export-xdpi="60.869999"
     inkscape:export-ydpi="60.869999" />
  <path
     style="fill:#888a85"
     inkscape:connector-curvature="0"
     id="path38"
     d="m 74.257,165.11 c -0.75166,0.75166 -4.1072,1.6508 -5.134,1.3756 -1.0268,-0.2752 -3.4832,-2.7315 -3.7583,-3.7583 -0.2751,-1.0268 0.62398,-4.3823 1.3756,-5.134 0.75162,-0.7517 4.1072,-1.6508 5.134,-1.3756 1.0268,0.2752 3.4832,2.7315 3.7583,3.7583 0.2751,1.0268 -0.62398,4.3823 -1.3756,5.134 z"
     inkscape:export-filename="D:\workspace\school\COMP305\Tank-Mania\Assets\Sprites\tank.png"
     inkscape:export-xdpi="60.869999"
     inkscape:export-ydpi="60.869999" />
  <path
     style="fill:#888a85"
     inkscape:connector-curvature="0"
     id="path40"
     d="m 95.257,137.11 c -0.75166,0.75166 -4.1072,1.6508 -5.134,1.3756 -1.0268,-0.2752 -3.4832,-2.7315 -3.7583,-3.7583 -0.2751,-1.0268 0.62398,-4.3823 1.3756,-5.134 0.75162,-0.7517 4.1072,-1.6508 5.134,-1.3756 1.0268,0.2752 3.4832,2.7315 3.7583,3.7583 0.2751,1.0268 -0.62398,4.3823 -1.3756,5.134 z"
     inkscape:export-filename="D:\workspace\school\COMP305\Tank-Mania\Assets\Sprites\tank.png"
     inkscape:export-xdpi="60.869999"
     inkscape:export-ydpi="60.869999" />
  <path
     style="fill:#888a85"
     inkscape:connector-curvature="0"
     id="path42"
     d="m 65.7573,147.61 c -0.75166,0.75166 -4.1072,1.6508 -5.134,1.3756 -1.0268,-0.2752 -3.4832,-2.7315 -3.7583,-3.7583 -0.2751,-1.0268 0.62398,-4.3823 1.3756,-5.134 0.75162,-0.7517 4.1072,-1.6508 5.134,-1.3756 1.0268,0.2752 3.4832,2.7315 3.7583,3.7583 0.2751,1.0268 -0.62398,4.3823 -1.3756,5.134 z"
     inkscape:export-filename="D:\workspace\school\COMP305\Tank-Mania\Assets\Sprites\tank.png"
     inkscape:export-xdpi="60.869999"
     inkscape:export-ydpi="60.869999" />
  <path
     style="fill:#888a85"
     inkscape:connector-curvature="0"
     id="path44"
     d="m 77.257,132.61 c -0.75166,0.75166 -4.1072,1.6508 -5.134,1.3756 -1.0268,-0.2752 -3.4832,-2.7315 -3.7583,-3.7583 -0.2751,-1.0268 0.62398,-4.3823 1.3756,-5.134 0.75162,-0.7517 4.1072,-1.6508 5.134,-1.3756 1.0268,0.2752 3.4832,2.7315 3.7583,3.7583 0.2751,1.0268 -0.62398,4.3823 -1.3756,5.134 z"
     inkscape:export-filename="D:\workspace\school\COMP305\Tank-Mania\Assets\Sprites\tank.png"
     inkscape:export-xdpi="60.869999"
     inkscape:export-ydpi="60.869999" />
  <path
     style="fill:#888a85"
     inkscape:connector-curvature="0"
     id="path46"
     d="m 92.507,166.61 c -0.75166,0.75166 -4.1072,1.6508 -5.134,1.3756 -1.0268,-0.2752 -3.4832,-2.7315 -3.7583,-3.7583 -0.2751,-1.0268 0.62398,-4.3823 1.3756,-5.134 0.75162,-0.7517 4.1072,-1.6508 5.134,-1.3756 1.0268,0.2752 3.4832,2.7315 3.7583,3.7583 0.2751,1.0268 -0.62398,4.3823 -1.3756,5.134 z"
     inkscape:export-filename="D:\workspace\school\COMP305\Tank-Mania\Assets\Sprites\tank.png"
     inkscape:export-xdpi="60.869999"
     inkscape:export-ydpi="60.869999" />
  <path
     style="fill:#888a85"
     inkscape:connector-curvature="0"
     id="path48"
     d="m 100.257,151.86 c -0.75166,0.75166 -4.1072,1.6508 -5.134,1.3756 -1.0268,-0.2752 -3.4832,-2.7315 -3.7583,-3.7583 -0.2751,-1.0268 0.62398,-4.3823 1.3756,-5.134 0.75162,-0.7517 4.1072,-1.6508 5.134,-1.3756 1.0268,0.2752 3.4832,2.7315 3.7583,3.7583 0.2751,1.0268 -0.62398,4.3823 -1.3756,5.134 z"
     inkscape:export-filename="D:\workspace\school\COMP305\Tank-Mania\Assets\Sprites\tank.png"
     inkscape:export-xdpi="60.869999"
     inkscape:export-ydpi="60.869999" />
  <path
     style="fill:#2e5b04"
     inkscape:connector-curvature="0"
     id="path50"
     d="m 58,63.356 h 115 v 13 H 58 Z"
     inkscape:export-filename="D:\workspace\school\COMP305\Tank-Mania\Assets\Sprites\tank.png"
     inkscape:export-xdpi="60.869999"
     inkscape:export-ydpi="60.869999" />
  <path
     style="fill:#4e9a06"
     inkscape:connector-curvature="0"
     id="path52"
     d="M 114.52,0 C 103.657,0 101.261,0.2994 95.253,2.4265 85.8784,5.7455 77.227,9.5491 71.097,16.5875 58.91,30.5785 49.802,68.0155 49.802,68.0155 l 9.4525,0.32595 c 5.1964,0.17257 34.318,0.39716 64.719,0.50703 l 55.267,0.2173 -0.57946,-8.8368 c -0.29241,-4.4515 -0.90216,-8.481 -1.8833,-12.35 l 110.86,3.1856 8.0892,7.7655 19.689,-6.9673 v -29.118 l -18.493,-7.5839 -10.455,8.4114 -119.29,3.4098 c -7.6698,-10.983 -19.294,-19.564 -33.392,-24.555 -6.008,-2.1271 -8.4044,-2.4265 -19.267,-2.4265 z"
     inkscape:export-filename="D:\workspace\school\COMP305\Tank-Mania\Assets\Sprites\tank.png"
     inkscape:export-xdpi="60.869999"
     inkscape:export-ydpi="60.869999" />
  <path
     style="fill:#4e9a06"
     inkscape:connector-curvature="0"
     id="path54"
     d="m 38.52,70.99 c -6.4047,5.3371 -11.795,13.184 -23.165,39.544 l 238.94,-5.5 C 237.691,94.192 222.316,83.765 193.816,72.765 L 129.061,72.1131 C 93.456,71.75272 58.548,71.33142 51.449,71.20769 L 38.52,70.99039 Z"
     inkscape:export-filename="D:\workspace\school\COMP305\Tank-Mania\Assets\Sprites\tank.png"
     inkscape:export-xdpi="60.869999"
     inkscape:export-ydpi="60.869999" />
  <path
     style="opacity:0.68980001;fill:#2e3436"
     inkscape:connector-curvature="0"
     id="path56"
     d="m 79.25,119.97 c -10.763,0 -20.087,6.1479 -24.656,15.125 h 49.312 C 99.3366,126.1179 90.013,119.97 79.25,119.97 Z"
     inkscape:export-filename="D:\workspace\school\COMP305\Tank-Mania\Assets\Sprites\tank.png"
     inkscape:export-xdpi="60.869999"
     inkscape:export-ydpi="60.869999" />
  <g
     style="fill:#444643"
     id="g84"
     transform="translate(-104.19,-215.98)"
     inkscape:export-filename="D:\workspace\school\COMP305\Tank-Mania\Assets\Sprites\tank.png"
     inkscape:export-xdpi="60.869999"
     inkscape:export-ydpi="60.869999">
    <path
       inkscape:connector-curvature="0"
       id="path58"
       d="m 187.86,462.01 c 0,10.454 -8.4746,18.929 -18.929,18.929 -10.4544,0 -18.929,-8.4746 -18.929,-18.929 0,-10.4544 8.4746,-18.929 18.929,-18.929 10.4544,0 18.929,8.4746 18.929,18.929 z"
       transform="matrix(0.8983,0,0,0.8983,-18.459,-61.462)" />
    <g
       id="g64"
       transform="matrix(0.58491,0,0,0.58491,-10.847,61.865)">
      <path
         inkscape:connector-curvature="0"
         id="path60"
         d="m 246.43,461.22 a 6.0104,6.0104 0 0 1 6.0104,6.0104 v 12.021 a 6.0104,6.0104 0 0 1 -6.0104,6.0104 6.0104,6.0104 0 0 1 -6.0104,-6.0104 v -12.021 A 6.0104,6.0104 0 0 1 246.43,461.22" />
      <path
         inkscape:connector-curvature="0"
         id="path62"
         d="m 246.43,512.13 a 6.0104,6.0104 0 0 1 6.0104,6.0104 v 12.021 a 6.0104,6.0104 0 0 1 -6.0104,6.0104 6.0104,6.0104 0 0 1 -6.0104,-6.0104 v -12.021 A 6.0104,6.0104 0 0 1 246.43,512.13" />
    </g>
    <g
       id="g70"
       transform="matrix(0.41359,-0.41359,0.41359,0.41359,-174.89,249.22)">
      <path
         inkscape:connector-curvature="0"
         id="path66"
         d="m 246.43,461.22 a 6.0104,6.0104 0 0 1 6.0104,6.0104 v 12.021 a 6.0104,6.0104 0 0 1 -6.0104,6.0104 6.0104,6.0104 0 0 1 -6.0104,-6.0104 v -12.021 A 6.0104,6.0104 0 0 1 246.43,461.22" />
      <path
         inkscape:connector-curvature="0"
         id="path68"
         d="m 246.43,512.13 a 6.0104,6.0104 0 0 1 6.0104,6.0104 v 12.021 a 6.0104,6.0104 0 0 1 -6.0104,6.0104 6.0104,6.0104 0 0 1 -6.0104,-6.0104 v -12.021 A 6.0104,6.0104 0 0 1 246.43,512.13" />
    </g>
    <g
       id="g76"
       transform="matrix(0,-0.58491,0.58491,0,-158.4,497.69)">
      <path
         inkscape:connector-curvature="0"
         id="path72"
         d="m 246.43,461.22 a 6.0104,6.0104 0 0 1 6.0104,6.0104 v 12.021 a 6.0104,6.0104 0 0 1 -6.0104,6.0104 6.0104,6.0104 0 0 1 -6.0104,-6.0104 v -12.021 A 6.0104,6.0104 0 0 1 246.43,461.22" />
      <path
         inkscape:connector-curvature="0"
         id="path74"
         d="m 246.43,512.13 a 6.0104,6.0104 0 0 1 6.0104,6.0104 v 12.021 a 6.0104,6.0104 0 0 1 -6.0104,6.0104 6.0104,6.0104 0 0 1 -6.0104,-6.0104 v -12.021 A 6.0104,6.0104 0 0 1 246.43,512.13" />
    </g>
    <g
       id="g82"
       transform="matrix(-0.41359,-0.41359,0.41359,-0.41359,28.953,661.73)">
      <path
         inkscape:connector-curvature="0"
         id="path78"
         d="m 246.43,461.22 a 6.0104,6.0104 0 0 1 6.0104,6.0104 v 12.021 a 6.0104,6.0104 0 0 1 -6.0104,6.0104 6.0104,6.0104 0 0 1 -6.0104,-6.0104 v -12.021 A 6.0104,6.0104 0 0 1 246.43,461.22" />
      <path
         inkscape:connector-curvature="0"
         id="path80"
         d="m 246.43,512.13 a 6.0104,6.0104 0 0 1 6.0104,6.0104 v 12.021 a 6.0104,6.0104 0 0 1 -6.0104,6.0104 6.0104,6.0104 0 0 1 -6.0104,-6.0104 v -12.021 A 6.0104,6.0104 0 0 1 246.43,512.13" />
    </g>
  </g>
  <path
     style="fill:#444643"
     inkscape:connector-curvature="0"
     id="path86"
     d="m 240.09,108.16 c -1.5034,0 -2.7188,1.2154 -2.7188,2.7188 v 1.375 c -1.5973,0.33932 -3.113,0.95004 -4.4375,1.8125 l -0.96875,-0.96875 c -1.063,-1.063 -2.7807,-1.063 -3.8438,0 -1.0631,1.063 -1.063,2.7807 0,3.8438 l 1,1 c -0.87234,1.3371 -1.5367,2.8224 -1.875,4.4375 h -1.3438 c -1.5034,0 -2.7188,1.1842 -2.7188,2.6875 0,1.5033 1.2154,2.7188 2.7188,2.7188 h 1.3438 c 0.33716,1.609 0.97631,3.1042 1.8438,4.4375 l -0.96875,0.96875 c -1.063,1.063 -1.063,2.7807 0,3.8438 1.063,1.0631 2.7807,1.063 3.8438,0 l 0.96875,-0.96875 c 1.328,0.867 2.8347,1.5033 4.4375,1.8438 v 1.375 c 0,1.5034 1.2154,2.7188 2.7188,2.7188 1.5034,0 2.7188,-1.2154 2.7188,-2.7188 v -1.375 c 1.6221,-0.3409 3.1277,-0.96432 4.4688,-1.8438 l 0.9375,0.96875 c 1.063,1.063 2.7807,1.063 3.8438,0 1.0631,-1.063 1.063,-2.7807 0,-3.8438 l -0.96875,-0.9375 c 0.87835,-1.3403 1.5031,-2.8479 1.8438,-4.4688 h 1.375 c 1.5034,0 2.7188,-1.2154 2.7188,-2.7188 0,-1.5034 -1.2154,-2.6875 -2.7188,-2.6875 h -1.375 c -0.34054,-1.6215 -0.96511,-3.128 -1.8438,-4.4688 l 0.96875,-0.96875 c 1.063,-1.063 1.063,-2.7807 0,-3.8438 -1.063,-1.0631 -2.7807,-1.063 -3.8438,0 l -0.96875,0.96875 c -1.3322,-0.86746 -2.8297,-1.4746 -4.4375,-1.8125 v -1.375 c 0,-1.5034 -1.2154,-2.7188 -2.7188,-2.7188 z"
     inkscape:export-filename="D:\workspace\school\COMP305\Tank-Mania\Assets\Sprites\tank.png"
     inkscape:export-xdpi="60.869999"
     inkscape:export-ydpi="60.869999" />
  <path
     style="fill:#73d216"
     inkscape:connector-curvature="0"
     id="path88"
     d="m 57.629,63.269 22.274,0.70711 c 0,0 11.89,-52.535 28.991,-56.922 -33.941,-10.607 -51.265,56.215 -51.265,56.215 z"
     inkscape:export-filename="D:\workspace\school\COMP305\Tank-Mania\Assets\Sprites\tank.png"
     inkscape:export-xdpi="60.869999"
     inkscape:export-ydpi="60.869999" />
  <path
     style="fill:#73d216"
     inkscape:connector-curvature="0"
     id="path90"
     d="m 286.38,25.781 -108.59,2.8125 c 0.70006,0.68983 1.5308,1.5446 2.4062,2.5625 l 105.47,1.7188 0.71875,-7.0938 z"
     inkscape:export-filename="D:\workspace\school\COMP305\Tank-Mania\Assets\Sprites\tank.png"
     inkscape:export-xdpi="60.869999"
     inkscape:export-ydpi="60.869999" />
  <path
     style="opacity:0.40613002"
     inkscape:connector-curvature="0"
     id="path92"
     d="m 167.05,26.853 c 0,0 10.607,18.031 9.546,20.86 l 11.137,0.35355 c -0.35355,-12.021 -12.021,-21.39 -12.021,-21.39 l -8.6621,0.17678 z"
     inkscape:export-filename="D:\workspace\school\COMP305\Tank-Mania\Assets\Sprites\tank.png"
     inkscape:export-xdpi="60.869999"
     inkscape:export-ydpi="60.869999" />
  <path
     style="fill:#73d216"
     inkscape:connector-curvature="0"
     id="path94"
     d="m 287.25,25.731 -0.125,6 10.75,-2.25 -1,-10.75 z"
     inkscape:export-filename="D:\workspace\school\COMP305\Tank-Mania\Assets\Sprites\tank.png"
     inkscape:export-xdpi="60.869999"
     inkscape:export-ydpi="60.869999" />
  <path
     style="fill:#73d216"
     inkscape:connector-curvature="0"
     id="path96"
     d="m 315.37,24.23 -1,5.25 -15,0.125 -0.625,-11.625 z"
     inkscape:export-filename="D:\workspace\school\COMP305\Tank-Mania\Assets\Sprites\tank.png"
     inkscape:export-xdpi="60.869999"
     inkscape:export-ydpi="60.869999" />
  <path
     style="fill:#73d216"
     inkscape:connector-curvature="0"
     id="path98"
     d="m 299.46,30.212 -3.3588,27.577 1.4142,-27.754 1.9445,0.17678 z"
     inkscape:export-filename="D:\workspace\school\COMP305\Tank-Mania\Assets\Sprites\tank.png"
     inkscape:export-xdpi="60.869999"
     inkscape:export-ydpi="60.869999" />
  <path
     style="fill:#ffffff;stroke-width:0.76234663"
     inkscape:connector-curvature="0"
     id="path100"
     d="m 129.17848,58.328585 -10.8579,-6.261191 -11.31331,5.395174 2.59934,-12.261283 -8.62698,-9.092597 12.46443,-1.31689 5.98165,-11.014978 5.10416,11.448099 12.32372,2.285098 -9.31051,8.392187 1.63504,12.427 z"
     inkscape:export-filename="D:\workspace\school\COMP305\Tank-Mania\Assets\Sprites\tank.png"
     inkscape:export-xdpi="60.869999"
     inkscape:export-ydpi="60.869999" />
  <g
     id="g110"
     transform="matrix(0.9951,-0.09883,0.09883,0.9951,-86.315,-40.31)"
     inkscape:export-filename="D:\workspace\school\COMP305\Tank-Mania\Assets\Sprites\tank.png"
     inkscape:export-xdpi="60.869999"
     inkscape:export-ydpi="60.869999">
    <path
       style="fill:#888a85"
       inkscape:connector-curvature="0"
       id="path102"
       d="m 206.44,176.34 h 22.624 a 4.25,4.25 0 0 1 4.25,4.25 4.25,4.25 0 0 1 -4.25,4.25 H 206.44 a 4.25,4.25 0 0 1 -4.25,-4.25 4.25,4.25 0 0 1 4.25,-4.25" />
    <path
       style="fill:#382509;fill-rule:evenodd;stroke:#000000"
       inkscape:connector-curvature="0"
       id="path104"
       d="m 231.25,180.57 c 0,1.5878 -3.2872,2.875 -4.875,2.875 -1.5878,0 -2.875,-1.2872 -2.875,-2.875 0,-1.5878 3.2872,-2.875 4.875,-2.875 1.5878,0 2.875,1.2872 2.875,2.875 z" />
    <path
       style="fill:#382509;fill-rule:evenodd;stroke:#000000"
       inkscape:connector-curvature="0"
       id="path106"
       d="m 210.83,182.28 c -0.73886,1.4054 -4.2474,1.0152 -5.6529,0.27631 -1.4055,-0.73889 -1.9458,-2.4772 -1.207,-3.8826 0.7388,-1.4054 4.2474,-1.0152 5.6529,-0.27631 1.4055,0.73889 1.9458,2.4772 1.207,3.8826 z" />
    <path
       style="fill:#555753"
       inkscape:connector-curvature="0"
       id="path108"
       d="m 213.03,176.4 c 1.1923,1.1314 1.9062,2.6161 1.9062,4.25 0,1.6339 -0.71394,3.1186 -1.9062,4.25 h 9.8438 c -1.1995,-1.1314 -1.9375,-2.6161 -1.9375,-4.25 0,-1.6339 0.73802,-3.1186 1.9375,-4.25 z" />
  </g>
  <g
     id="g120"
     transform="matrix(0.9593,-0.28238,0.28238,0.9593,-91.53,3.47)"
     inkscape:export-filename="D:\workspace\school\COMP305\Tank-Mania\Assets\Sprites\tank.png"
     inkscape:export-xdpi="60.869999"
     inkscape:export-ydpi="60.869999">
    <path
       style="fill:#888a85"
       inkscape:connector-curvature="0"
       id="path112"
       d="m 206.44,176.34 h 22.624 a 4.25,4.25 0 0 1 4.25,4.25 4.25,4.25 0 0 1 -4.25,4.25 H 206.44 a 4.25,4.25 0 0 1 -4.25,-4.25 4.25,4.25 0 0 1 4.25,-4.25" />
    <path
       style="fill:#382509;fill-rule:evenodd;stroke:#000000"
       inkscape:connector-curvature="0"
       id="path114"
       d="m 231.25,180.57 c 0,1.5878 -3.2872,2.875 -4.875,2.875 -1.5878,0 -2.875,-1.2872 -2.875,-2.875 0,-1.5878 3.2872,-2.875 4.875,-2.875 1.5878,0 2.875,1.2872 2.875,2.875 z" />
    <path
       style="fill:#382509;fill-rule:evenodd;stroke:#000000"
       inkscape:connector-curvature="0"
       id="path116"
       d="m 210.83,182.28 c -0.73886,1.4054 -4.2474,1.0152 -5.6529,0.27631 -1.4055,-0.73889 -1.9458,-2.4772 -1.207,-3.8826 0.7388,-1.4054 4.2474,-1.0152 5.6529,-0.27631 1.4055,0.73889 1.9458,2.4772 1.207,3.8826 z" />
    <path
       style="fill:#555753"
       inkscape:connector-curvature="0"
       id="path118"
       d="m 213.03,176.4 c 1.1923,1.1314 1.9062,2.6161 1.9062,4.25 0,1.6339 -0.71394,3.1186 -1.9062,4.25 h 9.8438 c -1.1995,-1.1314 -1.9375,-2.6161 -1.9375,-4.25 0,-1.6339 0.73802,-3.1186 1.9375,-4.25 z" />
  </g>
  <g
     id="g130"
     transform="rotate(0.05140977,77566.059,-30391.13)"
     inkscape:export-filename="D:\workspace\school\COMP305\Tank-Mania\Assets\Sprites\tank.png"
     inkscape:export-xdpi="60.869999"
     inkscape:export-ydpi="60.869999">
    <path
       style="fill:#888a85"
       inkscape:connector-curvature="0"
       id="path122"
       d="m 206.44,176.34 h 22.624 a 4.25,4.25 0 0 1 4.25,4.25 4.25,4.25 0 0 1 -4.25,4.25 H 206.44 a 4.25,4.25 0 0 1 -4.25,-4.25 4.25,4.25 0 0 1 4.25,-4.25" />
    <path
       style="fill:#382509;fill-rule:evenodd;stroke:#000000"
       inkscape:connector-curvature="0"
       id="path124"
       d="m 231.25,180.57 c 0,1.5878 -3.2872,2.875 -4.875,2.875 -1.5878,0 -2.875,-1.2872 -2.875,-2.875 0,-1.5878 3.2872,-2.875 4.875,-2.875 1.5878,0 2.875,1.2872 2.875,2.875 z" />
    <path
       style="fill:#382509;fill-rule:evenodd;stroke:#000000"
       inkscape:connector-curvature="0"
       id="path126"
       d="m 210.83,182.28 c -0.73886,1.4054 -4.2474,1.0152 -5.6529,0.27631 -1.4055,-0.73889 -1.9458,-2.4772 -1.207,-3.8826 0.7388,-1.4054 4.2474,-1.0152 5.6529,-0.27631 1.4055,0.73889 1.9458,2.4772 1.207,3.8826 z" />
    <path
       style="fill:#555753"
       inkscape:connector-curvature="0"
       id="path128"
       d="m 213.03,176.4 c 1.1923,1.1314 1.9062,2.6161 1.9062,4.25 0,1.6339 -0.71394,3.1186 -1.9062,4.25 h 9.8438 c -1.1995,-1.1314 -1.9375,-2.6161 -1.9375,-4.25 0,-1.6339 0.73802,-3.1186 1.9375,-4.25 z" />
  </g>
  <g
     id="g140"
     transform="matrix(0.99274,-0.1203,0.1203,0.99274,-27.825,-42.81)"
     inkscape:export-filename="D:\workspace\school\COMP305\Tank-Mania\Assets\Sprites\tank.png"
     inkscape:export-xdpi="60.869999"
     inkscape:export-ydpi="60.869999">
    <path
       style="fill:#888a85"
       inkscape:connector-curvature="0"
       id="path132"
       d="m 206.44,176.34 h 22.624 a 4.25,4.25 0 0 1 4.25,4.25 4.25,4.25 0 0 1 -4.25,4.25 H 206.44 a 4.25,4.25 0 0 1 -4.25,-4.25 4.25,4.25 0 0 1 4.25,-4.25" />
    <path
       style="fill:#382509;fill-rule:evenodd;stroke:#000000"
       inkscape:connector-curvature="0"
       id="path134"
       d="m 231.25,180.57 c 0,1.5878 -3.2872,2.875 -4.875,2.875 -1.5878,0 -2.875,-1.2872 -2.875,-2.875 0,-1.5878 3.2872,-2.875 4.875,-2.875 1.5878,0 2.875,1.2872 2.875,2.875 z" />
    <path
       style="fill:#382509;fill-rule:evenodd;stroke:#000000"
       inkscape:connector-curvature="0"
       id="path136"
       d="m 210.83,182.28 c -0.73886,1.4054 -4.2474,1.0152 -5.6529,0.27631 -1.4055,-0.73889 -1.9458,-2.4772 -1.207,-3.8826 0.7388,-1.4054 4.2474,-1.0152 5.6529,-0.27631 1.4055,0.73889 1.9458,2.4772 1.207,3.8826 z" />
    <path
       style="fill:#555753"
       inkscape:connector-curvature="0"
       id="path138"
       d="m 213.03,176.4 c 1.1923,1.1314 1.9062,2.6161 1.9062,4.25 0,1.6339 -0.71394,3.1186 -1.9062,4.25 h 9.8438 c -1.1995,-1.1314 -1.9375,-2.6161 -1.9375,-4.25 0,-1.6339 0.73802,-3.1186 1.9375,-4.25 z" />
  </g>
  <g
     id="g150"
     transform="matrix(0.99274,-0.1203,0.1203,0.99274,-27.825,-42.81)"
     inkscape:export-filename="D:\workspace\school\COMP305\Tank-Mania\Assets\Sprites\tank.png"
     inkscape:export-xdpi="60.869999"
     inkscape:export-ydpi="60.869999">
    <path
       style="fill:#888a85"
       inkscape:connector-curvature="0"
       id="path142"
       d="m 206.44,176.34 h 22.624 a 4.25,4.25 0 0 1 4.25,4.25 4.25,4.25 0 0 1 -4.25,4.25 H 206.44 a 4.25,4.25 0 0 1 -4.25,-4.25 4.25,4.25 0 0 1 4.25,-4.25" />
    <path
       style="fill:#382509;fill-rule:evenodd;stroke:#000000"
       inkscape:connector-curvature="0"
       id="path144"
       d="m 231.25,180.57 c 0,1.5878 -3.2872,2.875 -4.875,2.875 -1.5878,0 -2.875,-1.2872 -2.875,-2.875 0,-1.5878 3.2872,-2.875 4.875,-2.875 1.5878,0 2.875,1.2872 2.875,2.875 z" />
    <path
       style="fill:#382509;fill-rule:evenodd;stroke:#000000"
       inkscape:connector-curvature="0"
       id="path146"
       d="m 210.83,182.28 c -0.73886,1.4054 -4.2474,1.0152 -5.6529,0.27631 -1.4055,-0.73889 -1.9458,-2.4772 -1.207,-3.8826 0.7388,-1.4054 4.2474,-1.0152 5.6529,-0.27631 1.4055,0.73889 1.9458,2.4772 1.207,3.8826 z" />
    <path
       style="fill:#555753"
       inkscape:connector-curvature="0"
       id="path148"
       d="m 213.03,176.4 c 1.1923,1.1314 1.9062,2.6161 1.9062,4.25 0,1.6339 -0.71394,3.1186 -1.9062,4.25 h 9.8438 c -1.1995,-1.1314 -1.9375,-2.6161 -1.9375,-4.25 0,-1.6339 0.73802,-3.1186 1.9375,-4.25 z" />
  </g>
  <g
     id="g160"
     transform="matrix(0.99274,-0.1203,0.1203,0.99274,-6.612,-44.93)"
     inkscape:export-filename="D:\workspace\school\COMP305\Tank-Mania\Assets\Sprites\tank.png"
     inkscape:export-xdpi="60.869999"
     inkscape:export-ydpi="60.869999">
    <path
       style="fill:#888a85"
       inkscape:connector-curvature="0"
       id="path152"
       d="m 206.44,176.34 h 22.624 a 4.25,4.25 0 0 1 4.25,4.25 4.25,4.25 0 0 1 -4.25,4.25 H 206.44 a 4.25,4.25 0 0 1 -4.25,-4.25 4.25,4.25 0 0 1 4.25,-4.25" />
    <path
       style="fill:#382509;fill-rule:evenodd;stroke:#000000"
       inkscape:connector-curvature="0"
       id="path154"
       d="m 231.25,180.57 c 0,1.5878 -3.2872,2.875 -4.875,2.875 -1.5878,0 -2.875,-1.2872 -2.875,-2.875 0,-1.5878 3.2872,-2.875 4.875,-2.875 1.5878,0 2.875,1.2872 2.875,2.875 z" />
    <path
       style="fill:#382509;fill-rule:evenodd;stroke:#000000"
       inkscape:connector-curvature="0"
       id="path156"
       d="m 210.83,182.28 c -0.73886,1.4054 -4.2474,1.0152 -5.6529,0.27631 -1.4055,-0.73889 -1.9458,-2.4772 -1.207,-3.8826 0.7388,-1.4054 4.2474,-1.0152 5.6529,-0.27631 1.4055,0.73889 1.9458,2.4772 1.207,3.8826 z" />
    <path
       style="fill:#555753"
       inkscape:connector-curvature="0"
       id="path158"
       d="m 213.03,176.4 c 1.1923,1.1314 1.9062,2.6161 1.9062,4.25 0,1.6339 -0.71394,3.1186 -1.9062,4.25 h 9.8438 c -1.1995,-1.1314 -1.9375,-2.6161 -1.9375,-4.25 0,-1.6339 0.73802,-3.1186 1.9375,-4.25 z" />
  </g>
  <g
     id="g170"
     transform="matrix(0.92683,0.37547,-0.37547,0.92683,116.97,-137.618)"
     inkscape:export-filename="D:\workspace\school\COMP305\Tank-Mania\Assets\Sprites\tank.png"
     inkscape:export-xdpi="60.869999"
     inkscape:export-ydpi="60.869999">
    <path
       style="fill:#888a85"
       inkscape:connector-curvature="0"
       id="path162"
       d="m 206.44,176.34 h 22.624 a 4.25,4.25 0 0 1 4.25,4.25 4.25,4.25 0 0 1 -4.25,4.25 H 206.44 a 4.25,4.25 0 0 1 -4.25,-4.25 4.25,4.25 0 0 1 4.25,-4.25" />
    <path
       style="fill:#382509;fill-rule:evenodd;stroke:#000000"
       inkscape:connector-curvature="0"
       id="path164"
       d="m 231.25,180.57 c 0,1.5878 -3.2872,2.875 -4.875,2.875 -1.5878,0 -2.875,-1.2872 -2.875,-2.875 0,-1.5878 3.2872,-2.875 4.875,-2.875 1.5878,0 2.875,1.2872 2.875,2.875 z" />
    <path
       style="fill:#382509;fill-rule:evenodd;stroke:#000000"
       inkscape:connector-curvature="0"
       id="path166"
       d="m 210.83,182.28 c -0.73886,1.4054 -4.2474,1.0152 -5.6529,0.27631 -1.4055,-0.73889 -1.9458,-2.4772 -1.207,-3.8826 0.7388,-1.4054 4.2474,-1.0152 5.6529,-0.27631 1.4055,0.73889 1.9458,2.4772 1.207,3.8826 z" />
    <path
       style="fill:#555753"
       inkscape:connector-curvature="0"
       id="path168"
       d="m 213.03,176.4 c 1.1923,1.1314 1.9062,2.6161 1.9062,4.25 0,1.6339 -0.71394,3.1186 -1.9062,4.25 h 9.8438 c -1.1995,-1.1314 -1.9375,-2.6161 -1.9375,-4.25 0,-1.6339 0.73802,-3.1186 1.9375,-4.25 z" />
  </g>
  <g
     id="g180"
     transform="matrix(-0.04587,0.99895,-0.99895,-0.04587,450.28,-83.5)"
     inkscape:export-filename="D:\workspace\school\COMP305\Tank-Mania\Assets\Sprites\tank.png"
     inkscape:export-xdpi="60.869999"
     inkscape:export-ydpi="60.869999">
    <path
       style="fill:#888a85"
       inkscape:connector-curvature="0"
       id="path172"
       d="m 206.44,176.34 h 22.624 a 4.25,4.25 0 0 1 4.25,4.25 4.25,4.25 0 0 1 -4.25,4.25 H 206.44 a 4.25,4.25 0 0 1 -4.25,-4.25 4.25,4.25 0 0 1 4.25,-4.25" />
    <path
       style="fill:#382509;fill-rule:evenodd;stroke:#000000"
       inkscape:connector-curvature="0"
       id="path174"
       d="m 231.25,180.57 c 0,1.5878 -3.2872,2.875 -4.875,2.875 -1.5878,0 -2.875,-1.2872 -2.875,-2.875 0,-1.5878 3.2872,-2.875 4.875,-2.875 1.5878,0 2.875,1.2872 2.875,2.875 z" />
    <path
       style="fill:#382509;fill-rule:evenodd;stroke:#000000"
       inkscape:connector-curvature="0"
       id="path176"
       d="m 210.83,182.28 c -0.73886,1.4054 -4.2474,1.0152 -5.6529,0.27631 -1.4055,-0.73889 -1.9458,-2.4772 -1.207,-3.8826 0.7388,-1.4054 4.2474,-1.0152 5.6529,-0.27631 1.4055,0.73889 1.9458,2.4772 1.207,3.8826 z" />
    <path
       style="fill:#555753"
       inkscape:connector-curvature="0"
       id="path178"
       d="m 213.03,176.4 c 1.1923,1.1314 1.9062,2.6161 1.9062,4.25 0,1.6339 -0.71394,3.1186 -1.9062,4.25 h 9.8438 c -1.1995,-1.1314 -1.9375,-2.6161 -1.9375,-4.25 0,-1.6339 0.73802,-3.1186 1.9375,-4.25 z" />
  </g>
  <g
     id="g190"
     transform="matrix(-0.65353869,0.75689203,-0.75689203,-0.65353869,532.17362,100.38483)"
     inkscape:export-filename="D:\workspace\school\COMP305\Tank-Mania\Assets\Sprites\tank.png"
     inkscape:export-xdpi="60.869999"
     inkscape:export-ydpi="60.869999">
    <path
       style="fill:#888a85"
       inkscape:connector-curvature="0"
       id="path182"
       d="m 206.44,176.34 h 22.624 a 4.25,4.25 0 0 1 4.25,4.25 4.25,4.25 0 0 1 -4.25,4.25 H 206.44 a 4.25,4.25 0 0 1 -4.25,-4.25 4.25,4.25 0 0 1 4.25,-4.25" />
    <path
       style="fill:#382509;fill-rule:evenodd;stroke:#000000"
       inkscape:connector-curvature="0"
       id="path184"
       d="m 231.25,180.57 c 0,1.5878 -3.2872,2.875 -4.875,2.875 -1.5878,0 -2.875,-1.2872 -2.875,-2.875 0,-1.5878 3.2872,-2.875 4.875,-2.875 1.5878,0 2.875,1.2872 2.875,2.875 z" />
    <path
       style="fill:#382509;fill-rule:evenodd;stroke:#000000"
       inkscape:connector-curvature="0"
       id="path186"
       d="m 210.83,182.28 c -0.73886,1.4054 -4.2474,1.0152 -5.6529,0.27631 -1.4055,-0.73889 -1.9458,-2.4772 -1.207,-3.8826 0.7388,-1.4054 4.2474,-1.0152 5.6529,-0.27631 1.4055,0.73889 1.9458,2.4772 1.207,3.8826 z" />
    <path
       style="fill:#555753"
       inkscape:connector-curvature="0"
       id="path188"
       d="m 213.03,176.4 c 1.1923,1.1314 1.9062,2.6161 1.9062,4.25 0,1.6339 -0.71394,3.1186 -1.9062,4.25 h 9.8438 c -1.1995,-1.1314 -1.9375,-2.6161 -1.9375,-4.25 0,-1.6339 0.73802,-3.1186 1.9375,-4.25 z" />
  </g>
  <g
     id="g200"
     transform="matrix(-0.69243,0.72149,-0.72149,-0.69243,519.3173,128.57464)"
     inkscape:export-filename="D:\workspace\school\COMP305\Tank-Mania\Assets\Sprites\tank.png"
     inkscape:export-xdpi="60.869999"
     inkscape:export-ydpi="60.869999">
    <path
       style="fill:#888a85"
       inkscape:connector-curvature="0"
       id="path192"
       d="m 206.44,176.34 h 22.624 a 4.25,4.25 0 0 1 4.25,4.25 4.25,4.25 0 0 1 -4.25,4.25 H 206.44 a 4.25,4.25 0 0 1 -4.25,-4.25 4.25,4.25 0 0 1 4.25,-4.25" />
    <path
       style="fill:#382509;fill-rule:evenodd;stroke:#000000"
       inkscape:connector-curvature="0"
       id="path194"
       d="m 231.25,180.57 c 0,1.5878 -3.2872,2.875 -4.875,2.875 -1.5878,0 -2.875,-1.2872 -2.875,-2.875 0,-1.5878 3.2872,-2.875 4.875,-2.875 1.5878,0 2.875,1.2872 2.875,2.875 z" />
    <path
       style="fill:#382509;fill-rule:evenodd;stroke:#000000"
       inkscape:connector-curvature="0"
       id="path196"
       d="m 210.83,182.28 c -0.73886,1.4054 -4.2474,1.0152 -5.6529,0.27631 -1.4055,-0.73889 -1.9458,-2.4772 -1.207,-3.8826 0.7388,-1.4054 4.2474,-1.0152 5.6529,-0.27631 1.4055,0.73889 1.9458,2.4772 1.207,3.8826 z" />
    <path
       style="fill:#555753"
       inkscape:connector-curvature="0"
       id="path198"
       d="m 213.03,176.4 c 1.1923,1.1314 1.9062,2.6161 1.9062,4.25 0,1.6339 -0.71394,3.1186 -1.9062,4.25 h 9.8438 c -1.1995,-1.1314 -1.9375,-2.6161 -1.9375,-4.25 0,-1.6339 0.73802,-3.1186 1.9375,-4.25 z" />
  </g>
  <g
     id="g210"
     transform="matrix(-0.97489621,0.22266829,-0.22266829,-0.97489621,469.4353,300.55365)"
     inkscape:export-filename="D:\workspace\school\COMP305\Tank-Mania\Assets\Sprites\tank.png"
     inkscape:export-xdpi="60.869999"
     inkscape:export-ydpi="60.869999">
    <path
       style="fill:#888a85"
       inkscape:connector-curvature="0"
       id="path202"
       d="m 206.44,176.34 h 22.624 a 4.25,4.25 0 0 1 4.25,4.25 4.25,4.25 0 0 1 -4.25,4.25 H 206.44 a 4.25,4.25 0 0 1 -4.25,-4.25 4.25,4.25 0 0 1 4.25,-4.25" />
    <path
       style="fill:#382509;fill-rule:evenodd;stroke:#000000"
       inkscape:connector-curvature="0"
       id="path204"
       d="m 231.25,180.57 c 0,1.5878 -3.2872,2.875 -4.875,2.875 -1.5878,0 -2.875,-1.2872 -2.875,-2.875 0,-1.5878 3.2872,-2.875 4.875,-2.875 1.5878,0 2.875,1.2872 2.875,2.875 z" />
    <path
       style="fill:#382509;fill-rule:evenodd;stroke:#000000"
       inkscape:connector-curvature="0"
       id="path206"
       d="m 210.83,182.28 c -0.73886,1.4054 -4.2474,1.0152 -5.6529,0.27631 -1.4055,-0.73889 -1.9458,-2.4772 -1.207,-3.8826 0.7388,-1.4054 4.2474,-1.0152 5.6529,-0.27631 1.4055,0.73889 1.9458,2.4772 1.207,3.8826 z" />
    <path
       style="fill:#555753"
       inkscape:connector-curvature="0"
       id="path208"
       d="m 213.03,176.4 c 1.1923,1.1314 1.9062,2.6161 1.9062,4.25 0,1.6339 -0.71394,3.1186 -1.9062,4.25 h 9.8438 c -1.1995,-1.1314 -1.9375,-2.6161 -1.9375,-4.25 0,-1.6339 0.73802,-3.1186 1.9375,-4.25 z" />
  </g>
  <g
     id="g220"
     transform="matrix(-1,0.00205,-0.00205,-1,406.22,355.55)"
     inkscape:export-filename="D:\workspace\school\COMP305\Tank-Mania\Assets\Sprites\tank.png"
     inkscape:export-xdpi="60.869999"
     inkscape:export-ydpi="60.869999">
    <path
       style="fill:#888a85"
       inkscape:connector-curvature="0"
       id="path212"
       d="m 206.44,176.34 h 22.624 a 4.25,4.25 0 0 1 4.25,4.25 4.25,4.25 0 0 1 -4.25,4.25 H 206.44 a 4.25,4.25 0 0 1 -4.25,-4.25 4.25,4.25 0 0 1 4.25,-4.25" />
    <path
       style="fill:#382509;fill-rule:evenodd;stroke:#000000"
       inkscape:connector-curvature="0"
       id="path214"
       d="m 231.25,180.57 c 0,1.5878 -3.2872,2.875 -4.875,2.875 -1.5878,0 -2.875,-1.2872 -2.875,-2.875 0,-1.5878 3.2872,-2.875 4.875,-2.875 1.5878,0 2.875,1.2872 2.875,2.875 z" />
    <path
       style="fill:#382509;fill-rule:evenodd;stroke:#000000"
       inkscape:connector-curvature="0"
       id="path216"
       d="m 210.83,182.28 c -0.73886,1.4054 -4.2474,1.0152 -5.6529,0.27631 -1.4055,-0.73889 -1.9458,-2.4772 -1.207,-3.8826 0.7388,-1.4054 4.2474,-1.0152 5.6529,-0.27631 1.4055,0.73889 1.9458,2.4772 1.207,3.8826 z" />
    <path
       style="fill:#555753"
       inkscape:connector-curvature="0"
       id="path218"
       d="m 213.03,176.4 c 1.1923,1.1314 1.9062,2.6161 1.9062,4.25 0,1.6339 -0.71394,3.1186 -1.9062,4.25 h 9.8438 c -1.1995,-1.1314 -1.9375,-2.6161 -1.9375,-4.25 0,-1.6339 0.73802,-3.1186 1.9375,-4.25 z" />
  </g>
  <g
     id="g230"
     transform="matrix(-0.99355,0.1134,-0.1134,-0.99355,403.63,330.4)"
     inkscape:export-filename="D:\workspace\school\COMP305\Tank-Mania\Assets\Sprites\tank.png"
     inkscape:export-xdpi="60.869999"
     inkscape:export-ydpi="60.869999">
    <path
       style="fill:#888a85"
       inkscape:connector-curvature="0"
       id="path222"
       d="m 206.44,176.34 h 22.624 a 4.25,4.25 0 0 1 4.25,4.25 4.25,4.25 0 0 1 -4.25,4.25 H 206.44 a 4.25,4.25 0 0 1 -4.25,-4.25 4.25,4.25 0 0 1 4.25,-4.25" />
    <path
       style="fill:#382509;fill-rule:evenodd;stroke:#000000"
       inkscape:connector-curvature="0"
       id="path224"
       d="m 231.25,180.57 c 0,1.5878 -3.2872,2.875 -4.875,2.875 -1.5878,0 -2.875,-1.2872 -2.875,-2.875 0,-1.5878 3.2872,-2.875 4.875,-2.875 1.5878,0 2.875,1.2872 2.875,2.875 z" />
    <path
       style="fill:#382509;fill-rule:evenodd;stroke:#000000"
       inkscape:connector-curvature="0"
       id="path226"
       d="m 210.83,182.28 c -0.73886,1.4054 -4.2474,1.0152 -5.6529,0.27631 -1.4055,-0.73889 -1.9458,-2.4772 -1.207,-3.8826 0.7388,-1.4054 4.2474,-1.0152 5.6529,-0.27631 1.4055,0.73889 1.9458,2.4772 1.207,3.8826 z" />
    <path
       style="fill:#555753"
       inkscape:connector-curvature="0"
       id="path228"
       d="m 213.03,176.4 c 1.1923,1.1314 1.9062,2.6161 1.9062,4.25 0,1.6339 -0.71394,3.1186 -1.9062,4.25 h 9.8438 c -1.1995,-1.1314 -1.9375,-2.6161 -1.9375,-4.25 0,-1.6339 0.73802,-3.1186 1.9375,-4.25 z" />
  </g>
  <g
     id="g240"
     transform="matrix(-1,0.00205,-0.00205,-1,364.72,355.55)"
     inkscape:export-filename="D:\workspace\school\COMP305\Tank-Mania\Assets\Sprites\tank.png"
     inkscape:export-xdpi="60.869999"
     inkscape:export-ydpi="60.869999">
    <path
       style="fill:#888a85"
       inkscape:connector-curvature="0"
       id="path232"
       d="m 206.44,176.34 h 22.624 a 4.25,4.25 0 0 1 4.25,4.25 4.25,4.25 0 0 1 -4.25,4.25 H 206.44 a 4.25,4.25 0 0 1 -4.25,-4.25 4.25,4.25 0 0 1 4.25,-4.25" />
    <path
       style="fill:#382509;fill-rule:evenodd;stroke:#000000"
       inkscape:connector-curvature="0"
       id="path234"
       d="m 231.25,180.57 c 0,1.5878 -3.2872,2.875 -4.875,2.875 -1.5878,0 -2.875,-1.2872 -2.875,-2.875 0,-1.5878 3.2872,-2.875 4.875,-2.875 1.5878,0 2.875,1.2872 2.875,2.875 z" />
    <path
       style="fill:#382509;fill-rule:evenodd;stroke:#000000"
       inkscape:connector-curvature="0"
       id="path236"
       d="m 210.83,182.28 c -0.73886,1.4054 -4.2474,1.0152 -5.6529,0.27631 -1.4055,-0.73889 -1.9458,-2.4772 -1.207,-3.8826 0.7388,-1.4054 4.2474,-1.0152 5.6529,-0.27631 1.4055,0.73889 1.9458,2.4772 1.207,3.8826 z" />
    <path
       style="fill:#555753"
       inkscape:connector-curvature="0"
       id="path238"
       d="m 213.03,176.4 c 1.1923,1.1314 1.9062,2.6161 1.9062,4.25 0,1.6339 -0.71394,3.1186 -1.9062,4.25 h 9.8438 c -1.1995,-1.1314 -1.9375,-2.6161 -1.9375,-4.25 0,-1.6339 0.73802,-3.1186 1.9375,-4.25 z" />
  </g>
  <g
     id="g250"
     transform="matrix(-1,0.00205,-0.00205,-1,343.72,355.55)"
     inkscape:export-filename="D:\workspace\school\COMP305\Tank-Mania\Assets\Sprites\tank.png"
     inkscape:export-xdpi="60.869999"
     inkscape:export-ydpi="60.869999">
    <path
       style="fill:#888a85"
       inkscape:connector-curvature="0"
       id="path242"
       d="m 206.44,176.34 h 22.624 a 4.25,4.25 0 0 1 4.25,4.25 4.25,4.25 0 0 1 -4.25,4.25 H 206.44 a 4.25,4.25 0 0 1 -4.25,-4.25 4.25,4.25 0 0 1 4.25,-4.25" />
    <path
       style="fill:#382509;fill-rule:evenodd;stroke:#000000"
       inkscape:connector-curvature="0"
       id="path244"
       d="m 231.25,180.57 c 0,1.5878 -3.2872,2.875 -4.875,2.875 -1.5878,0 -2.875,-1.2872 -2.875,-2.875 0,-1.5878 3.2872,-2.875 4.875,-2.875 1.5878,0 2.875,1.2872 2.875,2.875 z" />
    <path
       style="fill:#382509;fill-rule:evenodd;stroke:#000000"
       inkscape:connector-curvature="0"
       id="path246"
       d="m 210.83,182.28 c -0.73886,1.4054 -4.2474,1.0152 -5.6529,0.27631 -1.4055,-0.73889 -1.9458,-2.4772 -1.207,-3.8826 0.7388,-1.4054 4.2474,-1.0152 5.6529,-0.27631 1.4055,0.73889 1.9458,2.4772 1.207,3.8826 z" />
    <path
       style="fill:#555753"
       inkscape:connector-curvature="0"
       id="path248"
       d="m 213.03,176.4 c 1.1923,1.1314 1.9062,2.6161 1.9062,4.25 0,1.6339 -0.71394,3.1186 -1.9062,4.25 h 9.8438 c -1.1995,-1.1314 -1.9375,-2.6161 -1.9375,-4.25 0,-1.6339 0.73802,-3.1186 1.9375,-4.25 z" />
  </g>
  <g
     id="g260"
     transform="matrix(-0.99583,-0.09125,0.09125,-0.99583,304.73,374.92)"
     inkscape:export-filename="D:\workspace\school\COMP305\Tank-Mania\Assets\Sprites\tank.png"
     inkscape:export-xdpi="60.869999"
     inkscape:export-ydpi="60.869999">
    <path
       style="fill:#888a85"
       inkscape:connector-curvature="0"
       id="path252"
       d="m 206.44,176.34 h 22.624 a 4.25,4.25 0 0 1 4.25,4.25 4.25,4.25 0 0 1 -4.25,4.25 H 206.44 a 4.25,4.25 0 0 1 -4.25,-4.25 4.25,4.25 0 0 1 4.25,-4.25" />
    <path
       style="fill:#382509;fill-rule:evenodd;stroke:#000000"
       inkscape:connector-curvature="0"
       id="path254"
       d="m 231.25,180.57 c 0,1.5878 -3.2872,2.875 -4.875,2.875 -1.5878,0 -2.875,-1.2872 -2.875,-2.875 0,-1.5878 3.2872,-2.875 4.875,-2.875 1.5878,0 2.875,1.2872 2.875,2.875 z" />
    <path
       style="fill:#382509;fill-rule:evenodd;stroke:#000000"
       inkscape:connector-curvature="0"
       id="path256"
       d="m 210.83,182.28 c -0.73886,1.4054 -4.2474,1.0152 -5.6529,0.27631 -1.4055,-0.73889 -1.9458,-2.4772 -1.207,-3.8826 0.7388,-1.4054 4.2474,-1.0152 5.6529,-0.27631 1.4055,0.73889 1.9458,2.4772 1.207,3.8826 z" />
    <path
       style="fill:#555753"
       inkscape:connector-curvature="0"
       id="path258"
       d="m 213.03,176.4 c 1.1923,1.1314 1.9062,2.6161 1.9062,4.25 0,1.6339 -0.71394,3.1186 -1.9062,4.25 h 9.8438 c -1.1995,-1.1314 -1.9375,-2.6161 -1.9375,-4.25 0,-1.6339 0.73802,-3.1186 1.9375,-4.25 z" />
  </g>
  <g
     id="g270"
     transform="matrix(-1,0.00205,-0.00205,-1,299.22,355.55)"
     inkscape:export-filename="D:\workspace\school\COMP305\Tank-Mania\Assets\Sprites\tank.png"
     inkscape:export-xdpi="60.869999"
     inkscape:export-ydpi="60.869999">
    <path
       style="fill:#888a85"
       inkscape:connector-curvature="0"
       id="path262"
       d="m 206.44,176.34 h 22.624 a 4.25,4.25 0 0 1 4.25,4.25 4.25,4.25 0 0 1 -4.25,4.25 H 206.44 a 4.25,4.25 0 0 1 -4.25,-4.25 4.25,4.25 0 0 1 4.25,-4.25" />
    <path
       style="fill:#382509;fill-rule:evenodd;stroke:#000000"
       inkscape:connector-curvature="0"
       id="path264"
       d="m 231.25,180.57 c 0,1.5878 -3.2872,2.875 -4.875,2.875 -1.5878,0 -2.875,-1.2872 -2.875,-2.875 0,-1.5878 3.2872,-2.875 4.875,-2.875 1.5878,0 2.875,1.2872 2.875,2.875 z" />
    <path
       style="fill:#382509;fill-rule:evenodd;stroke:#000000"
       inkscape:connector-curvature="0"
       id="path266"
       d="m 210.83,182.28 c -0.73886,1.4054 -4.2474,1.0152 -5.6529,0.27631 -1.4055,-0.73889 -1.9458,-2.4772 -1.207,-3.8826 0.7388,-1.4054 4.2474,-1.0152 5.6529,-0.27631 1.4055,0.73889 1.9458,2.4772 1.207,3.8826 z" />
    <path
       style="fill:#555753"
       inkscape:connector-curvature="0"
       id="path268"
       d="m 213.03,176.4 c 1.1923,1.1314 1.9062,2.6161 1.9062,4.25 0,1.6339 -0.71394,3.1186 -1.9062,4.25 h 9.8438 c -1.1995,-1.1314 -1.9375,-2.6161 -1.9375,-4.25 0,-1.6339 0.73802,-3.1186 1.9375,-4.25 z" />
  </g>
  <g
     id="g280"
     transform="matrix(-0.98222,-0.18772,0.18772,-0.98222,239.64,391.8)"
     inkscape:export-filename="D:\workspace\school\COMP305\Tank-Mania\Assets\Sprites\tank.png"
     inkscape:export-xdpi="60.869999"
     inkscape:export-ydpi="60.869999">
    <path
       style="fill:#888a85"
       inkscape:connector-curvature="0"
       id="path272"
       d="m 206.44,176.34 h 22.624 a 4.25,4.25 0 0 1 4.25,4.25 4.25,4.25 0 0 1 -4.25,4.25 H 206.44 a 4.25,4.25 0 0 1 -4.25,-4.25 4.25,4.25 0 0 1 4.25,-4.25" />
    <path
       style="fill:#382509;fill-rule:evenodd;stroke:#000000"
       inkscape:connector-curvature="0"
       id="path274"
       d="m 231.25,180.57 c 0,1.5878 -3.2872,2.875 -4.875,2.875 -1.5878,0 -2.875,-1.2872 -2.875,-2.875 0,-1.5878 3.2872,-2.875 4.875,-2.875 1.5878,0 2.875,1.2872 2.875,2.875 z" />
    <path
       style="fill:#382509;fill-rule:evenodd;stroke:#000000"
       inkscape:connector-curvature="0"
       id="path276"
       d="m 210.83,182.28 c -0.73886,1.4054 -4.2474,1.0152 -5.6529,0.27631 -1.4055,-0.73889 -1.9458,-2.4772 -1.207,-3.8826 0.7388,-1.4054 4.2474,-1.0152 5.6529,-0.27631 1.4055,0.73889 1.9458,2.4772 1.207,3.8826 z" />
    <path
       style="fill:#555753"
       inkscape:connector-curvature="0"
       id="path278"
       d="m 213.03,176.4 c 1.1923,1.1314 1.9062,2.6161 1.9062,4.25 0,1.6339 -0.71394,3.1186 -1.9062,4.25 h 9.8438 c -1.1995,-1.1314 -1.9375,-2.6161 -1.9375,-4.25 0,-1.6339 0.73802,-3.1186 1.9375,-4.25 z" />
  </g>
  <g
     id="g290"
     transform="matrix(-0.98222,-0.18772,0.18772,-0.98222,217.14,386.8)"
     inkscape:export-filename="D:\workspace\school\COMP305\Tank-Mania\Assets\Sprites\tank.png"
     inkscape:export-xdpi="60.869999"
     inkscape:export-ydpi="60.869999">
    <path
       style="fill:#888a85"
       inkscape:connector-curvature="0"
       id="path282"
       d="m 206.44,176.34 h 22.624 a 4.25,4.25 0 0 1 4.25,4.25 4.25,4.25 0 0 1 -4.25,4.25 H 206.44 a 4.25,4.25 0 0 1 -4.25,-4.25 4.25,4.25 0 0 1 4.25,-4.25" />
    <path
       style="fill:#382509;fill-rule:evenodd;stroke:#000000"
       inkscape:connector-curvature="0"
       id="path284"
       d="m 231.25,180.57 c 0,1.5878 -3.2872,2.875 -4.875,2.875 -1.5878,0 -2.875,-1.2872 -2.875,-2.875 0,-1.5878 3.2872,-2.875 4.875,-2.875 1.5878,0 2.875,1.2872 2.875,2.875 z" />
    <path
       style="fill:#382509;fill-rule:evenodd;stroke:#000000"
       inkscape:connector-curvature="0"
       id="path286"
       d="m 210.83,182.28 c -0.73886,1.4054 -4.2474,1.0152 -5.6529,0.27631 -1.4055,-0.73889 -1.9458,-2.4772 -1.207,-3.8826 0.7388,-1.4054 4.2474,-1.0152 5.6529,-0.27631 1.4055,0.73889 1.9458,2.4772 1.207,3.8826 z" />
    <path
       style="fill:#555753"
       inkscape:connector-curvature="0"
       id="path288"
       d="m 213.03,176.4 c 1.1923,1.1314 1.9062,2.6161 1.9062,4.25 0,1.6339 -0.71394,3.1186 -1.9062,4.25 h 9.8438 c -1.1995,-1.1314 -1.9375,-2.6161 -1.9375,-4.25 0,-1.6339 0.73802,-3.1186 1.9375,-4.25 z" />
  </g>
  <g
     id="g300"
     transform="matrix(-0.79366,-0.60837,0.60837,-0.79366,81.4,434.69)"
     inkscape:export-filename="D:\workspace\school\COMP305\Tank-Mania\Assets\Sprites\tank.png"
     inkscape:export-xdpi="60.869999"
     inkscape:export-ydpi="60.869999">
    <path
       style="fill:#888a85"
       inkscape:connector-curvature="0"
       id="path292"
       d="m 206.44,176.34 h 22.624 a 4.25,4.25 0 0 1 4.25,4.25 4.25,4.25 0 0 1 -4.25,4.25 H 206.44 a 4.25,4.25 0 0 1 -4.25,-4.25 4.25,4.25 0 0 1 4.25,-4.25" />
    <path
       style="fill:#382509;fill-rule:evenodd;stroke:#000000"
       inkscape:connector-curvature="0"
       id="path294"
       d="m 231.25,180.57 c 0,1.5878 -3.2872,2.875 -4.875,2.875 -1.5878,0 -2.875,-1.2872 -2.875,-2.875 0,-1.5878 3.2872,-2.875 4.875,-2.875 1.5878,0 2.875,1.2872 2.875,2.875 z" />
    <path
       style="fill:#382509;fill-rule:evenodd;stroke:#000000"
       inkscape:connector-curvature="0"
       id="path296"
       d="m 210.83,182.28 c -0.73886,1.4054 -4.2474,1.0152 -5.6529,0.27631 -1.4055,-0.73889 -1.9458,-2.4772 -1.207,-3.8826 0.7388,-1.4054 4.2474,-1.0152 5.6529,-0.27631 1.4055,0.73889 1.9458,2.4772 1.207,3.8826 z" />
    <path
       style="fill:#555753"
       inkscape:connector-curvature="0"
       id="path298"
       d="m 213.03,176.4 c 1.1923,1.1314 1.9062,2.6161 1.9062,4.25 0,1.6339 -0.71394,3.1186 -1.9062,4.25 h 9.8438 c -1.1995,-1.1314 -1.9375,-2.6161 -1.9375,-4.25 0,-1.6339 0.73802,-3.1186 1.9375,-4.25 z" />
  </g>
  <g
     id="g310"
     transform="matrix(-0.08918,-0.99602,0.99602,-0.08918,-152.38,372.17)"
     inkscape:export-filename="D:\workspace\school\COMP305\Tank-Mania\Assets\Sprites\tank.png"
     inkscape:export-xdpi="60.869999"
     inkscape:export-ydpi="60.869999">
    <path
       style="fill:#888a85"
       inkscape:connector-curvature="0"
       id="path302"
       d="m 206.44,176.34 h 22.624 a 4.25,4.25 0 0 1 4.25,4.25 4.25,4.25 0 0 1 -4.25,4.25 H 206.44 a 4.25,4.25 0 0 1 -4.25,-4.25 4.25,4.25 0 0 1 4.25,-4.25" />
    <path
       style="fill:#382509;fill-rule:evenodd;stroke:#000000"
       inkscape:connector-curvature="0"
       id="path304"
       d="m 231.25,180.57 c 0,1.5878 -3.2872,2.875 -4.875,2.875 -1.5878,0 -2.875,-1.2872 -2.875,-2.875 0,-1.5878 3.2872,-2.875 4.875,-2.875 1.5878,0 2.875,1.2872 2.875,2.875 z" />
    <path
       style="fill:#382509;fill-rule:evenodd;stroke:#000000"
       inkscape:connector-curvature="0"
       id="path306"
       d="m 210.83,182.28 c -0.73886,1.4054 -4.2474,1.0152 -5.6529,0.27631 -1.4055,-0.73889 -1.9458,-2.4772 -1.207,-3.8826 0.7388,-1.4054 4.2474,-1.0152 5.6529,-0.27631 1.4055,0.73889 1.9458,2.4772 1.207,3.8826 z" />
    <path
       style="fill:#555753"
       inkscape:connector-curvature="0"
       id="path308"
       d="m 213.03,176.4 c 1.1923,1.1314 1.9062,2.6161 1.9062,4.25 0,1.6339 -0.71394,3.1186 -1.9062,4.25 h 9.8438 c -1.1995,-1.1314 -1.9375,-2.6161 -1.9375,-4.25 0,-1.6339 0.73802,-3.1186 1.9375,-4.25 z" />
  </g>
  <g
     id="g320"
     transform="matrix(0.82786,-0.56094,0.56094,0.82786,-264.7,94.7)"
     inkscape:export-filename="D:\workspace\school\COMP305\Tank-Mania\Assets\Sprites\tank.png"
     inkscape:export-xdpi="60.869999"
     inkscape:export-ydpi="60.869999">
    <path
       style="fill:#888a85"
       inkscape:connector-curvature="0"
       id="path312"
       d="m 206.44,176.34 h 22.624 a 4.25,4.25 0 0 1 4.25,4.25 4.25,4.25 0 0 1 -4.25,4.25 H 206.44 a 4.25,4.25 0 0 1 -4.25,-4.25 4.25,4.25 0 0 1 4.25,-4.25" />
    <path
       style="fill:#382509;fill-rule:evenodd;stroke:#000000"
       inkscape:connector-curvature="0"
       id="path314"
       d="m 231.25,180.57 c 0,1.5878 -3.2872,2.875 -4.875,2.875 -1.5878,0 -2.875,-1.2872 -2.875,-2.875 0,-1.5878 3.2872,-2.875 4.875,-2.875 1.5878,0 2.875,1.2872 2.875,2.875 z" />
    <path
       style="fill:#382509;fill-rule:evenodd;stroke:#000000"
       inkscape:connector-curvature="0"
       id="path316"
       d="m 210.83,182.28 c -0.73886,1.4054 -4.2474,1.0152 -5.6529,0.27631 -1.4055,-0.73889 -1.9458,-2.4772 -1.207,-3.8826 0.7388,-1.4054 4.2474,-1.0152 5.6529,-0.27631 1.4055,0.73889 1.9458,2.4772 1.207,3.8826 z" />
    <path
       style="fill:#555753"
       inkscape:connector-curvature="0"
       id="path318"
       d="m 213.03,176.4 c 1.1923,1.1314 1.9062,2.6161 1.9062,4.25 0,1.6339 -0.71394,3.1186 -1.9062,4.25 h 9.8438 c -1.1995,-1.1314 -1.9375,-2.6161 -1.9375,-4.25 0,-1.6339 0.73802,-3.1186 1.9375,-4.25 z" />
  </g>
  <g
     id="g330"
     transform="matrix(0.98858,0.15072,-0.15072,0.98858,-148.409,-94.42)"
     inkscape:export-filename="D:\workspace\school\COMP305\Tank-Mania\Assets\Sprites\tank.png"
     inkscape:export-xdpi="60.869999"
     inkscape:export-ydpi="60.869999">
    <path
       style="fill:#888a85"
       inkscape:connector-curvature="0"
       id="path322"
       d="m 206.44,176.34 h 22.624 a 4.25,4.25 0 0 1 4.25,4.25 4.25,4.25 0 0 1 -4.25,4.25 H 206.44 a 4.25,4.25 0 0 1 -4.25,-4.25 4.25,4.25 0 0 1 4.25,-4.25" />
    <path
       style="fill:#382509;fill-rule:evenodd;stroke:#000000"
       inkscape:connector-curvature="0"
       id="path324"
       d="m 231.25,180.57 c 0,1.5878 -3.2872,2.875 -4.875,2.875 -1.5878,0 -2.875,-1.2872 -2.875,-2.875 0,-1.5878 3.2872,-2.875 4.875,-2.875 1.5878,0 2.875,1.2872 2.875,2.875 z" />
    <path
       style="fill:#382509;fill-rule:evenodd;stroke:#000000"
       inkscape:connector-curvature="0"
       id="path326"
       d="m 210.83,182.28 c -0.73886,1.4054 -4.2474,1.0152 -5.6529,0.27631 -1.4055,-0.73889 -1.9458,-2.4772 -1.207,-3.8826 0.7388,-1.4054 4.2474,-1.0152 5.6529,-0.27631 1.4055,0.73889 1.9458,2.4772 1.207,3.8826 z" />
    <path
       style="fill:#555753"
       inkscape:connector-curvature="0"
       id="path328"
       d="m 213.03,176.4 c 1.1923,1.1314 1.9062,2.6161 1.9062,4.25 0,1.6339 -0.71394,3.1186 -1.9062,4.25 h 9.8438 c -1.1995,-1.1314 -1.9375,-2.6161 -1.9375,-4.25 0,-1.6339 0.73802,-3.1186 1.9375,-4.25 z" />
  </g>
  <g
     id="g340"
     transform="matrix(0.99905,-0.0436,0.0436,0.99905,-165.421,-51.17)"
     inkscape:export-filename="D:\workspace\school\COMP305\Tank-Mania\Assets\Sprites\tank.png"
     inkscape:export-xdpi="60.869999"
     inkscape:export-ydpi="60.869999">
    <path
       style="fill:#888a85"
       inkscape:connector-curvature="0"
       id="path332"
       d="m 206.44,176.34 h 22.624 a 4.25,4.25 0 0 1 4.25,4.25 4.25,4.25 0 0 1 -4.25,4.25 H 206.44 a 4.25,4.25 0 0 1 -4.25,-4.25 4.25,4.25 0 0 1 4.25,-4.25" />
    <path
       style="fill:#382509;fill-rule:evenodd;stroke:#000000"
       inkscape:connector-curvature="0"
       id="path334"
       d="m 231.25,180.57 c 0,1.5878 -3.2872,2.875 -4.875,2.875 -1.5878,0 -2.875,-1.2872 -2.875,-2.875 0,-1.5878 3.2872,-2.875 4.875,-2.875 1.5878,0 2.875,1.2872 2.875,2.875 z" />
    <path
       style="fill:#382509;fill-rule:evenodd;stroke:#000000"
       inkscape:connector-curvature="0"
       id="path336"
       d="m 210.83,182.28 c -0.73886,1.4054 -4.2474,1.0152 -5.6529,0.27631 -1.4055,-0.73889 -1.9458,-2.4772 -1.207,-3.8826 0.7388,-1.4054 4.2474,-1.0152 5.6529,-0.27631 1.4055,0.73889 1.9458,2.4772 1.207,3.8826 z" />
    <path
       style="fill:#555753"
       inkscape:connector-curvature="0"
       id="path338"
       d="m 213.03,176.4 c 1.1923,1.1314 1.9062,2.6161 1.9062,4.25 0,1.6339 -0.71394,3.1186 -1.9062,4.25 h 9.8438 c -1.1995,-1.1314 -1.9375,-2.6161 -1.9375,-4.25 0,-1.6339 0.73802,-3.1186 1.9375,-4.25 z" />
  </g>
  <g
     id="g350"
     transform="matrix(0.99905,-0.0436,0.0436,0.99905,-144.921,-53.17)"
     inkscape:export-filename="D:\workspace\school\COMP305\Tank-Mania\Assets\Sprites\tank.png"
     inkscape:export-xdpi="60.869999"
     inkscape:export-ydpi="60.869999">
    <path
       style="fill:#888a85"
       inkscape:connector-curvature="0"
       id="path342"
       d="m 206.44,176.34 h 22.624 a 4.25,4.25 0 0 1 4.25,4.25 4.25,4.25 0 0 1 -4.25,4.25 H 206.44 a 4.25,4.25 0 0 1 -4.25,-4.25 4.25,4.25 0 0 1 4.25,-4.25" />
    <path
       style="fill:#382509;fill-rule:evenodd;stroke:#000000"
       inkscape:connector-curvature="0"
       id="path344"
       d="m 231.25,180.57 c 0,1.5878 -3.2872,2.875 -4.875,2.875 -1.5878,0 -2.875,-1.2872 -2.875,-2.875 0,-1.5878 3.2872,-2.875 4.875,-2.875 1.5878,0 2.875,1.2872 2.875,2.875 z" />
    <path
       style="fill:#382509;fill-rule:evenodd;stroke:#000000"
       inkscape:connector-curvature="0"
       id="path346"
       d="m 210.83,182.28 c -0.73886,1.4054 -4.2474,1.0152 -5.6529,0.27631 -1.4055,-0.73889 -1.9458,-2.4772 -1.207,-3.8826 0.7388,-1.4054 4.2474,-1.0152 5.6529,-0.27631 1.4055,0.73889 1.9458,2.4772 1.207,3.8826 z" />
    <path
       style="fill:#555753"
       inkscape:connector-curvature="0"
       id="path348"
       d="m 213.03,176.4 c 1.1923,1.1314 1.9062,2.6161 1.9062,4.25 0,1.6339 -0.71394,3.1186 -1.9062,4.25 h 9.8438 c -1.1995,-1.1314 -1.9375,-2.6161 -1.9375,-4.25 0,-1.6339 0.73802,-3.1186 1.9375,-4.25 z" />
  </g>
  <g
     id="g360"
     transform="matrix(0.98459,0.17486,-0.17486,0.98459,-83.323,-95.63)"
     inkscape:export-filename="D:\workspace\school\COMP305\Tank-Mania\Assets\Sprites\tank.png"
     inkscape:export-xdpi="60.869999"
     inkscape:export-ydpi="60.869999">
    <path
       style="fill:#888a85"
       inkscape:connector-curvature="0"
       id="path352"
       d="m 206.44,176.34 h 22.624 a 4.25,4.25 0 0 1 4.25,4.25 4.25,4.25 0 0 1 -4.25,4.25 H 206.44 a 4.25,4.25 0 0 1 -4.25,-4.25 4.25,4.25 0 0 1 4.25,-4.25" />
    <path
       style="fill:#382509;fill-rule:evenodd;stroke:#000000"
       inkscape:connector-curvature="0"
       id="path354"
       d="m 231.25,180.57 c 0,1.5878 -3.2872,2.875 -4.875,2.875 -1.5878,0 -2.875,-1.2872 -2.875,-2.875 0,-1.5878 3.2872,-2.875 4.875,-2.875 1.5878,0 2.875,1.2872 2.875,2.875 z" />
    <path
       style="fill:#382509;fill-rule:evenodd;stroke:#000000"
       inkscape:connector-curvature="0"
       id="path356"
       d="m 210.83,182.28 c -0.73886,1.4054 -4.2474,1.0152 -5.6529,0.27631 -1.4055,-0.73889 -1.9458,-2.4772 -1.207,-3.8826 0.7388,-1.4054 4.2474,-1.0152 5.6529,-0.27631 1.4055,0.73889 1.9458,2.4772 1.207,3.8826 z" />
    <path
       style="fill:#555753"
       inkscape:connector-curvature="0"
       id="path358"
       d="m 213.03,176.4 c 1.1923,1.1314 1.9062,2.6161 1.9062,4.25 0,1.6339 -0.71394,3.1186 -1.9062,4.25 h 9.8438 c -1.1995,-1.1314 -1.9375,-2.6161 -1.9375,-4.25 0,-1.6339 0.73802,-3.1186 1.9375,-4.25 z" />
  </g>
  <g
     id="g370"
     transform="matrix(0.99231,-0.12377,0.12377,0.99231,-115.431,-31.5)"
     inkscape:export-filename="D:\workspace\school\COMP305\Tank-Mania\Assets\Sprites\tank.png"
     inkscape:export-xdpi="60.869999"
     inkscape:export-ydpi="60.869999">
    <path
       style="fill:#888a85"
       inkscape:connector-curvature="0"
       id="path362"
       d="m 206.44,176.34 h 22.624 a 4.25,4.25 0 0 1 4.25,4.25 4.25,4.25 0 0 1 -4.25,4.25 H 206.44 a 4.25,4.25 0 0 1 -4.25,-4.25 4.25,4.25 0 0 1 4.25,-4.25" />
    <path
       style="fill:#382509;fill-rule:evenodd;stroke:#000000"
       inkscape:connector-curvature="0"
       id="path364"
       d="m 231.25,180.57 c 0,1.5878 -3.2872,2.875 -4.875,2.875 -1.5878,0 -2.875,-1.2872 -2.875,-2.875 0,-1.5878 3.2872,-2.875 4.875,-2.875 1.5878,0 2.875,1.2872 2.875,2.875 z" />
    <path
       style="fill:#382509;fill-rule:evenodd;stroke:#000000"
       inkscape:connector-curvature="0"
       id="path366"
       d="m 210.83,182.28 c -0.73886,1.4054 -4.2474,1.0152 -5.6529,0.27631 -1.4055,-0.73889 -1.9458,-2.4772 -1.207,-3.8826 0.7388,-1.4054 4.2474,-1.0152 5.6529,-0.27631 1.4055,0.73889 1.9458,2.4772 1.207,3.8826 z" />
    <path
       style="fill:#555753"
       inkscape:connector-curvature="0"
       id="path368"
       d="m 213.03,176.4 c 1.1923,1.1314 1.9062,2.6161 1.9062,4.25 0,1.6339 -0.71394,3.1186 -1.9062,4.25 h 9.8438 c -1.1995,-1.1314 -1.9375,-2.6161 -1.9375,-4.25 0,-1.6339 0.73802,-3.1186 1.9375,-4.25 z" />
  </g>
  <path
     style="fill:#444643;stroke-width:0.60175425"
     inkscape:connector-curvature="0"
     id="path372"
     d="m 250.81295,126.62637 c -0.82555,6.23633 -6.55034,10.62286 -12.78691,9.79727 -6.23658,-0.82558 -10.62286,-6.55034 -9.79728,-12.78692 0.82559,-6.23657 6.55035,-10.62285 12.78692,-9.79727 6.23657,0.82559 10.62286,6.55035 9.79727,12.78692 z"
     inkscape:export-filename="D:\workspace\school\COMP305\Tank-Mania\Assets\Sprites\tank.png"
     inkscape:export-xdpi="60.869999"
     inkscape:export-ydpi="60.869999" />
  <path
     style="fill:#888a85;stroke-width:0.41189173"
     inkscape:connector-curvature="0"
     id="path374"
     d="m 236.4162,132.21795 c -0.34755,0.26629 -1.76632,0.45207 -2.17071,0.2842 -0.4044,-0.16787 -1.27466,-1.30362 -1.3315,-1.73776 -0.0568,-0.43414 0.49166,-1.7557 0.8392,-2.02201 0.34753,-0.26632 1.76632,-0.45208 2.17071,-0.28421 0.4044,0.16787 1.27466,1.30362 1.33149,1.73776 0.0568,0.43414 -0.49165,1.7557 -0.83919,2.02202 z"
     inkscape:export-filename="D:\workspace\school\COMP305\Tank-Mania\Assets\Sprites\tank.png"
     inkscape:export-xdpi="60.869999"
     inkscape:export-ydpi="60.869999" />
  <path
     style="fill:#888a85;stroke-width:0.41189173"
     inkscape:connector-curvature="0"
     id="path376"
     d="m 246.5062,121.92795 c -0.34755,0.26629 -1.76632,0.45207 -2.17071,0.2842 -0.4044,-0.16787 -1.27466,-1.30362 -1.3315,-1.73776 -0.0568,-0.43414 0.49166,-1.7557 0.8392,-2.02201 0.34753,-0.26632 1.76632,-0.45208 2.17071,-0.28421 0.4044,0.16787 1.27466,1.30362 1.33149,1.73776 0.0568,0.43414 -0.49165,1.7557 -0.83919,2.02202 z"
     inkscape:export-filename="D:\workspace\school\COMP305\Tank-Mania\Assets\Sprites\tank.png"
     inkscape:export-xdpi="60.869999"
     inkscape:export-ydpi="60.869999" />
  <path
     style="fill:#888a85;stroke-width:0.41189173"
     inkscape:connector-curvature="0"
     id="path378"
     d="m 233.8862,124.61795 c -0.34755,0.26629 -1.76632,0.45207 -2.17071,0.2842 -0.4044,-0.16787 -1.27466,-1.30362 -1.3315,-1.73776 -0.0568,-0.43414 0.49166,-1.7557 0.8392,-2.02201 0.34753,-0.26632 1.76632,-0.45208 2.17071,-0.28421 0.4044,0.16787 1.27466,1.30362 1.33149,1.73776 0.0568,0.43414 -0.49165,1.7557 -0.83919,2.02202 z"
     inkscape:export-filename="D:\workspace\school\COMP305\Tank-Mania\Assets\Sprites\tank.png"
     inkscape:export-xdpi="60.869999"
     inkscape:export-ydpi="60.869999" />
  <path
     style="fill:#888a85;stroke-width:0.41189173"
     inkscape:connector-curvature="0"
     id="path380"
     d="m 239.3962,119.11795 c -0.34755,0.26629 -1.76632,0.45207 -2.17071,0.2842 -0.4044,-0.16787 -1.27466,-1.30362 -1.3315,-1.73776 -0.0568,-0.43414 0.49166,-1.7557 0.8392,-2.02201 0.34753,-0.26632 1.76632,-0.45208 2.17071,-0.28421 0.4044,0.16787 1.27466,1.30362 1.33149,1.73776 0.0568,0.43414 -0.49165,1.7557 -0.83919,2.02202 z"
     inkscape:export-filename="D:\workspace\school\COMP305\Tank-Mania\Assets\Sprites\tank.png"
     inkscape:export-xdpi="60.869999"
     inkscape:export-ydpi="60.869999" />
  <path
     style="fill:#888a85;stroke-width:0.41189173"
     inkscape:connector-curvature="0"
     id="path382"
     d="m 243.7862,133.81795 c -0.34755,0.26629 -1.76632,0.45207 -2.17071,0.2842 -0.4044,-0.16787 -1.27466,-1.30362 -1.3315,-1.73776 -0.0568,-0.43414 0.49166,-1.7557 0.8392,-2.02201 0.34753,-0.26632 1.76632,-0.45208 2.17071,-0.28421 0.4044,0.16787 1.27466,1.30362 1.33149,1.73776 0.0568,0.43414 -0.49165,1.7557 -0.83919,2.02202 z"
     inkscape:export-filename="D:\workspace\school\COMP305\Tank-Mania\Assets\Sprites\tank.png"
     inkscape:export-xdpi="60.869999"
     inkscape:export-ydpi="60.869999" />
  <path
     style="fill:#888a85;stroke-width:0.41189173"
     inkscape:connector-curvature="0"
     id="path384"
     d="m 247.7462,128.21795 c -0.34755,0.26629 -1.76632,0.45207 -2.17071,0.2842 -0.4044,-0.16787 -1.27466,-1.30362 -1.3315,-1.73776 -0.0568,-0.43414 0.49166,-1.7557 0.8392,-2.02201 0.34753,-0.26632 1.76632,-0.45208 2.17071,-0.28421 0.4044,0.16787 1.27466,1.30362 1.33149,1.73776 0.0568,0.43414 -0.49165,1.7557 -0.83919,2.02202 z"
     inkscape:export-filename="D:\workspace\school\COMP305\Tank-Mania\Assets\Sprites\tank.png"
     inkscape:export-xdpi="60.869999"
     inkscape:export-ydpi="60.869999" />
  <path
     style="fill:#444643;stroke-width:0.81652236"
     inkscape:connector-curvature="0"
     id="path386"
     d="m 45.712164,141.12369 c -1.120251,8.4621 -8.888281,14.41413 -17.3507,13.29384 -8.462419,-1.12029 -14.41413,-8.88828 -13.293837,-17.3507 1.120294,-8.46242 8.888282,-14.41413 17.3507,-13.29384 8.462419,1.1203 14.414131,8.88828 13.293837,17.3507 z"
     inkscape:export-filename="D:\workspace\school\COMP305\Tank-Mania\Assets\Sprites\tank.png"
     inkscape:export-xdpi="60.869999"
     inkscape:export-ydpi="60.869999" />
  <path
     style="fill:#888a85;stroke-width:0.55890411"
     inkscape:connector-curvature="0"
     id="path388"
     d="m 26.178157,148.72334 c -0.471606,0.36134 -2.396762,0.6134 -2.945495,0.3856 -0.548734,-0.22779 -1.729582,-1.76893 -1.80669,-2.35803 -0.07711,-0.5891 0.66717,-2.38233 1.138757,-2.7437 0.471587,-0.36136 2.396763,-0.61339 2.945496,-0.3856 0.548733,0.2278 1.729581,1.76894 1.80669,2.35804 0.07711,0.58909 -0.667171,2.38233 -1.138758,2.74369 z"
     inkscape:export-filename="D:\workspace\school\COMP305\Tank-Mania\Assets\Sprites\tank.png"
     inkscape:export-xdpi="60.869999"
     inkscape:export-ydpi="60.869999" />
  <path
     style="fill:#888a85;stroke-width:0.55890411"
     inkscape:connector-curvature="0"
     id="path390"
     d="m 39.867157,134.74334 c -0.471606,0.36134 -2.396762,0.6134 -2.945495,0.3856 -0.548734,-0.22779 -1.729582,-1.76893 -1.80669,-2.35803 -0.07711,-0.5891 0.66717,-2.38233 1.138757,-2.7437 0.471587,-0.36136 2.396763,-0.61339 2.945496,-0.3856 0.548733,0.2278 1.729581,1.76894 1.80669,2.35804 0.07711,0.58909 -0.667171,2.38233 -1.138758,2.74369 z"
     inkscape:export-filename="D:\workspace\school\COMP305\Tank-Mania\Assets\Sprites\tank.png"
     inkscape:export-xdpi="60.869999"
     inkscape:export-ydpi="60.869999" />
  <path
     style="fill:#888a85;stroke-width:0.55890411"
     inkscape:connector-curvature="0"
     id="path392"
     d="m 22.752157,138.40334 c -0.471606,0.36134 -2.396762,0.6134 -2.945495,0.3856 -0.548734,-0.22779 -1.729582,-1.76893 -1.80669,-2.35803 -0.07711,-0.5891 0.66717,-2.38233 1.138757,-2.7437 0.471587,-0.36136 2.396763,-0.61339 2.945496,-0.3856 0.548733,0.2278 1.729581,1.76894 1.80669,2.35804 0.07711,0.58909 -0.667171,2.38233 -1.138758,2.74369 z"
     inkscape:export-filename="D:\workspace\school\COMP305\Tank-Mania\Assets\Sprites\tank.png"
     inkscape:export-xdpi="60.869999"
     inkscape:export-ydpi="60.869999" />
  <path
     style="fill:#888a85;stroke-width:0.55890411"
     inkscape:connector-curvature="0"
     id="path394"
     d="m 30.224157,130.93334 c -0.471606,0.36134 -2.396762,0.6134 -2.945495,0.3856 -0.548734,-0.22779 -1.729582,-1.76893 -1.80669,-2.35803 -0.07711,-0.5891 0.66717,-2.38233 1.138757,-2.7437 0.471587,-0.36136 2.396763,-0.61339 2.945496,-0.3856 0.548733,0.2278 1.729581,1.76894 1.80669,2.35804 0.07711,0.58909 -0.667171,2.38233 -1.138758,2.74369 z"
     inkscape:export-filename="D:\workspace\school\COMP305\Tank-Mania\Assets\Sprites\tank.png"
     inkscape:export-xdpi="60.869999"
     inkscape:export-ydpi="60.869999" />
  <path
     style="fill:#888a85;stroke-width:0.55890411"
     inkscape:connector-curvature="0"
     id="path396"
     d="m 36.180157,150.89334 c -0.471606,0.36134 -2.396762,0.6134 -2.945495,0.3856 -0.548734,-0.22779 -1.729582,-1.76893 -1.80669,-2.35803 -0.07711,-0.5891 0.66717,-2.38233 1.138757,-2.7437 0.471587,-0.36136 2.396763,-0.61339 2.945496,-0.3856 0.548733,0.2278 1.729581,1.76894 1.80669,2.35804 0.07711,0.58909 -0.667171,2.38233 -1.138758,2.74369 z"
     inkscape:export-filename="D:\workspace\school\COMP305\Tank-Mania\Assets\Sprites\tank.png"
     inkscape:export-xdpi="60.869999"
     inkscape:export-ydpi="60.869999" />
  <path
     style="fill:#888a85;stroke-width:0.55890411"
     inkscape:connector-curvature="0"
     id="path398"
     d="m 41.556157,143.28334 c -0.471606,0.36134 -2.396762,0.6134 -2.945495,0.3856 -0.548734,-0.22779 -1.729582,-1.76893 -1.80669,-2.35803 -0.07711,-0.5891 0.66717,-2.38233 1.138757,-2.7437 0.471587,-0.36136 2.396763,-0.61339 2.945496,-0.3856 0.548733,0.2278 1.729581,1.76894 1.80669,2.35804 0.07711,0.58909 -0.667171,2.38233 -1.138758,2.74369 z"
     inkscape:export-filename="D:\workspace\school\COMP305\Tank-Mania\Assets\Sprites\tank.png"
     inkscape:export-xdpi="60.869999"
     inkscape:export-ydpi="60.869999" />
  <path
     style="fill:#73d216"
     inkscape:connector-curvature="0"
     id="path400"
     d="m 21.63,104.27 15.774,1.2071 c 0,0 2.3897,-24.535 14.991,-30.422 -15.441,-7.1066 -30.765,29.215 -30.765,29.215 z"
     inkscape:export-filename="D:\workspace\school\COMP305\Tank-Mania\Assets\Sprites\tank.png"
     inkscape:export-xdpi="60.869999"
     inkscape:export-ydpi="60.869999" />
  <g
     id="g366"
     transform="matrix(-1.490344e-4,0.29150568,-0.29150568,-1.490344e-4,286.3189,-136.25224)"
     inkscape:export-xdpi="60.869999"
     inkscape:export-ydpi="60.869999"
     inkscape:export-filename="D:\workspace\school\COMP305\Tank-Mania\Assets\Sprites\shell.png">
    <path
       inkscape:connector-curvature="0"
       style="opacity:0.5;fill:url(#i)"
       id="path356-8"
       d="m 739.12,-90.969 c -17.459,0 -31.625,27.226 -31.625,60.812 0,4.578 0.28283,9.0236 0.78125,13.312 v 142.91 h -4 v 13.844 h 70.844 v -13.844 h -3.625 v -158.88 h -0.8125 c -0.7245,-32.351 -14.568,-58.156 -31.562,-58.156 z" />
    <path
       inkscape:connector-curvature="0"
       style="fill:url(#radialGradient422)"
       id="path358-0"
       d="m 742.12,-92.969 c -17.459,0 -31.625,27.226 -31.625,60.812 0,4.578 0.28283,9.0236 0.78125,13.312 v -15.969 h 62.406 c -0.7245,-32.351 -14.568,-58.156 -31.562,-58.156 z" />
    <path
       inkscape:connector-curvature="0"
       style="fill:url(#h)"
       id="path360"
       d="m 711.29,-34.801 h 63.223 v 172.71 H 711.29 Z" />
    <path
       inkscape:connector-curvature="0"
       style="fill:url(#linearGradient424)"
       id="path362-4"
       d="m 711.28,122.06 v 13.844 h 63.219 V 122.06 Z" />
    <path
       inkscape:connector-curvature="0"
       style="fill:url(#linearGradient426)"
       id="path364-0"
       d="m 707.29,124.05 h 70.821 v 13.856 H 707.29 Z" />
  </g>
</svg>
