<?xml version="1.0" encoding="UTF-8"?>
<svg viewBox="0 0 315.41678 181.35577" xmlns="http://www.w3.org/2000/svg">
 <g transform="translate(-104.19 -215.98)">
  <path d="m135.21 372.01c-6.4047-5.3371-1.7946-25.684-13.165-52.044l236.28 0.35355c-16.604 10.842-30.318 36.915-58.818 47.915l-64.755 0.6519c-35.605 0.36038-70.513 0.78168-77.612 0.90541l-21.929 2.2173z" fill="#2e5b04"/>
  <path transform="matrix(1.3288 .6072 -.6072 1.3288 360.71 -358.04)" d="m187.86 462.01c0 10.454-8.4746 18.929-18.929 18.929s-18.929-8.4746-18.929-18.929 8.4746-18.929 18.929-18.929 18.929 8.4746 18.929 18.929z" fill="#444643"/>
  <path transform="matrix(.90954 .41562 -.41562 .90954 236.06 94.786)" d="m166.76 229.36c-0.75166 0.75166-4.1072 1.6508-5.134 1.3756s-3.4832-2.7315-3.7583-3.7583 0.62398-4.3823 1.3756-5.134 4.1072-1.6508 5.134-1.3756 3.4832 2.7315 3.7583 3.7583-0.62398 4.3823-1.3756 5.134z" fill="#888a85"/>
  <path transform="matrix(.90954 .41562 -.41562 .90954 266.79 78.047)" d="m166.76 229.36c-0.75166 0.75166-4.1072 1.6508-5.134 1.3756s-3.4832-2.7315-3.7583-3.7583 0.62398-4.3823 1.3756-5.134 4.1072-1.6508 5.134-1.3756 3.4832 2.7315 3.7583 3.7583-0.62398 4.3823-1.3756 5.134z" fill="#888a85"/>
  <path transform="matrix(.90954 .41562 -.41562 .90954 235.6 75.336)" d="m166.76 229.36c-0.75166 0.75166-4.1072 1.6508-5.134 1.3756s-3.4832-2.7315-3.7583-3.7583 0.62398-4.3823 1.3756-5.134 4.1072-1.6508 5.134-1.3756 3.4832 2.7315 3.7583 3.7583-0.62398 4.3823-1.3756 5.134z" fill="#888a85"/>
  <path transform="matrix(.90954 .41562 -.41562 .90954 252.29 66.473)" d="m166.76 229.36c-0.75166 0.75166-4.1072 1.6508-5.134 1.3756s-3.4832-2.7315-3.7583-3.7583 0.62398-4.3823 1.3756-5.134 4.1072-1.6508 5.134-1.3756 3.4832 2.7315 3.7583 3.7583-0.62398 4.3823-1.3756 5.134z" fill="#888a85"/>
  <path transform="matrix(.90954 .41562 -.41562 .90954 252.03 103.74)" d="m166.76 229.36c-0.75166 0.75166-4.1072 1.6508-5.134 1.3756s-3.4832-2.7315-3.7583-3.7583 0.62398-4.3823 1.3756-5.134 4.1072-1.6508 5.134-1.3756 3.4832 2.7315 3.7583 3.7583-0.62398 4.3823-1.3756 5.134z" fill="#888a85"/>
  <path transform="matrix(.90954 .41562 -.41562 .90954 265.21 93.541)" d="m166.76 229.36c-0.75166 0.75166-4.1072 1.6508-5.134 1.3756s-3.4832-2.7315-3.7583-3.7583 0.62398-4.3823 1.3756-5.134 4.1072-1.6508 5.134-1.3756 3.4832 2.7315 3.7583 3.7583-0.62398 4.3823-1.3756 5.134z" fill="#888a85"/>
  <path d="m299.66 331.47c-10.619 1.7548-18.816 9.3405-21.86 18.942l48.653-8.0397c-5.9719-8.112-16.173-12.658-26.792-10.903z" fill="#2e3436" opacity=".6898"/>
  <path transform="matrix(1.461 0 0 1.461 -3.1438 -310.53)" d="m187.86 462.01c0 10.454-8.4746 18.929-18.929 18.929s-18.929-8.4746-18.929-18.929 8.4746-18.929 18.929-18.929 18.929 8.4746 18.929 18.929z" fill="#444643"/>
  <path transform="translate(71.68 153.15)" d="m166.76 229.36c-0.75166 0.75166-4.1072 1.6508-5.134 1.3756s-3.4832-2.7315-3.7583-3.7583 0.62398-4.3823 1.3756-5.134 4.1072-1.6508 5.134-1.3756 3.4832 2.7315 3.7583 3.7583-0.62398 4.3823-1.3756 5.134z" fill="#888a85"/>
  <path transform="translate(92.68 125.15)" d="m166.76 229.36c-0.75166 0.75166-4.1072 1.6508-5.134 1.3756s-3.4832-2.7315-3.7583-3.7583 0.62398-4.3823 1.3756-5.134 4.1072-1.6508 5.134-1.3756 3.4832 2.7315 3.7583 3.7583-0.62398 4.3823-1.3756 5.134z" fill="#888a85"/>
  <path transform="translate(63.18 135.65)" d="m166.76 229.36c-0.75166 0.75166-4.1072 1.6508-5.134 1.3756s-3.4832-2.7315-3.7583-3.7583 0.62398-4.3823 1.3756-5.134 4.1072-1.6508 5.134-1.3756 3.4832 2.7315 3.7583 3.7583-0.62398 4.3823-1.3756 5.134z" fill="#888a85"/>
  <path transform="translate(74.68 120.65)" d="m166.76 229.36c-0.75166 0.75166-4.1072 1.6508-5.134 1.3756s-3.4832-2.7315-3.7583-3.7583 0.62398-4.3823 1.3756-5.134 4.1072-1.6508 5.134-1.3756 3.4832 2.7315 3.7583 3.7583-0.62398 4.3823-1.3756 5.134z" fill="#888a85"/>
  <path transform="translate(89.93 154.65)" d="m166.76 229.36c-0.75166 0.75166-4.1072 1.6508-5.134 1.3756s-3.4832-2.7315-3.7583-3.7583 0.62398-4.3823 1.3756-5.134 4.1072-1.6508 5.134-1.3756 3.4832 2.7315 3.7583 3.7583-0.62398 4.3823-1.3756 5.134z" fill="#888a85"/>
  <path transform="translate(97.68 139.9)" d="m166.76 229.36c-0.75166 0.75166-4.1072 1.6508-5.134 1.3756s-3.4832-2.7315-3.7583-3.7583 0.62398-4.3823 1.3756-5.134 4.1072-1.6508 5.134-1.3756 3.4832 2.7315 3.7583 3.7583-0.62398 4.3823-1.3756 5.134z" fill="#888a85"/>
  <path d="m238.66 337.47c-10.619 1.7548-18.816 9.3405-21.86 18.942l48.653-8.0397c-5.9719-8.112-16.173-12.658-26.792-10.903z" fill="#2e3436" opacity=".6898"/>
  <path transform="matrix(1.461 0 0 1.461 -63.137 -311.94)" d="m187.86 462.01c0 10.454-8.4746 18.929-18.929 18.929s-18.929-8.4746-18.929-18.929 8.4746-18.929 18.929-18.929 18.929 8.4746 18.929 18.929z" fill="#444643"/>
  <path transform="translate(11.687 151.73)" d="m166.76 229.36c-0.75166 0.75166-4.1072 1.6508-5.134 1.3756s-3.4832-2.7315-3.7583-3.7583 0.62398-4.3823 1.3756-5.134 4.1072-1.6508 5.134-1.3756 3.4832 2.7315 3.7583 3.7583-0.62398 4.3823-1.3756 5.134z" fill="#888a85"/>
  <path transform="translate(32.687 123.73)" d="m166.76 229.36c-0.75166 0.75166-4.1072 1.6508-5.134 1.3756s-3.4832-2.7315-3.7583-3.7583 0.62398-4.3823 1.3756-5.134 4.1072-1.6508 5.134-1.3756 3.4832 2.7315 3.7583 3.7583-0.62398 4.3823-1.3756 5.134z" fill="#888a85"/>
  <path transform="translate(3.1873 134.23)" d="m166.76 229.36c-0.75166 0.75166-4.1072 1.6508-5.134 1.3756s-3.4832-2.7315-3.7583-3.7583 0.62398-4.3823 1.3756-5.134 4.1072-1.6508 5.134-1.3756 3.4832 2.7315 3.7583 3.7583-0.62398 4.3823-1.3756 5.134z" fill="#888a85"/>
  <path transform="translate(14.687 119.23)" d="m166.76 229.36c-0.75166 0.75166-4.1072 1.6508-5.134 1.3756s-3.4832-2.7315-3.7583-3.7583 0.62398-4.3823 1.3756-5.134 4.1072-1.6508 5.134-1.3756 3.4832 2.7315 3.7583 3.7583-0.62398 4.3823-1.3756 5.134z" fill="#888a85"/>
  <path transform="translate(29.937 153.23)" d="m166.76 229.36c-0.75166 0.75166-4.1072 1.6508-5.134 1.3756s-3.4832-2.7315-3.7583-3.7583 0.62398-4.3823 1.3756-5.134 4.1072-1.6508 5.134-1.3756 3.4832 2.7315 3.7583 3.7583-0.62398 4.3823-1.3756 5.134z" fill="#888a85"/>
  <path transform="translate(37.687 138.48)" d="m166.76 229.36c-0.75166 0.75166-4.1072 1.6508-5.134 1.3756s-3.4832-2.7315-3.7583-3.7583 0.62398-4.3823 1.3756-5.134 4.1072-1.6508 5.134-1.3756 3.4832 2.7315 3.7583 3.7583-0.62398 4.3823-1.3756 5.134z" fill="#888a85"/>
  <path transform="translate(104.19 215.98)" d="m58 63.356h115v13h-115z" fill="#2e5b04"/>
  <path d="m218.71 215.98c-10.863 0-13.259 0.2994-19.267 2.4265-9.3746 3.319-18.026 7.1226-24.156 14.161-12.187 13.991-21.295 51.428-21.295 51.428l9.4525 0.32595c5.1964 0.17257 34.318 0.39716 64.719 0.50703l55.267 0.2173-0.57946-8.8368c-0.29241-4.4515-0.90216-8.481-1.8833-12.35l110.86 3.1856 8.0892 7.7655 19.689-6.9673v-29.118l-18.493-7.5839-10.455 8.4114-119.29 3.4098c-7.6698-10.983-19.294-19.564-33.392-24.555-6.008-2.1271-8.4044-2.4265-19.267-2.4265z" fill="#4e9a06"/>
  <path d="m142.71 286.97c-6.4047 5.3371-11.795 13.184-23.165 39.544l238.94-5.5c-16.604-10.842-31.979-21.269-60.479-32.269l-64.755-0.6519c-35.605-0.36038-70.513-0.78168-77.612-0.90541l-12.929-0.2173z" fill="#4e9a06"/>
  <path d="m183.44 335.95c-10.763 0-20.087 6.1479-24.656 15.125h49.312c-4.5694-8.9771-13.893-15.125-24.656-15.125z" fill="#2e3436" opacity=".6898"/>
  <g fill="#444643">
   <path transform="matrix(.8983 0 0 .8983 -18.459 -61.462)" d="m187.86 462.01c0 10.454-8.4746 18.929-18.929 18.929s-18.929-8.4746-18.929-18.929 8.4746-18.929 18.929-18.929 18.929 8.4746 18.929 18.929z"/>
   <g transform="matrix(.58491 0 0 .58491 -10.847 61.865)">
    <path d="m246.43 461.22a6.0104 6.0104 0 0 1 6.0104 6.0104v12.021a6.0104 6.0104 0 0 1 -6.0104 6.0104 6.0104 6.0104 0 0 1 -6.0104 -6.0104v-12.021a6.0104 6.0104 0 0 1 6.0104 -6.0104"/>
    <path d="m246.43 512.13a6.0104 6.0104 0 0 1 6.0104 6.0104v12.021a6.0104 6.0104 0 0 1 -6.0104 6.0104 6.0104 6.0104 0 0 1 -6.0104 -6.0104v-12.021a6.0104 6.0104 0 0 1 6.0104 -6.0104"/>
   </g>
   <g transform="matrix(.41359 -.41359 .41359 .41359 -174.89 249.22)">
    <path d="m246.43 461.22a6.0104 6.0104 0 0 1 6.0104 6.0104v12.021a6.0104 6.0104 0 0 1 -6.0104 6.0104 6.0104 6.0104 0 0 1 -6.0104 -6.0104v-12.021a6.0104 6.0104 0 0 1 6.0104 -6.0104"/>
    <path d="m246.43 512.13a6.0104 6.0104 0 0 1 6.0104 6.0104v12.021a6.0104 6.0104 0 0 1 -6.0104 6.0104 6.0104 6.0104 0 0 1 -6.0104 -6.0104v-12.021a6.0104 6.0104 0 0 1 6.0104 -6.0104"/>
   </g>
   <g transform="matrix(0 -.58491 .58491 0 -158.4 497.69)">
    <path d="m246.43 461.22a6.0104 6.0104 0 0 1 6.0104 6.0104v12.021a6.0104 6.0104 0 0 1 -6.0104 6.0104 6.0104 6.0104 0 0 1 -6.0104 -6.0104v-12.021a6.0104 6.0104 0 0 1 6.0104 -6.0104"/>
    <path d="m246.43 512.13a6.0104 6.0104 0 0 1 6.0104 6.0104v12.021a6.0104 6.0104 0 0 1 -6.0104 6.0104 6.0104 6.0104 0 0 1 -6.0104 -6.0104v-12.021a6.0104 6.0104 0 0 1 6.0104 -6.0104"/>
   </g>
   <g transform="matrix(-.41359 -.41359 .41359 -.41359 28.953 661.73)">
    <path d="m246.43 461.22a6.0104 6.0104 0 0 1 6.0104 6.0104v12.021a6.0104 6.0104 0 0 1 -6.0104 6.0104 6.0104 6.0104 0 0 1 -6.0104 -6.0104v-12.021a6.0104 6.0104 0 0 1 6.0104 -6.0104"/>
    <path d="m246.43 512.13a6.0104 6.0104 0 0 1 6.0104 6.0104v12.021a6.0104 6.0104 0 0 1 -6.0104 6.0104 6.0104 6.0104 0 0 1 -6.0104 -6.0104v-12.021a6.0104 6.0104 0 0 1 6.0104 -6.0104"/>
   </g>
  </g>
  <path d="m344.28 324.14c-1.5034 0-2.7188 1.2154-2.7188 2.7188v1.375c-1.5973 0.33932-3.113 0.95004-4.4375 1.8125l-0.96875-0.96875c-1.063-1.063-2.7807-1.063-3.8438 0s-1.063 2.7807 0 3.8438l1 1c-0.87234 1.3371-1.5367 2.8224-1.875 4.4375h-1.3438c-1.5034 0-2.7188 1.1842-2.7188 2.6875s1.2154 2.7188 2.7188 2.7188h1.3438c0.33716 1.609 0.97631 3.1042 1.8438 4.4375l-0.96875 0.96875c-1.063 1.063-1.063 2.7807 0 3.8438s2.7807 1.063 3.8438 0l0.96875-0.96875c1.328 0.867 2.8347 1.5033 4.4375 1.8438v1.375c0 1.5034 1.2154 2.7188 2.7188 2.7188s2.7188-1.2154 2.7188-2.7188v-1.375c1.6221-0.3409 3.1277-0.96432 4.4688-1.8438l0.9375 0.96875c1.063 1.063 2.7807 1.063 3.8438 0s1.063-2.7807 0-3.8438l-0.96875-0.9375c0.87835-1.3403 1.5031-2.8479 1.8438-4.4688h1.375c1.5034 0 2.7188-1.2154 2.7188-2.7188s-1.2154-2.6875-2.7188-2.6875h-1.375c-0.34054-1.6215-0.96511-3.128-1.8438-4.4688l0.96875-0.96875c1.063-1.063 1.063-2.7807 0-3.8438s-2.7807-1.063-3.8438 0l-0.96875 0.96875c-1.3322-0.86746-2.8297-1.4746-4.4375-1.8125v-1.375c0-1.5034-1.2154-2.7188-2.7188-2.7188z" fill="#444643"/>
  <path transform="translate(104.19 215.98)" d="m57.629 63.269 22.274 0.70711s11.89-52.535 28.991-56.922c-33.941-10.607-51.265 56.215-51.265 56.215z" fill="#73d216"/>
  <path transform="translate(104.19 215.98)" d="m286.38 25.781-108.59 2.8125c0.70006 0.68983 1.5308 1.5446 2.4062 2.5625l105.47 1.7188 0.71875-7.0938z" fill="#73d216"/>
  <path transform="translate(104.19 215.98)" d="m167.05 26.853s10.607 18.031 9.546 20.86l11.137 0.35355c-0.35355-12.021-12.021-21.39-12.021-21.39l-8.6621 0.17678z" opacity=".40613"/>
  <path transform="translate(104.19 215.98)" d="m287.25 25.731-0.125 6 10.75-2.25-1-10.75-9.625 7z" fill="#73d216"/>
  <path d="m419.56 240.21-1 5.25-15 0.125-0.625-11.625 16.625 6.25z" fill="#73d216"/>
  <path transform="translate(104.19 215.98)" d="m299.46 30.212-3.3588 27.577 1.4142-27.754 1.9445 0.17678z" fill="#73d216"/>
  <path transform="matrix(.75167 .12714 -.12714 .75167 147.68 225.52)" d="m121.5 44.356-15.413-5.7227-13.452 9.4529 0.67957-16.427-13.147-9.8728 15.833-4.43 5.3268-15.555 9.106 13.69 16.439 0.25948-10.206 12.891 4.8333 15.715z" fill="#fff"/>
  <g transform="matrix(.9951 -.09883 .09883 .9951 17.875 175.67)">
   <path d="m206.44 176.34h22.624a4.25 4.25 0 0 1 4.25 4.25 4.25 4.25 0 0 1 -4.25 4.25h-22.624a4.25 4.25 0 0 1 -4.25 -4.25 4.25 4.25 0 0 1 4.25 -4.25" fill="#888a85"/>
   <path d="m231.25 180.57c0 1.5878-3.2872 2.875-4.875 2.875s-2.875-1.2872-2.875-2.875 3.2872-2.875 4.875-2.875 2.875 1.2872 2.875 2.875z" fill="#382509" fill-rule="evenodd" stroke="#000"/>
   <path d="m210.83 182.28c-0.73886 1.4054-4.2474 1.0152-5.6529 0.27631s-1.9458-2.4772-1.207-3.8826 4.2474-1.0152 5.6529-0.27631 1.9458 2.4772 1.207 3.8826z" fill="#382509" fill-rule="evenodd" stroke="#000"/>
   <path d="m213.03 176.4c1.1923 1.1314 1.9062 2.6161 1.9062 4.25s-0.71394 3.1186-1.9062 4.25h9.8438c-1.1995-1.1314-1.9375-2.6161-1.9375-4.25s0.73802-3.1186 1.9375-4.25h-9.8438z" fill="#555753"/>
  </g>
  <g transform="matrix(.9593 -.28238 .28238 .9593 12.66 219.45)">
   <path d="m206.44 176.34h22.624a4.25 4.25 0 0 1 4.25 4.25 4.25 4.25 0 0 1 -4.25 4.25h-22.624a4.25 4.25 0 0 1 -4.25 -4.25 4.25 4.25 0 0 1 4.25 -4.25" fill="#888a85"/>
   <path d="m231.25 180.57c0 1.5878-3.2872 2.875-4.875 2.875s-2.875-1.2872-2.875-2.875 3.2872-2.875 4.875-2.875 2.875 1.2872 2.875 2.875z" fill="#382509" fill-rule="evenodd" stroke="#000"/>
   <path d="m210.83 182.28c-0.73886 1.4054-4.2474 1.0152-5.6529 0.27631s-1.9458-2.4772-1.207-3.8826 4.2474-1.0152 5.6529-0.27631 1.9458 2.4772 1.207 3.8826z" fill="#382509" fill-rule="evenodd" stroke="#000"/>
   <path d="m213.03 176.4c1.1923 1.1314 1.9062 2.6161 1.9062 4.25s-0.71394 3.1186-1.9062 4.25h9.8438c-1.1995-1.1314-1.9375-2.6161-1.9375-4.25s0.73802-3.1186 1.9375-4.25h-9.8438z" fill="#555753"/>
  </g>
  <g transform="matrix(1 .00089727 -.00089727 1 75.814 146.53)">
   <path d="m206.44 176.34h22.624a4.25 4.25 0 0 1 4.25 4.25 4.25 4.25 0 0 1 -4.25 4.25h-22.624a4.25 4.25 0 0 1 -4.25 -4.25 4.25 4.25 0 0 1 4.25 -4.25" fill="#888a85"/>
   <path d="m231.25 180.57c0 1.5878-3.2872 2.875-4.875 2.875s-2.875-1.2872-2.875-2.875 3.2872-2.875 4.875-2.875 2.875 1.2872 2.875 2.875z" fill="#382509" fill-rule="evenodd" stroke="#000"/>
   <path d="m210.83 182.28c-0.73886 1.4054-4.2474 1.0152-5.6529 0.27631s-1.9458-2.4772-1.207-3.8826 4.2474-1.0152 5.6529-0.27631 1.9458 2.4772 1.207 3.8826z" fill="#382509" fill-rule="evenodd" stroke="#000"/>
   <path d="m213.03 176.4c1.1923 1.1314 1.9062 2.6161 1.9062 4.25s-0.71394 3.1186-1.9062 4.25h9.8438c-1.1995-1.1314-1.9375-2.6161-1.9375-4.25s0.73802-3.1186 1.9375-4.25h-9.8438z" fill="#555753"/>
  </g>
  <g transform="matrix(.99274 -.1203 .1203 .99274 76.365 173.17)">
   <path d="m206.44 176.34h22.624a4.25 4.25 0 0 1 4.25 4.25 4.25 4.25 0 0 1 -4.25 4.25h-22.624a4.25 4.25 0 0 1 -4.25 -4.25 4.25 4.25 0 0 1 4.25 -4.25" fill="#888a85"/>
   <path d="m231.25 180.57c0 1.5878-3.2872 2.875-4.875 2.875s-2.875-1.2872-2.875-2.875 3.2872-2.875 4.875-2.875 2.875 1.2872 2.875 2.875z" fill="#382509" fill-rule="evenodd" stroke="#000"/>
   <path d="m210.83 182.28c-0.73886 1.4054-4.2474 1.0152-5.6529 0.27631s-1.9458-2.4772-1.207-3.8826 4.2474-1.0152 5.6529-0.27631 1.9458 2.4772 1.207 3.8826z" fill="#382509" fill-rule="evenodd" stroke="#000"/>
   <path d="m213.03 176.4c1.1923 1.1314 1.9062 2.6161 1.9062 4.25s-0.71394 3.1186-1.9062 4.25h9.8438c-1.1995-1.1314-1.9375-2.6161-1.9375-4.25s0.73802-3.1186 1.9375-4.25h-9.8438z" fill="#555753"/>
  </g>
  <g transform="matrix(.99274 -.1203 .1203 .99274 76.365 173.17)">
   <path d="m206.44 176.34h22.624a4.25 4.25 0 0 1 4.25 4.25 4.25 4.25 0 0 1 -4.25 4.25h-22.624a4.25 4.25 0 0 1 -4.25 -4.25 4.25 4.25 0 0 1 4.25 -4.25" fill="#888a85"/>
   <path d="m231.25 180.57c0 1.5878-3.2872 2.875-4.875 2.875s-2.875-1.2872-2.875-2.875 3.2872-2.875 4.875-2.875 2.875 1.2872 2.875 2.875z" fill="#382509" fill-rule="evenodd" stroke="#000"/>
   <path d="m210.83 182.28c-0.73886 1.4054-4.2474 1.0152-5.6529 0.27631s-1.9458-2.4772-1.207-3.8826 4.2474-1.0152 5.6529-0.27631 1.9458 2.4772 1.207 3.8826z" fill="#382509" fill-rule="evenodd" stroke="#000"/>
   <path d="m213.03 176.4c1.1923 1.1314 1.9062 2.6161 1.9062 4.25s-0.71394 3.1186-1.9062 4.25h9.8438c-1.1995-1.1314-1.9375-2.6161-1.9375-4.25s0.73802-3.1186 1.9375-4.25h-9.8438z" fill="#555753"/>
  </g>
  <g transform="matrix(.99274 -.1203 .1203 .99274 97.578 171.05)">
   <path d="m206.44 176.34h22.624a4.25 4.25 0 0 1 4.25 4.25 4.25 4.25 0 0 1 -4.25 4.25h-22.624a4.25 4.25 0 0 1 -4.25 -4.25 4.25 4.25 0 0 1 4.25 -4.25" fill="#888a85"/>
   <path d="m231.25 180.57c0 1.5878-3.2872 2.875-4.875 2.875s-2.875-1.2872-2.875-2.875 3.2872-2.875 4.875-2.875 2.875 1.2872 2.875 2.875z" fill="#382509" fill-rule="evenodd" stroke="#000"/>
   <path d="m210.83 182.28c-0.73886 1.4054-4.2474 1.0152-5.6529 0.27631s-1.9458-2.4772-1.207-3.8826 4.2474-1.0152 5.6529-0.27631 1.9458 2.4772 1.207 3.8826z" fill="#382509" fill-rule="evenodd" stroke="#000"/>
   <path d="m213.03 176.4c1.1923 1.1314 1.9062 2.6161 1.9062 4.25s-0.71394 3.1186-1.9062 4.25h9.8438c-1.1995-1.1314-1.9375-2.6161-1.9375-4.25s0.73802-3.1186 1.9375-4.25h-9.8438z" fill="#555753"/>
  </g>
  <g transform="matrix(.92683 .37547 -.37547 .92683 221.16 78.362)">
   <path d="m206.44 176.34h22.624a4.25 4.25 0 0 1 4.25 4.25 4.25 4.25 0 0 1 -4.25 4.25h-22.624a4.25 4.25 0 0 1 -4.25 -4.25 4.25 4.25 0 0 1 4.25 -4.25" fill="#888a85"/>
   <path d="m231.25 180.57c0 1.5878-3.2872 2.875-4.875 2.875s-2.875-1.2872-2.875-2.875 3.2872-2.875 4.875-2.875 2.875 1.2872 2.875 2.875z" fill="#382509" fill-rule="evenodd" stroke="#000"/>
   <path d="m210.83 182.28c-0.73886 1.4054-4.2474 1.0152-5.6529 0.27631s-1.9458-2.4772-1.207-3.8826 4.2474-1.0152 5.6529-0.27631 1.9458 2.4772 1.207 3.8826z" fill="#382509" fill-rule="evenodd" stroke="#000"/>
   <path d="m213.03 176.4c1.1923 1.1314 1.9062 2.6161 1.9062 4.25s-0.71394 3.1186-1.9062 4.25h9.8438c-1.1995-1.1314-1.9375-2.6161-1.9375-4.25s0.73802-3.1186 1.9375-4.25h-9.8438z" fill="#555753"/>
  </g>
  <g transform="matrix(-.04587 .99895 -.99895 -.04587 554.47 132.48)">
   <path d="m206.44 176.34h22.624a4.25 4.25 0 0 1 4.25 4.25 4.25 4.25 0 0 1 -4.25 4.25h-22.624a4.25 4.25 0 0 1 -4.25 -4.25 4.25 4.25 0 0 1 4.25 -4.25" fill="#888a85"/>
   <path d="m231.25 180.57c0 1.5878-3.2872 2.875-4.875 2.875s-2.875-1.2872-2.875-2.875 3.2872-2.875 4.875-2.875 2.875 1.2872 2.875 2.875z" fill="#382509" fill-rule="evenodd" stroke="#000"/>
   <path d="m210.83 182.28c-0.73886 1.4054-4.2474 1.0152-5.6529 0.27631s-1.9458-2.4772-1.207-3.8826 4.2474-1.0152 5.6529-0.27631 1.9458 2.4772 1.207 3.8826z" fill="#382509" fill-rule="evenodd" stroke="#000"/>
   <path d="m213.03 176.4c1.1923 1.1314 1.9062 2.6161 1.9062 4.25s-0.71394 3.1186-1.9062 4.25h9.8438c-1.1995-1.1314-1.9375-2.6161-1.9375-4.25s0.73802-3.1186 1.9375-4.25h-9.8438z" fill="#555753"/>
  </g>
  <g transform="matrix(-.84226 .53907 -.53907 -.84226 634.49 392.35)">
   <path d="m206.44 176.34h22.624a4.25 4.25 0 0 1 4.25 4.25 4.25 4.25 0 0 1 -4.25 4.25h-22.624a4.25 4.25 0 0 1 -4.25 -4.25 4.25 4.25 0 0 1 4.25 -4.25" fill="#888a85"/>
   <path d="m231.25 180.57c0 1.5878-3.2872 2.875-4.875 2.875s-2.875-1.2872-2.875-2.875 3.2872-2.875 4.875-2.875 2.875 1.2872 2.875 2.875z" fill="#382509" fill-rule="evenodd" stroke="#000"/>
   <path d="m210.83 182.28c-0.73886 1.4054-4.2474 1.0152-5.6529 0.27631s-1.9458-2.4772-1.207-3.8826 4.2474-1.0152 5.6529-0.27631 1.9458 2.4772 1.207 3.8826z" fill="#382509" fill-rule="evenodd" stroke="#000"/>
   <path d="m213.03 176.4c1.1923 1.1314 1.9062 2.6161 1.9062 4.25s-0.71394 3.1186-1.9062 4.25h9.8438c-1.1995-1.1314-1.9375-2.6161-1.9375-4.25s0.73802-3.1186 1.9375-4.25h-9.8438z" fill="#555753"/>
  </g>
  <g transform="matrix(-.69243 .72149 -.72149 -.69243 618.01 339.45)">
   <path d="m206.44 176.34h22.624a4.25 4.25 0 0 1 4.25 4.25 4.25 4.25 0 0 1 -4.25 4.25h-22.624a4.25 4.25 0 0 1 -4.25 -4.25 4.25 4.25 0 0 1 4.25 -4.25" fill="#888a85"/>
   <path d="m231.25 180.57c0 1.5878-3.2872 2.875-4.875 2.875s-2.875-1.2872-2.875-2.875 3.2872-2.875 4.875-2.875 2.875 1.2872 2.875 2.875z" fill="#382509" fill-rule="evenodd" stroke="#000"/>
   <path d="m210.83 182.28c-0.73886 1.4054-4.2474 1.0152-5.6529 0.27631s-1.9458-2.4772-1.207-3.8826 4.2474-1.0152 5.6529-0.27631 1.9458 2.4772 1.207 3.8826z" fill="#382509" fill-rule="evenodd" stroke="#000"/>
   <path d="m213.03 176.4c1.1923 1.1314 1.9062 2.6161 1.9062 4.25s-0.71394 3.1186-1.9062 4.25h9.8438c-1.1995-1.1314-1.9375-2.6161-1.9375-4.25s0.73802-3.1186 1.9375-4.25h-9.8438z" fill="#555753"/>
  </g>
  <g transform="matrix(-.86186 .50715 -.50715 -.86186 598.03 430.64)">
   <path d="m206.44 176.34h22.624a4.25 4.25 0 0 1 4.25 4.25 4.25 4.25 0 0 1 -4.25 4.25h-22.624a4.25 4.25 0 0 1 -4.25 -4.25 4.25 4.25 0 0 1 4.25 -4.25" fill="#888a85"/>
   <path d="m231.25 180.57c0 1.5878-3.2872 2.875-4.875 2.875s-2.875-1.2872-2.875-2.875 3.2872-2.875 4.875-2.875 2.875 1.2872 2.875 2.875z" fill="#382509" fill-rule="evenodd" stroke="#000"/>
   <path d="m210.83 182.28c-0.73886 1.4054-4.2474 1.0152-5.6529 0.27631s-1.9458-2.4772-1.207-3.8826 4.2474-1.0152 5.6529-0.27631 1.9458 2.4772 1.207 3.8826z" fill="#382509" fill-rule="evenodd" stroke="#000"/>
   <path d="m213.03 176.4c1.1923 1.1314 1.9062 2.6161 1.9062 4.25s-0.71394 3.1186-1.9062 4.25h9.8438c-1.1995-1.1314-1.9375-2.6161-1.9375-4.25s0.73802-3.1186 1.9375-4.25h-9.8438z" fill="#555753"/>
  </g>
  <g transform="matrix(-1 .00205 -.00205 -1 510.41 571.53)">
   <path d="m206.44 176.34h22.624a4.25 4.25 0 0 1 4.25 4.25 4.25 4.25 0 0 1 -4.25 4.25h-22.624a4.25 4.25 0 0 1 -4.25 -4.25 4.25 4.25 0 0 1 4.25 -4.25" fill="#888a85"/>
   <path d="m231.25 180.57c0 1.5878-3.2872 2.875-4.875 2.875s-2.875-1.2872-2.875-2.875 3.2872-2.875 4.875-2.875 2.875 1.2872 2.875 2.875z" fill="#382509" fill-rule="evenodd" stroke="#000"/>
   <path d="m210.83 182.28c-0.73886 1.4054-4.2474 1.0152-5.6529 0.27631s-1.9458-2.4772-1.207-3.8826 4.2474-1.0152 5.6529-0.27631 1.9458 2.4772 1.207 3.8826z" fill="#382509" fill-rule="evenodd" stroke="#000"/>
   <path d="m213.03 176.4c1.1923 1.1314 1.9062 2.6161 1.9062 4.25s-0.71394 3.1186-1.9062 4.25h9.8438c-1.1995-1.1314-1.9375-2.6161-1.9375-4.25s0.73802-3.1186 1.9375-4.25h-9.8438z" fill="#555753"/>
  </g>
  <g transform="matrix(-.99355 .1134 -.1134 -.99355 507.82 546.38)">
   <path d="m206.44 176.34h22.624a4.25 4.25 0 0 1 4.25 4.25 4.25 4.25 0 0 1 -4.25 4.25h-22.624a4.25 4.25 0 0 1 -4.25 -4.25 4.25 4.25 0 0 1 4.25 -4.25" fill="#888a85"/>
   <path d="m231.25 180.57c0 1.5878-3.2872 2.875-4.875 2.875s-2.875-1.2872-2.875-2.875 3.2872-2.875 4.875-2.875 2.875 1.2872 2.875 2.875z" fill="#382509" fill-rule="evenodd" stroke="#000"/>
   <path d="m210.83 182.28c-0.73886 1.4054-4.2474 1.0152-5.6529 0.27631s-1.9458-2.4772-1.207-3.8826 4.2474-1.0152 5.6529-0.27631 1.9458 2.4772 1.207 3.8826z" fill="#382509" fill-rule="evenodd" stroke="#000"/>
   <path d="m213.03 176.4c1.1923 1.1314 1.9062 2.6161 1.9062 4.25s-0.71394 3.1186-1.9062 4.25h9.8438c-1.1995-1.1314-1.9375-2.6161-1.9375-4.25s0.73802-3.1186 1.9375-4.25h-9.8438z" fill="#555753"/>
  </g>
  <g transform="matrix(-1 .00205 -.00205 -1 468.91 571.53)">
   <path d="m206.44 176.34h22.624a4.25 4.25 0 0 1 4.25 4.25 4.25 4.25 0 0 1 -4.25 4.25h-22.624a4.25 4.25 0 0 1 -4.25 -4.25 4.25 4.25 0 0 1 4.25 -4.25" fill="#888a85"/>
   <path d="m231.25 180.57c0 1.5878-3.2872 2.875-4.875 2.875s-2.875-1.2872-2.875-2.875 3.2872-2.875 4.875-2.875 2.875 1.2872 2.875 2.875z" fill="#382509" fill-rule="evenodd" stroke="#000"/>
   <path d="m210.83 182.28c-0.73886 1.4054-4.2474 1.0152-5.6529 0.27631s-1.9458-2.4772-1.207-3.8826 4.2474-1.0152 5.6529-0.27631 1.9458 2.4772 1.207 3.8826z" fill="#382509" fill-rule="evenodd" stroke="#000"/>
   <path d="m213.03 176.4c1.1923 1.1314 1.9062 2.6161 1.9062 4.25s-0.71394 3.1186-1.9062 4.25h9.8438c-1.1995-1.1314-1.9375-2.6161-1.9375-4.25s0.73802-3.1186 1.9375-4.25h-9.8438z" fill="#555753"/>
  </g>
  <g transform="matrix(-1 .00205 -.00205 -1 447.91 571.53)">
   <path d="m206.44 176.34h22.624a4.25 4.25 0 0 1 4.25 4.25 4.25 4.25 0 0 1 -4.25 4.25h-22.624a4.25 4.25 0 0 1 -4.25 -4.25 4.25 4.25 0 0 1 4.25 -4.25" fill="#888a85"/>
   <path d="m231.25 180.57c0 1.5878-3.2872 2.875-4.875 2.875s-2.875-1.2872-2.875-2.875 3.2872-2.875 4.875-2.875 2.875 1.2872 2.875 2.875z" fill="#382509" fill-rule="evenodd" stroke="#000"/>
   <path d="m210.83 182.28c-0.73886 1.4054-4.2474 1.0152-5.6529 0.27631s-1.9458-2.4772-1.207-3.8826 4.2474-1.0152 5.6529-0.27631 1.9458 2.4772 1.207 3.8826z" fill="#382509" fill-rule="evenodd" stroke="#000"/>
   <path d="m213.03 176.4c1.1923 1.1314 1.9062 2.6161 1.9062 4.25s-0.71394 3.1186-1.9062 4.25h9.8438c-1.1995-1.1314-1.9375-2.6161-1.9375-4.25s0.73802-3.1186 1.9375-4.25h-9.8438z" fill="#555753"/>
  </g>
  <g transform="matrix(-.99583 -.09125 .09125 -.99583 408.92 590.9)">
   <path d="m206.44 176.34h22.624a4.25 4.25 0 0 1 4.25 4.25 4.25 4.25 0 0 1 -4.25 4.25h-22.624a4.25 4.25 0 0 1 -4.25 -4.25 4.25 4.25 0 0 1 4.25 -4.25" fill="#888a85"/>
   <path d="m231.25 180.57c0 1.5878-3.2872 2.875-4.875 2.875s-2.875-1.2872-2.875-2.875 3.2872-2.875 4.875-2.875 2.875 1.2872 2.875 2.875z" fill="#382509" fill-rule="evenodd" stroke="#000"/>
   <path d="m210.83 182.28c-0.73886 1.4054-4.2474 1.0152-5.6529 0.27631s-1.9458-2.4772-1.207-3.8826 4.2474-1.0152 5.6529-0.27631 1.9458 2.4772 1.207 3.8826z" fill="#382509" fill-rule="evenodd" stroke="#000"/>
   <path d="m213.03 176.4c1.1923 1.1314 1.9062 2.6161 1.9062 4.25s-0.71394 3.1186-1.9062 4.25h9.8438c-1.1995-1.1314-1.9375-2.6161-1.9375-4.25s0.73802-3.1186 1.9375-4.25h-9.8438z" fill="#555753"/>
  </g>
  <g transform="matrix(-1 .00205 -.00205 -1 403.41 571.53)">
   <path d="m206.44 176.34h22.624a4.25 4.25 0 0 1 4.25 4.25 4.25 4.25 0 0 1 -4.25 4.25h-22.624a4.25 4.25 0 0 1 -4.25 -4.25 4.25 4.25 0 0 1 4.25 -4.25" fill="#888a85"/>
   <path d="m231.25 180.57c0 1.5878-3.2872 2.875-4.875 2.875s-2.875-1.2872-2.875-2.875 3.2872-2.875 4.875-2.875 2.875 1.2872 2.875 2.875z" fill="#382509" fill-rule="evenodd" stroke="#000"/>
   <path d="m210.83 182.28c-0.73886 1.4054-4.2474 1.0152-5.6529 0.27631s-1.9458-2.4772-1.207-3.8826 4.2474-1.0152 5.6529-0.27631 1.9458 2.4772 1.207 3.8826z" fill="#382509" fill-rule="evenodd" stroke="#000"/>
   <path d="m213.03 176.4c1.1923 1.1314 1.9062 2.6161 1.9062 4.25s-0.71394 3.1186-1.9062 4.25h9.8438c-1.1995-1.1314-1.9375-2.6161-1.9375-4.25s0.73802-3.1186 1.9375-4.25h-9.8438z" fill="#555753"/>
  </g>
  <g transform="matrix(-.98222 -.18772 .18772 -.98222 343.83 607.78)">
   <path d="m206.44 176.34h22.624a4.25 4.25 0 0 1 4.25 4.25 4.25 4.25 0 0 1 -4.25 4.25h-22.624a4.25 4.25 0 0 1 -4.25 -4.25 4.25 4.25 0 0 1 4.25 -4.25" fill="#888a85"/>
   <path d="m231.25 180.57c0 1.5878-3.2872 2.875-4.875 2.875s-2.875-1.2872-2.875-2.875 3.2872-2.875 4.875-2.875 2.875 1.2872 2.875 2.875z" fill="#382509" fill-rule="evenodd" stroke="#000"/>
   <path d="m210.83 182.28c-0.73886 1.4054-4.2474 1.0152-5.6529 0.27631s-1.9458-2.4772-1.207-3.8826 4.2474-1.0152 5.6529-0.27631 1.9458 2.4772 1.207 3.8826z" fill="#382509" fill-rule="evenodd" stroke="#000"/>
   <path d="m213.03 176.4c1.1923 1.1314 1.9062 2.6161 1.9062 4.25s-0.71394 3.1186-1.9062 4.25h9.8438c-1.1995-1.1314-1.9375-2.6161-1.9375-4.25s0.73802-3.1186 1.9375-4.25h-9.8438z" fill="#555753"/>
  </g>
  <g transform="matrix(-.98222 -.18772 .18772 -.98222 321.33 602.78)">
   <path d="m206.44 176.34h22.624a4.25 4.25 0 0 1 4.25 4.25 4.25 4.25 0 0 1 -4.25 4.25h-22.624a4.25 4.25 0 0 1 -4.25 -4.25 4.25 4.25 0 0 1 4.25 -4.25" fill="#888a85"/>
   <path d="m231.25 180.57c0 1.5878-3.2872 2.875-4.875 2.875s-2.875-1.2872-2.875-2.875 3.2872-2.875 4.875-2.875 2.875 1.2872 2.875 2.875z" fill="#382509" fill-rule="evenodd" stroke="#000"/>
   <path d="m210.83 182.28c-0.73886 1.4054-4.2474 1.0152-5.6529 0.27631s-1.9458-2.4772-1.207-3.8826 4.2474-1.0152 5.6529-0.27631 1.9458 2.4772 1.207 3.8826z" fill="#382509" fill-rule="evenodd" stroke="#000"/>
   <path d="m213.03 176.4c1.1923 1.1314 1.9062 2.6161 1.9062 4.25s-0.71394 3.1186-1.9062 4.25h9.8438c-1.1995-1.1314-1.9375-2.6161-1.9375-4.25s0.73802-3.1186 1.9375-4.25h-9.8438z" fill="#555753"/>
  </g>
  <g transform="matrix(-.79366 -.60837 .60837 -.79366 185.59 650.67)">
   <path d="m206.44 176.34h22.624a4.25 4.25 0 0 1 4.25 4.25 4.25 4.25 0 0 1 -4.25 4.25h-22.624a4.25 4.25 0 0 1 -4.25 -4.25 4.25 4.25 0 0 1 4.25 -4.25" fill="#888a85"/>
   <path d="m231.25 180.57c0 1.5878-3.2872 2.875-4.875 2.875s-2.875-1.2872-2.875-2.875 3.2872-2.875 4.875-2.875 2.875 1.2872 2.875 2.875z" fill="#382509" fill-rule="evenodd" stroke="#000"/>
   <path d="m210.83 182.28c-0.73886 1.4054-4.2474 1.0152-5.6529 0.27631s-1.9458-2.4772-1.207-3.8826 4.2474-1.0152 5.6529-0.27631 1.9458 2.4772 1.207 3.8826z" fill="#382509" fill-rule="evenodd" stroke="#000"/>
   <path d="m213.03 176.4c1.1923 1.1314 1.9062 2.6161 1.9062 4.25s-0.71394 3.1186-1.9062 4.25h9.8438c-1.1995-1.1314-1.9375-2.6161-1.9375-4.25s0.73802-3.1186 1.9375-4.25h-9.8438z" fill="#555753"/>
  </g>
  <g transform="matrix(-.08918 -.99602 .99602 -.08918 -48.19 588.15)">
   <path d="m206.44 176.34h22.624a4.25 4.25 0 0 1 4.25 4.25 4.25 4.25 0 0 1 -4.25 4.25h-22.624a4.25 4.25 0 0 1 -4.25 -4.25 4.25 4.25 0 0 1 4.25 -4.25" fill="#888a85"/>
   <path d="m231.25 180.57c0 1.5878-3.2872 2.875-4.875 2.875s-2.875-1.2872-2.875-2.875 3.2872-2.875 4.875-2.875 2.875 1.2872 2.875 2.875z" fill="#382509" fill-rule="evenodd" stroke="#000"/>
   <path d="m210.83 182.28c-0.73886 1.4054-4.2474 1.0152-5.6529 0.27631s-1.9458-2.4772-1.207-3.8826 4.2474-1.0152 5.6529-0.27631 1.9458 2.4772 1.207 3.8826z" fill="#382509" fill-rule="evenodd" stroke="#000"/>
   <path d="m213.03 176.4c1.1923 1.1314 1.9062 2.6161 1.9062 4.25s-0.71394 3.1186-1.9062 4.25h9.8438c-1.1995-1.1314-1.9375-2.6161-1.9375-4.25s0.73802-3.1186 1.9375-4.25h-9.8438z" fill="#555753"/>
  </g>
  <g transform="matrix(.82786 -.56094 .56094 .82786 -160.51 310.68)">
   <path d="m206.44 176.34h22.624a4.25 4.25 0 0 1 4.25 4.25 4.25 4.25 0 0 1 -4.25 4.25h-22.624a4.25 4.25 0 0 1 -4.25 -4.25 4.25 4.25 0 0 1 4.25 -4.25" fill="#888a85"/>
   <path d="m231.25 180.57c0 1.5878-3.2872 2.875-4.875 2.875s-2.875-1.2872-2.875-2.875 3.2872-2.875 4.875-2.875 2.875 1.2872 2.875 2.875z" fill="#382509" fill-rule="evenodd" stroke="#000"/>
   <path d="m210.83 182.28c-0.73886 1.4054-4.2474 1.0152-5.6529 0.27631s-1.9458-2.4772-1.207-3.8826 4.2474-1.0152 5.6529-0.27631 1.9458 2.4772 1.207 3.8826z" fill="#382509" fill-rule="evenodd" stroke="#000"/>
   <path d="m213.03 176.4c1.1923 1.1314 1.9062 2.6161 1.9062 4.25s-0.71394 3.1186-1.9062 4.25h9.8438c-1.1995-1.1314-1.9375-2.6161-1.9375-4.25s0.73802-3.1186 1.9375-4.25h-9.8438z" fill="#555753"/>
  </g>
  <g transform="matrix(.98858 .15072 -.15072 .98858 -44.219 121.56)">
   <path d="m206.44 176.34h22.624a4.25 4.25 0 0 1 4.25 4.25 4.25 4.25 0 0 1 -4.25 4.25h-22.624a4.25 4.25 0 0 1 -4.25 -4.25 4.25 4.25 0 0 1 4.25 -4.25" fill="#888a85"/>
   <path d="m231.25 180.57c0 1.5878-3.2872 2.875-4.875 2.875s-2.875-1.2872-2.875-2.875 3.2872-2.875 4.875-2.875 2.875 1.2872 2.875 2.875z" fill="#382509" fill-rule="evenodd" stroke="#000"/>
   <path d="m210.83 182.28c-0.73886 1.4054-4.2474 1.0152-5.6529 0.27631s-1.9458-2.4772-1.207-3.8826 4.2474-1.0152 5.6529-0.27631 1.9458 2.4772 1.207 3.8826z" fill="#382509" fill-rule="evenodd" stroke="#000"/>
   <path d="m213.03 176.4c1.1923 1.1314 1.9062 2.6161 1.9062 4.25s-0.71394 3.1186-1.9062 4.25h9.8438c-1.1995-1.1314-1.9375-2.6161-1.9375-4.25s0.73802-3.1186 1.9375-4.25h-9.8438z" fill="#555753"/>
  </g>
  <g transform="matrix(.99905 -.0436 .0436 .99905 -61.231 164.81)">
   <path d="m206.44 176.34h22.624a4.25 4.25 0 0 1 4.25 4.25 4.25 4.25 0 0 1 -4.25 4.25h-22.624a4.25 4.25 0 0 1 -4.25 -4.25 4.25 4.25 0 0 1 4.25 -4.25" fill="#888a85"/>
   <path d="m231.25 180.57c0 1.5878-3.2872 2.875-4.875 2.875s-2.875-1.2872-2.875-2.875 3.2872-2.875 4.875-2.875 2.875 1.2872 2.875 2.875z" fill="#382509" fill-rule="evenodd" stroke="#000"/>
   <path d="m210.83 182.28c-0.73886 1.4054-4.2474 1.0152-5.6529 0.27631s-1.9458-2.4772-1.207-3.8826 4.2474-1.0152 5.6529-0.27631 1.9458 2.4772 1.207 3.8826z" fill="#382509" fill-rule="evenodd" stroke="#000"/>
   <path d="m213.03 176.4c1.1923 1.1314 1.9062 2.6161 1.9062 4.25s-0.71394 3.1186-1.9062 4.25h9.8438c-1.1995-1.1314-1.9375-2.6161-1.9375-4.25s0.73802-3.1186 1.9375-4.25h-9.8438z" fill="#555753"/>
  </g>
  <g transform="matrix(.99905 -.0436 .0436 .99905 -40.731 162.81)">
   <path d="m206.44 176.34h22.624a4.25 4.25 0 0 1 4.25 4.25 4.25 4.25 0 0 1 -4.25 4.25h-22.624a4.25 4.25 0 0 1 -4.25 -4.25 4.25 4.25 0 0 1 4.25 -4.25" fill="#888a85"/>
   <path d="m231.25 180.57c0 1.5878-3.2872 2.875-4.875 2.875s-2.875-1.2872-2.875-2.875 3.2872-2.875 4.875-2.875 2.875 1.2872 2.875 2.875z" fill="#382509" fill-rule="evenodd" stroke="#000"/>
   <path d="m210.83 182.28c-0.73886 1.4054-4.2474 1.0152-5.6529 0.27631s-1.9458-2.4772-1.207-3.8826 4.2474-1.0152 5.6529-0.27631 1.9458 2.4772 1.207 3.8826z" fill="#382509" fill-rule="evenodd" stroke="#000"/>
   <path d="m213.03 176.4c1.1923 1.1314 1.9062 2.6161 1.9062 4.25s-0.71394 3.1186-1.9062 4.25h9.8438c-1.1995-1.1314-1.9375-2.6161-1.9375-4.25s0.73802-3.1186 1.9375-4.25h-9.8438z" fill="#555753"/>
  </g>
  <g transform="matrix(.98459 .17486 -.17486 .98459 20.867 120.35)">
   <path d="m206.44 176.34h22.624a4.25 4.25 0 0 1 4.25 4.25 4.25 4.25 0 0 1 -4.25 4.25h-22.624a4.25 4.25 0 0 1 -4.25 -4.25 4.25 4.25 0 0 1 4.25 -4.25" fill="#888a85"/>
   <path d="m231.25 180.57c0 1.5878-3.2872 2.875-4.875 2.875s-2.875-1.2872-2.875-2.875 3.2872-2.875 4.875-2.875 2.875 1.2872 2.875 2.875z" fill="#382509" fill-rule="evenodd" stroke="#000"/>
   <path d="m210.83 182.28c-0.73886 1.4054-4.2474 1.0152-5.6529 0.27631s-1.9458-2.4772-1.207-3.8826 4.2474-1.0152 5.6529-0.27631 1.9458 2.4772 1.207 3.8826z" fill="#382509" fill-rule="evenodd" stroke="#000"/>
   <path d="m213.03 176.4c1.1923 1.1314 1.9062 2.6161 1.9062 4.25s-0.71394 3.1186-1.9062 4.25h9.8438c-1.1995-1.1314-1.9375-2.6161-1.9375-4.25s0.73802-3.1186 1.9375-4.25h-9.8438z" fill="#555753"/>
  </g>
  <g transform="matrix(.99231 -.12377 .12377 .99231 -11.241 184.48)">
   <path d="m206.44 176.34h22.624a4.25 4.25 0 0 1 4.25 4.25 4.25 4.25 0 0 1 -4.25 4.25h-22.624a4.25 4.25 0 0 1 -4.25 -4.25 4.25 4.25 0 0 1 4.25 -4.25" fill="#888a85"/>
   <path d="m231.25 180.57c0 1.5878-3.2872 2.875-4.875 2.875s-2.875-1.2872-2.875-2.875 3.2872-2.875 4.875-2.875 2.875 1.2872 2.875 2.875z" fill="#382509" fill-rule="evenodd" stroke="#000"/>
   <path d="m210.83 182.28c-0.73886 1.4054-4.2474 1.0152-5.6529 0.27631s-1.9458-2.4772-1.207-3.8826 4.2474-1.0152 5.6529-0.27631 1.9458 2.4772 1.207 3.8826z" fill="#382509" fill-rule="evenodd" stroke="#000"/>
   <path d="m213.03 176.4c1.1923 1.1314 1.9062 2.6161 1.9062 4.25s-0.71394 3.1186-1.9062 4.25h9.8438c-1.1995-1.1314-1.9375-2.6161-1.9375-4.25s0.73802-3.1186 1.9375-4.25h-9.8438z" fill="#555753"/>
  </g>
  <path transform="matrix(.59655 .07897 -.07897 .59655 279.42 52.159)" d="m187.86 462.01c0 10.454-8.4746 18.929-18.929 18.929s-18.929-8.4746-18.929-18.929 8.4746-18.929 18.929-18.929 18.929 8.4746 18.929 18.929z" fill="#444643"/>
  <path transform="matrix(.40833 .05405 -.05405 .40833 284.91 245.53)" d="m166.76 229.36c-0.75166 0.75166-4.1072 1.6508-5.134 1.3756s-3.4832-2.7315-3.7583-3.7583 0.62398-4.3823 1.3756-5.134 4.1072-1.6508 5.134-1.3756 3.4832 2.7315 3.7583 3.7583-0.62398 4.3823-1.3756 5.134z" fill="#888a85"/>
  <path transform="matrix(.40833 .05405 -.05405 .40833 295 235.24)" d="m166.76 229.36c-0.75166 0.75166-4.1072 1.6508-5.134 1.3756s-3.4832-2.7315-3.7583-3.7583 0.62398-4.3823 1.3756-5.134 4.1072-1.6508 5.134-1.3756 3.4832 2.7315 3.7583 3.7583-0.62398 4.3823-1.3756 5.134z" fill="#888a85"/>
  <path transform="matrix(.40833 .05405 -.05405 .40833 282.38 237.93)" d="m166.76 229.36c-0.75166 0.75166-4.1072 1.6508-5.134 1.3756s-3.4832-2.7315-3.7583-3.7583 0.62398-4.3823 1.3756-5.134 4.1072-1.6508 5.134-1.3756 3.4832 2.7315 3.7583 3.7583-0.62398 4.3823-1.3756 5.134z" fill="#888a85"/>
  <path transform="matrix(.40833 .05405 -.05405 .40833 287.89 232.43)" d="m166.76 229.36c-0.75166 0.75166-4.1072 1.6508-5.134 1.3756s-3.4832-2.7315-3.7583-3.7583 0.62398-4.3823 1.3756-5.134 4.1072-1.6508 5.134-1.3756 3.4832 2.7315 3.7583 3.7583-0.62398 4.3823-1.3756 5.134z" fill="#888a85"/>
  <path transform="matrix(.40833 .05405 -.05405 .40833 292.28 247.13)" d="m166.76 229.36c-0.75166 0.75166-4.1072 1.6508-5.134 1.3756s-3.4832-2.7315-3.7583-3.7583 0.62398-4.3823 1.3756-5.134 4.1072-1.6508 5.134-1.3756 3.4832 2.7315 3.7583 3.7583-0.62398 4.3823-1.3756 5.134z" fill="#888a85"/>
  <path transform="matrix(.40833 .05405 -.05405 .40833 296.24 241.53)" d="m166.76 229.36c-0.75166 0.75166-4.1072 1.6508-5.134 1.3756s-3.4832-2.7315-3.7583-3.7583 0.62398-4.3823 1.3756-5.134 4.1072-1.6508 5.134-1.3756 3.4832 2.7315 3.7583 3.7583-0.62398 4.3823-1.3756 5.134z" fill="#888a85"/>
  <path transform="matrix(.80946 .10716 -.10716 .80946 47.346 -37.006)" d="m187.86 462.01c0 10.454-8.4746 18.929-18.929 18.929s-18.929-8.4746-18.929-18.929 8.4746-18.929 18.929-18.929 18.929 8.4746 18.929 18.929z" fill="#444643"/>
  <path transform="matrix(.55407 .07335 -.07335 .55407 54.795 225.39)" d="m166.76 229.36c-0.75166 0.75166-4.1072 1.6508-5.134 1.3756s-3.4832-2.7315-3.7583-3.7583 0.62398-4.3823 1.3756-5.134 4.1072-1.6508 5.134-1.3756 3.4832 2.7315 3.7583 3.7583-0.62398 4.3823-1.3756 5.134z" fill="#888a85"/>
  <path transform="matrix(.55407 .07335 -.07335 .55407 68.484 211.41)" d="m166.76 229.36c-0.75166 0.75166-4.1072 1.6508-5.134 1.3756s-3.4832-2.7315-3.7583-3.7583 0.62398-4.3823 1.3756-5.134 4.1072-1.6508 5.134-1.3756 3.4832 2.7315 3.7583 3.7583-0.62398 4.3823-1.3756 5.134z" fill="#888a85"/>
  <path transform="matrix(.55407 .07335 -.07335 .55407 51.369 215.07)" d="m166.76 229.36c-0.75166 0.75166-4.1072 1.6508-5.134 1.3756s-3.4832-2.7315-3.7583-3.7583 0.62398-4.3823 1.3756-5.134 4.1072-1.6508 5.134-1.3756 3.4832 2.7315 3.7583 3.7583-0.62398 4.3823-1.3756 5.134z" fill="#888a85"/>
  <path transform="matrix(.55407 .07335 -.07335 .55407 58.841 207.6)" d="m166.76 229.36c-0.75166 0.75166-4.1072 1.6508-5.134 1.3756s-3.4832-2.7315-3.7583-3.7583 0.62398-4.3823 1.3756-5.134 4.1072-1.6508 5.134-1.3756 3.4832 2.7315 3.7583 3.7583-0.62398 4.3823-1.3756 5.134z" fill="#888a85"/>
  <path transform="matrix(.55407 .07335 -.07335 .55407 64.797 227.56)" d="m166.76 229.36c-0.75166 0.75166-4.1072 1.6508-5.134 1.3756s-3.4832-2.7315-3.7583-3.7583 0.62398-4.3823 1.3756-5.134 4.1072-1.6508 5.134-1.3756 3.4832 2.7315 3.7583 3.7583-0.62398 4.3823-1.3756 5.134z" fill="#888a85"/>
  <path transform="matrix(.55407 .07335 -.07335 .55407 70.173 219.95)" d="m166.76 229.36c-0.75166 0.75166-4.1072 1.6508-5.134 1.3756s-3.4832-2.7315-3.7583-3.7583 0.62398-4.3823 1.3756-5.134 4.1072-1.6508 5.134-1.3756 3.4832 2.7315 3.7583 3.7583-0.62398 4.3823-1.3756 5.134z" fill="#888a85"/>
  <path d="m125.82 320.25 15.774 1.2071s2.3897-24.535 14.991-30.422c-15.441-7.1066-30.765 29.215-30.765 29.215z" fill="#73d216"/>
 </g>
</svg>
